<svg width="384" height="384" viewBox="0 0 384 384" fill="none" xmlns="http://www.w3.org/2000/svg">
<path d="M280.016 0H104.046C86.4003 0 72.0512 14.3492 72.0512 31.9947V191.968H48.0864C34.7605 191.968 23.0515 199.998 18.2437 212.429C13.4359 224.857 16.7088 238.671 26.6993 247.759L170.507 375.601C176.667 381.21 184.376 383.998 192.078 383.998C199.741 383.998 207.372 381.241 213.418 375.738L357.492 247.631C367.346 238.671 370.619 224.849 365.819 212.429C361.019 200.006 349.302 191.968 335.976 191.968H312.011V31.9947C312.011 14.3492 297.662 0 280.016 0V0ZM336.105 223.834L191.902 351.812L48.0864 223.963H72.0512C89.6967 223.963 104.046 209.613 104.046 191.968V31.9947H280.016V191.968C280.016 209.613 294.366 223.963 312.011 223.963L336.105 223.834Z" fill="#5E20E4"/>
<path d="M160.037 127.979C168.867 127.979 176.034 120.812 176.034 111.981C176.034 103.151 168.867 95.984 160.037 95.984H152.038C143.207 95.984 136.041 103.151 136.041 111.981C136.041 120.812 143.207 127.979 152.038 127.979H160.037Z" fill="#5E20E4"/>
<path d="M232.025 191.968H224.026C215.195 191.968 208.029 199.135 208.029 207.965C208.029 216.796 215.195 223.963 224.026 223.963H232.025C240.855 223.963 248.022 216.796 248.022 207.965C248.022 199.135 240.855 191.968 232.025 191.968Z" fill="#5E20E4"/>
<path d="M235.337 116.668C229.095 110.423 218.953 110.423 212.715 116.668L148.726 180.657C142.481 186.906 142.481 197.03 148.726 203.279C151.847 206.407 155.94 207.965 160.037 207.965C164.134 207.965 168.227 206.407 171.347 203.279L235.337 139.289C241.582 133.04 241.582 122.917 235.337 116.668Z" fill="#5E20E4"/>
</svg>
