<svg width="783" height="620" viewBox="0 0 783 620" fill="none" xmlns="http://www.w3.org/2000/svg">
<path d="M204.637 277.906C286.906 277.906 353.598 215.694 353.598 138.953C353.598 62.2113 286.906 0 204.637 0C122.367 0 55.6748 62.2113 55.6748 138.953C55.6748 215.694 122.367 277.906 204.637 277.906Z" fill="#F2F2F2"/>
<path d="M0 33.3633C0 83.9198 34.0011 124.83 76.02 124.83Z" fill="#2F2E41"/>
<path d="M76.02 124.829C76.02 73.7048 113.963 32.3354 160.854 32.3354Z" fill="#6C63FF"/>
<path d="M27.5435 37.9463C27.5435 85.9696 49.2253 124.83 76.02 124.83Z" fill="#6C63FF"/>
<path d="M76.02 124.829C76.02 59.5035 119.877 6.64258 174.075 6.64258Z" fill="#2F2E41"/>
<path d="M60.0273 125.475C60.0273 125.475 70.8082 125.165 74.0573 123.007C77.3064 120.849 90.641 118.272 91.447 121.733C92.2531 125.194 107.649 138.947 95.4772 139.039C83.3056 139.131 67.1958 137.27 63.953 135.428C60.7102 133.585 60.0273 125.475 60.0273 125.475Z" fill="#A8A8A8"/>
<path opacity="0.2" d="M95.6944 137.834C83.5228 137.926 67.4131 136.066 64.1702 134.223C61.7006 132.82 60.7165 127.784 60.3873 125.461C60.1592 125.471 60.0273 125.474 60.0273 125.474C60.0273 125.474 60.7102 133.585 63.953 135.428C67.1959 137.27 83.3056 139.13 95.4772 139.039C98.9906 139.012 100.204 137.846 100.138 136.119C99.6494 137.163 98.3094 137.814 95.6944 137.834Z" fill="black"/>
<path d="M138.898 293.523C211.125 293.523 269.677 286.093 269.677 276.927C269.677 267.761 211.125 260.331 138.898 260.331C66.6708 260.331 8.11914 267.761 8.11914 276.927C8.11914 286.093 66.6708 293.523 138.898 293.523Z" fill="#3F3D56"/>
<path opacity="0.1" d="M138.898 290.861C199.538 290.861 248.696 284.622 248.696 276.927C248.696 269.232 199.538 262.994 138.898 262.994C78.2579 262.994 29.0996 269.232 29.0996 276.927C29.0996 284.622 78.2579 290.861 138.898 290.861Z" fill="black"/>
<path d="M585.083 456C694.39 456 783 444.755 783 430.884C783 417.013 694.39 405.768 585.083 405.768C475.777 405.768 387.167 417.013 387.167 430.884C387.167 444.755 475.777 456 585.083 456Z" fill="#3F3D56"/>
<path d="M217.225 436.186C282.886 436.186 336.115 429.431 336.115 421.099C336.115 412.767 282.886 406.012 217.225 406.012C151.564 406.012 98.3354 412.767 98.3354 421.099C98.3354 429.431 151.564 436.186 217.225 436.186Z" fill="#3F3D56"/>
<path d="M323.526 408.377C386.468 423.382 507.456 388.807 520.743 349.665" stroke="#2F2E41" stroke-width="2" stroke-miterlimit="10"/>
<path d="M216.525 168.961C216.525 168.961 307.441 145.476 313.036 221.15C318.631 296.824 238.205 318.352 301.147 333.356" stroke="#2F2E41" stroke-width="2" stroke-miterlimit="10"/>
<path d="M128.689 350.503C128.689 350.503 156.014 343.444 157.696 366.188C159.377 388.932 135.205 395.403 154.122 399.912" stroke="#2F2E41" stroke-width="2" stroke-miterlimit="10"/>
<path d="M544.588 367.435L539.079 400.246C539.079 400.246 511.957 413.687 531.027 414.082C550.097 414.477 639.939 414.082 639.939 414.082C639.939 414.082 657.314 414.082 629.768 399.851L624.259 365.459L544.588 367.435Z" fill="#2F2E41"/>
<path opacity="0.1" d="M527.191 413.726C531.522 410.131 539.079 406.385 539.079 406.385L544.588 373.575L624.259 373.645L629.768 405.99C636.192 409.309 640.171 411.853 642.499 413.804C646.037 413.051 649.903 410.253 629.768 399.851L624.259 365.459L544.588 367.435L539.079 400.246C539.079 400.246 516.288 411.541 527.191 413.726Z" fill="black"/>
<path d="M750.852 138.75H417.148C410.178 138.75 404.528 144.02 404.528 150.522V360.209C404.528 366.711 410.178 371.981 417.148 371.981H750.852C757.822 371.981 763.472 366.711 763.472 360.209V150.522C763.472 144.02 757.822 138.75 750.852 138.75Z" fill="#2F2E41"/>
<path d="M751.394 151.202H416.605V325.928H751.394V151.202Z" fill="#3F3D56"/>
<path d="M584 147.644C585.17 147.644 586.119 146.759 586.119 145.667C586.119 144.576 585.17 143.691 584 143.691C582.83 143.691 581.881 144.576 581.881 145.667C581.881 146.759 582.83 147.644 584 147.644Z" fill="#F2F2F2"/>
<path d="M763.472 339.764V360.209C763.472 361.755 763.146 363.286 762.512 364.714C761.878 366.143 760.948 367.441 759.776 368.534C758.604 369.627 757.213 370.494 755.682 371.086C754.15 371.677 752.509 371.982 750.852 371.981H417.148C415.491 371.982 413.85 371.677 412.318 371.086C410.787 370.494 409.396 369.627 408.224 368.534C407.052 367.441 406.122 366.143 405.488 364.714C404.854 363.286 404.528 361.755 404.528 360.209V339.764H763.472Z" fill="#2F2E41"/>
<path d="M677.656 435.429V439.382H449.661V436.219L449.975 435.429L455.594 421.197H672.994L677.656 435.429Z" fill="#2F2E41"/>
<path d="M765.396 431.558C764.981 433.215 763.413 434.962 759.87 436.614C747.156 442.544 721.305 435.033 721.305 435.033C721.305 435.033 701.388 431.871 701.388 423.569C701.947 423.212 702.53 422.888 703.134 422.601C708.479 419.963 726.201 413.454 757.626 422.876C759.941 423.554 762.008 424.818 763.599 426.528C764.872 427.918 765.871 429.682 765.396 431.558Z" fill="#2F2E41"/>
<path opacity="0.1" d="M765.396 431.558C749.835 437.12 735.964 437.535 721.729 428.313C714.55 423.664 708.028 422.514 703.134 422.601C708.479 419.963 726.201 413.454 757.626 422.876C759.941 423.554 762.009 424.818 763.599 426.528C764.872 427.918 765.871 429.682 765.396 431.558Z" fill="black"/>
<path d="M745.885 428.313C748.927 428.313 751.394 427.605 751.394 426.732C751.394 425.858 748.927 425.15 745.885 425.15C742.842 425.15 740.375 425.858 740.375 426.732C740.375 427.605 742.842 428.313 745.885 428.313Z" fill="#F2F2F2"/>
<path d="M584 363.482C588.447 363.482 592.052 360.119 592.052 355.971C592.052 351.823 588.447 348.46 584 348.46C579.553 348.46 575.948 351.823 575.948 355.971C575.948 360.119 579.553 363.482 584 363.482Z" fill="#F2F2F2"/>
<path opacity="0.1" d="M677.656 435.429V439.382H449.661V436.219L449.975 435.429H677.656Z" fill="black"/>
<path d="M221.421 103.725H75.9561V261.596H221.421V103.725Z" fill="#2F2E41"/>
<path d="M236.107 88.0688H61.2695V144.172H236.107V88.0688Z" fill="#3F3D56"/>
<path d="M236.107 154.609H61.2695V210.712H236.107V154.609Z" fill="#3F3D56"/>
<path d="M236.107 221.15H61.2695V277.253H236.107V221.15Z" fill="#3F3D56"/>
<path opacity="0.4" d="M201.14 97.854H189.95V108.292H201.14V97.854Z" fill="#6C63FF"/>
<path opacity="0.8" d="M217.225 97.854H206.035V108.292H217.225V97.854Z" fill="#6C63FF"/>
<path d="M233.31 97.854H222.12V108.292H233.31V97.854Z" fill="#6C63FF"/>
<path opacity="0.4" d="M201.14 163.743H189.95V174.18H201.14V163.743Z" fill="#6C63FF"/>
<path opacity="0.8" d="M217.225 163.743H206.035V174.18H217.225V163.743Z" fill="#6C63FF"/>
<path d="M233.31 163.743H222.12V174.18H233.31V163.743Z" fill="#6C63FF"/>
<path opacity="0.4" d="M201.14 229.631H189.95V240.069H201.14V229.631Z" fill="#6C63FF"/>
<path opacity="0.8" d="M217.225 229.631H206.035V240.069H217.225V229.631Z" fill="#6C63FF"/>
<path d="M233.31 229.631H222.12V240.069H233.31V229.631Z" fill="#6C63FF"/>
<path d="M221.421 402.507C251.934 402.507 276.67 379.433 276.67 350.97C276.67 322.507 251.934 299.434 221.421 299.434C190.908 299.434 166.172 322.507 166.172 350.97C166.172 379.433 190.908 402.507 221.421 402.507Z" fill="#2F2E41"/>
<path d="M213.029 391.417H196.244V419.468H213.029V391.417Z" fill="#2F2E41"/>
<path d="M246.598 391.417H229.813V419.468H246.598V391.417Z" fill="#2F2E41"/>
<path d="M210.231 424.687C217.956 424.687 224.218 422.496 224.218 419.794C224.218 417.092 217.956 414.901 210.231 414.901C202.506 414.901 196.244 417.092 196.244 419.794C196.244 422.496 202.506 424.687 210.231 424.687Z" fill="#2F2E41"/>
<path d="M243.801 424.034C251.525 424.034 257.788 421.844 257.788 419.142C257.788 416.44 251.525 414.249 243.801 414.249C236.076 414.249 229.813 416.44 229.813 419.142C229.813 421.844 236.076 424.034 243.801 424.034Z" fill="#2F2E41"/>
<path d="M222.82 355.537C233.248 355.537 241.702 347.651 241.702 337.923C241.702 328.195 233.248 320.309 222.82 320.309C212.391 320.309 203.938 328.195 203.938 337.923C203.938 347.651 212.391 355.537 222.82 355.537Z" fill="white"/>
<path d="M222.82 343.794C226.296 343.794 229.114 341.166 229.114 337.923C229.114 334.68 226.296 332.052 222.82 332.052C219.343 332.052 216.525 334.68 216.525 337.923C216.525 341.166 219.343 343.794 222.82 343.794Z" fill="#3F3D56"/>
<path d="M167.828 303.043C163.367 284.406 177.627 265.575 199.679 260.982C221.731 256.389 243.224 267.773 247.686 286.409C252.147 305.046 237.532 311.919 215.48 316.512C193.428 321.105 172.289 321.679 167.828 303.043Z" fill="#6C63FF"/>
<path d="M273.239 340.691C287.265 335.091 297.107 327.222 295.222 323.115C293.338 319.008 280.44 320.218 266.414 325.817C252.388 331.417 242.546 339.286 244.43 343.393C246.315 347.501 259.213 346.291 273.239 340.691Z" fill="#2F2E41"/>
<path d="M169.735 375.266C183.761 369.667 193.603 361.797 191.719 357.69C189.834 353.583 176.936 354.793 162.91 360.392C148.884 365.992 139.042 373.861 140.926 377.969C142.811 382.076 155.709 380.866 169.735 375.266Z" fill="#2F2E41"/>
<path d="M253.591 365.974C253.591 371.018 239.668 380.978 224.219 380.978C208.769 380.978 194.146 371.671 194.146 366.626C194.146 361.582 208.769 362.712 224.219 362.712C239.668 362.712 253.591 360.93 253.591 365.974Z" fill="white"/>
<path d="M248.731 570.772C260.785 571.948 270.683 572.536 278.425 572.536C284.403 572.536 288.862 572.144 291.802 571.36C294.742 570.576 296.751 569.204 297.829 567.244C299.005 565.186 299.593 562.148 299.593 558.13C299.593 553.818 298.956 550.682 297.682 548.722C296.506 546.664 294.448 545.341 291.508 544.753C288.568 544.165 283.913 543.871 277.543 543.871C273.819 543.871 269.36 544.067 264.166 544.459C258.972 544.753 254.219 545.145 249.907 545.635V487.864H313.264V505.798H268.576V527.407C274.75 526.721 281.316 526.378 288.274 526.378C296.898 526.378 303.562 527.505 308.266 529.759C312.97 532.013 316.204 535.296 317.968 539.608C319.83 543.822 320.761 549.408 320.761 556.366C320.761 564.696 319.634 571.262 317.38 576.064C315.224 580.866 311.255 584.443 305.473 586.795C299.691 589.049 291.41 590.176 280.63 590.176C275.73 590.176 270.242 589.882 264.166 589.294C258.188 588.804 253.043 588.118 248.731 587.236V570.772ZM475.866 590.176C463.126 590.176 454.061 588.804 448.671 586.06C443.281 583.316 439.851 578.612 438.381 571.948C436.911 565.284 436.176 554.112 436.176 538.432C436.176 522.752 436.911 511.58 438.381 504.916C439.851 498.252 443.281 493.548 448.671 490.804C454.061 488.06 463.126 486.688 475.866 486.688C488.606 486.688 497.671 488.06 503.061 490.804C508.451 493.548 511.881 498.252 513.351 504.916C514.821 511.58 515.556 522.752 515.556 538.432C515.556 554.112 514.821 565.284 513.351 571.948C511.881 578.612 508.451 583.316 503.061 586.06C497.671 588.804 488.606 590.176 475.866 590.176ZM475.866 572.536C482.53 572.536 486.989 571.997 489.243 570.919C491.595 569.743 493.065 567.048 493.653 562.834C494.339 558.62 494.682 550.486 494.682 538.432C494.682 526.378 494.339 518.244 493.653 514.03C493.065 509.816 491.595 507.17 489.243 506.092C486.989 504.916 482.53 504.328 475.866 504.328C469.202 504.328 464.694 504.916 462.342 506.092C460.088 507.17 458.618 509.816 457.932 514.03C457.344 518.244 457.05 526.378 457.05 538.432C457.05 550.486 457.344 558.62 457.932 562.834C458.618 567.048 460.088 569.743 462.342 570.919C464.694 571.997 469.202 572.536 475.866 572.536Z" fill="#5E20E4"/>
<path d="M378.248 590.176C365.508 590.176 356.443 588.804 351.053 586.06C345.663 583.316 342.233 578.612 340.763 571.948C339.293 565.284 338.558 554.112 338.558 538.432C338.558 522.752 339.293 511.58 340.763 504.916C342.233 498.252 345.663 493.548 351.053 490.804C356.443 488.06 365.508 486.688 378.248 486.688C390.988 486.688 400.053 488.06 405.443 490.804C410.833 493.548 414.263 498.252 415.733 504.916C417.203 511.58 417.938 522.752 417.938 538.432C417.938 554.112 417.203 565.284 415.733 571.948C414.263 578.612 410.833 583.316 405.443 586.06C400.053 588.804 390.988 590.176 378.248 590.176ZM378.248 572.536C384.912 572.536 389.371 571.997 391.625 570.919C393.977 569.743 395.447 567.048 396.035 562.834C396.721 558.62 397.064 550.486 397.064 538.432C397.064 526.378 396.721 518.244 396.035 514.03C395.447 509.816 393.977 507.17 391.625 506.092C389.371 504.916 384.912 504.328 378.248 504.328C371.584 504.328 367.076 504.916 364.724 506.092C362.47 507.17 361 509.816 360.314 514.03C359.726 518.244 359.432 526.378 359.432 538.432C359.432 550.486 359.726 558.62 360.314 562.834C361 567.048 362.47 569.743 364.724 570.919C367.076 571.997 371.584 572.536 378.248 572.536Z" fill="black"/>
</svg>
