<svg width="510" height="456" viewBox="0 0 510 456" fill="none" xmlns="http://www.w3.org/2000/svg">
<path d="M510 168.85H295.628V176.481H510V168.85Z" fill="#E6E6E6"/>
<path d="M367.657 105.027H313.35V170.931H367.657V105.027Z" fill="#E6E6E6"/>
<path d="M356.796 118.208H324.211V157.751H356.796V118.208Z" fill="#CCCCCC"/>
<path d="M448.833 105.027H435.113V170.931H448.833V105.027Z" fill="#E6E6E6"/>
<path d="M448.833 115.433H435.113V123.064H448.833V115.433Z" fill="#CCCCCC"/>
<path d="M448.833 148.732H435.113V156.363H448.833V148.732Z" fill="#CCCCCC"/>
<path d="M427.681 105.027H413.961V170.931H427.681V105.027Z" fill="#E6E6E6"/>
<path d="M427.681 115.433H413.961V123.064H427.681V115.433Z" fill="#CCCCCC"/>
<path d="M427.681 148.732H413.961V156.363H427.681V148.732Z" fill="#CCCCCC"/>
<path d="M460.654 104.754L448.358 112.141L472.454 171.204L484.75 163.817L460.654 104.754Z" fill="#E6E6E6"/>
<path d="M464.458 114.08L452.163 121.467L454.953 128.306L467.248 120.919L464.458 114.08Z" fill="#CCCCCC"/>
<path d="M476.633 143.922L464.338 151.309L467.128 158.148L479.423 150.761L476.633 143.922Z" fill="#CCCCCC"/>
<path d="M333.643 131.481L340.553 146.003L347.462 160.525H333.643H319.825L326.734 146.003L333.643 131.481Z" fill="#E6E6E6"/>
<path d="M345.648 134.256L352.557 148.778L359.467 163.3H345.648H331.83L338.739 148.778L345.648 134.256Z" fill="#E6E6E6"/>
<path d="M350.507 130.001C352.717 130.001 354.509 127.827 354.509 125.145C354.509 122.463 352.717 120.289 350.507 120.289C348.297 120.289 346.506 122.463 346.506 125.145C346.506 127.827 348.297 130.001 350.507 130.001Z" fill="#E6E6E6"/>
<path d="M295.628 71.7273L510 71.7273V64.0962L295.628 64.0962V71.7273Z" fill="#E6E6E6"/>
<path d="M437.971 66.1774L492.279 66.1774V0.272522L437.971 0.272522V66.1774Z" fill="#E6E6E6"/>
<path d="M448.833 52.9964L481.417 52.9964V13.4535L448.833 13.4535V52.9964Z" fill="#CCCCCC"/>
<path d="M356.796 66.1774H370.515V0.272522H356.796V66.1774Z" fill="#E6E6E6"/>
<path d="M356.796 18.3096L370.515 18.3096V10.6786L356.796 10.6786V18.3096Z" fill="#CCCCCC"/>
<path d="M356.796 51.609H370.515V43.9779H356.796V51.609Z" fill="#CCCCCC"/>
<path d="M377.947 66.1774H391.667V0.272522H377.947V66.1774Z" fill="#E6E6E6"/>
<path d="M377.947 18.3096L391.667 18.3096V10.6786L377.947 10.6786V18.3096Z" fill="#CCCCCC"/>
<path d="M377.947 51.609H391.667V43.9779H377.947V51.609Z" fill="#CCCCCC"/>
<path d="M320.879 59.0627L333.174 66.45L357.27 7.38733L344.974 3.92201e-05L320.879 59.0627Z" fill="#E6E6E6"/>
<path d="M338.38 16.1645L350.675 23.5518L353.465 16.713L341.17 9.3257L338.38 16.1645Z" fill="#CCCCCC"/>
<path d="M326.205 46.0067L338.5 53.394L341.291 46.5552L328.995 39.1679L326.205 46.0067Z" fill="#CCCCCC"/>
<path d="M471.985 26.7265L465.076 41.2488L458.167 55.7711H471.985H485.803L478.894 41.2488L471.985 26.7265Z" fill="#E6E6E6"/>
<path d="M459.98 29.5014L453.071 44.0237L446.162 58.546H459.98H473.798L466.889 44.0237L459.98 29.5014Z" fill="#E6E6E6"/>
<path d="M455.121 25.247C457.331 25.247 459.122 23.0728 459.122 20.3909C459.122 17.7089 457.331 15.5347 455.121 15.5347C452.911 15.5347 451.119 17.7089 451.119 20.3909C451.119 23.0728 452.911 25.247 455.121 25.247Z" fill="#E6E6E6"/>
<path d="M295.628 281.235L510 281.235V273.604L295.628 273.604V281.235Z" fill="#E6E6E6"/>
<path d="M437.971 275.686H492.279V209.781H437.971V275.686Z" fill="#E6E6E6"/>
<path d="M448.833 262.505H481.417V222.962H448.833V262.505Z" fill="#CCCCCC"/>
<path d="M356.796 275.686H370.515V209.781H356.796V275.686Z" fill="#E6E6E6"/>
<path d="M356.796 227.818H370.515V220.187H356.796V227.818Z" fill="#CCCCCC"/>
<path d="M356.796 261.117H370.515V253.486H356.796V261.117Z" fill="#CCCCCC"/>
<path d="M377.947 275.686H391.667V209.781H377.947V275.686Z" fill="#E6E6E6"/>
<path d="M377.947 227.818H391.667V220.187H377.947V227.818Z" fill="#CCCCCC"/>
<path d="M377.947 261.117H391.667V253.486H377.947V261.117Z" fill="#CCCCCC"/>
<path d="M320.879 268.571L333.174 275.958L357.27 216.895L344.974 209.508L320.879 268.571Z" fill="#E6E6E6"/>
<path d="M338.38 225.673L350.675 233.06L353.465 226.221L341.17 218.834L338.38 225.673Z" fill="#CCCCCC"/>
<path d="M326.205 255.515L338.5 262.902L341.291 256.063L328.995 248.676L326.205 255.515Z" fill="#CCCCCC"/>
<path d="M471.985 236.234L465.076 250.757L458.167 265.28H471.985H485.803L478.894 250.757L471.985 236.234Z" fill="#E6E6E6"/>
<path d="M459.98 239.009L453.071 253.532L446.162 268.055H459.98H473.798L466.889 253.532L459.98 239.009Z" fill="#E6E6E6"/>
<path d="M455.121 234.755C457.331 234.755 459.122 232.581 459.122 229.899C459.122 227.217 457.331 225.043 455.121 225.043C452.911 225.043 451.119 227.217 451.119 229.899C451.119 232.581 452.911 234.755 455.121 234.755Z" fill="#E6E6E6"/>
<path d="M252.53 456C391.999 456 505.06 446.255 505.06 434.235C505.06 422.214 391.999 412.469 252.53 412.469C113.062 412.469 0 422.214 0 434.235C0 446.255 113.062 456 252.53 456Z" fill="#E6E6E6"/>
<path d="M449.819 446.423C408.642 437.529 363.614 439.008 316.38 446.423C337.908 424.367 356.489 402.312 334.96 380.256C376.954 390.77 382.836 389.705 429.55 380.256C418.715 402.312 438.984 424.367 449.819 446.423Z" fill="#877DFB"/>
<path opacity="0.2" d="M449.819 446.423C408.642 437.529 363.614 439.008 316.38 446.423C337.908 424.367 356.489 402.312 334.96 380.256C376.954 390.77 382.836 389.705 429.55 380.256C418.715 402.312 438.984 424.367 449.819 446.423Z" fill="black"/>
<path d="M439.776 437.014C404.797 429.914 366.547 431.094 326.424 437.014C344.711 419.408 360.495 401.803 342.207 384.198C377.879 392.59 382.876 391.74 422.558 384.198C413.354 401.803 430.572 419.408 439.776 437.014Z" fill="#877DFB"/>
<path d="M426.453 408.647C436.746 408.647 445.09 398.521 445.09 386.03C445.09 373.539 436.746 363.412 426.453 363.412C416.16 363.412 407.815 373.539 407.815 386.03C407.815 398.521 416.16 408.647 426.453 408.647Z" fill="#2F2E41"/>
<path d="M341.848 359.796L354.762 362.409L361.219 385.044L342.566 398.975L321.043 359.796H341.131H341.848Z" fill="#A0616A"/>
<path d="M378.437 394.621C395.078 394.621 408.568 378.25 408.568 358.055C408.568 337.861 395.078 321.489 378.437 321.489C361.795 321.489 348.305 337.861 348.305 358.055C348.305 378.25 361.795 394.621 378.437 394.621Z" fill="#A0616A"/>
<path d="M211.996 224.851C211.996 224.851 138.82 234.427 125.906 232.686C112.993 230.945 107.254 229.204 107.254 229.204C107.254 229.204 98.6447 243.134 102.949 249.228C105.36 252.74 108.277 255.69 111.558 257.934C111.558 257.934 119.45 255.322 125.189 257.934C130.928 260.546 189.039 271.864 199.083 261.417C209.127 250.969 211.996 224.851 211.996 224.851Z" fill="#2F2E41"/>
<path d="M217.018 418.999C217.018 418.999 168.951 402.457 160.342 329.325V322.36C160.342 322.36 150.832 342.608 147.429 346.737C143.483 351.526 129.493 394.621 130.211 398.974C130.928 403.328 130.211 405.069 130.211 405.069L109.406 402.457V394.621C109.406 394.621 120.526 354.138 121.243 344.561C121.961 334.984 148.864 268.382 148.864 268.382C148.864 268.382 158.907 243.134 176.125 268.382C193.343 293.629 194.778 311.042 194.778 311.042L217.018 363.279L217.018 418.999Z" fill="#2F2E41"/>
<path d="M109.406 226.592L86.4485 217.015C86.4485 217.015 64.9261 197.861 69.948 217.015C74.9699 236.169 97.9272 277.958 104.384 273.605C110.841 269.252 118.606 258.447 116.875 256.885C115.145 255.322 103.666 244.004 109.406 226.592Z" fill="#2F2E41"/>
<path d="M112.181 389.481L93.6486 400.465C93.6486 400.465 71.2376 404.649 83.736 412.494C96.2345 420.339 130.713 428.708 132.437 421.385C134.161 414.063 133.477 401.911 131.664 402.234C129.851 402.557 117.353 404.126 112.181 389.481Z" fill="#2F2E41"/>
<path d="M207.692 361.538C207.692 361.538 198.365 410.292 214.148 420.74C229.932 431.187 340.414 432.929 349.023 413.775C357.632 394.621 353.327 394.621 353.327 394.621L330.37 363.279L349.023 361.538C349.023 361.538 349.023 354.573 342.566 353.702C336.109 352.832 316.021 344.125 298.803 350.22C281.585 356.314 271.542 338.031 271.542 338.031L207.692 361.538Z" fill="#575A89"/>
<path d="M195.496 209.179L183.299 290.147L267.237 277.959L282.303 204.826L195.496 209.179Z" fill="#3F3D56"/>
<path d="M198.007 212.227L187.963 284.488L264.368 273.606L279.074 207.874L198.007 212.227Z" fill="white"/>
<path d="M186.169 291.018L183.299 290.147L181.865 293.629L204.822 371.115L206.981 370.113L207.691 365.021L186.169 291.018Z" fill="#B3B3B3"/>
<path d="M183.299 289.276L206.257 370.244L293.064 354.573L267.237 277.959L183.299 289.276Z" fill="#D0CDE1"/>
<path d="M194.778 286.665V291.018L258.628 282.312L257.911 277.959L194.778 286.665Z" fill="#3F3D56"/>
<path d="M196.213 295.371L206.257 329.325L271.542 319.748L260.063 287.535L196.213 295.371Z" fill="#3F3D56"/>
<path d="M277.998 343.255L275.846 336.29C275.846 336.29 259.346 301.465 250.737 308.43C242.128 315.395 268.672 349.349 268.672 349.349H277.281L277.998 343.255Z" fill="#A0616A"/>
<path d="M223.475 348.478L221.323 338.031C221.323 338.031 215.583 305.818 225.627 307.559C235.671 309.301 238.541 339.772 238.541 339.772L237.823 346.737L223.475 348.478Z" fill="#A0616A"/>
<path d="M240.693 344.125C240.693 344.125 222.04 340.643 221.323 345.867C220.605 351.09 217.018 429.446 234.954 432.058C252.889 434.67 341.848 445.988 332.522 418.999C323.196 392.01 308.847 395.492 308.847 395.492L247.867 403.328L240.693 344.125Z" fill="#575A89"/>
<path d="M297.01 354.138L277.999 338.031L265.444 349.785L281.227 370.679L297.01 354.138Z" fill="#575A89"/>
<path opacity="0.2" d="M246.074 369.809L248.943 402.893L298.445 399.41L255.4 398.539L246.074 369.809Z" fill="black"/>
<path d="M393.31 408.23C413.121 408.23 429.181 388.741 429.181 364.699C429.181 340.658 413.121 321.169 393.31 321.169C373.499 321.169 357.44 340.658 357.44 364.699C357.44 388.741 373.499 408.23 393.31 408.23Z" fill="#2F2E41"/>
<path d="M208.768 237.475L253.248 235.596L257.552 215.709L211.638 217.391L208.768 237.475Z" fill="#877DFB"/>
<path d="M197.29 248.793L264.726 246.181L265.443 242.698L198.007 245.58L197.29 248.793Z" fill="#E6E6E6"/>
<path d="M195.854 257.499L263.292 254.887L264.009 251.404L196.572 254.286L195.854 257.499Z" fill="#E6E6E6"/>
<path d="M195.137 264.463L262.574 261.852L263.292 258.369L195.854 261.25L195.137 264.463Z" fill="#E6E6E6"/>
</svg>
