<svg width="336" height="287" viewBox="0 0 336 287" fill="none" xmlns="http://www.w3.org/2000/svg">
<g clip-path="url(#clip0)">
<path d="M118.469 93.0282C118.469 93.0282 85.5042 71.0695 149.091 44.5947C149.091 44.5947 161.773 70.2088 145.75 89.4051C139.307 97.1238 127.756 98.8762 118.961 93.3448L118.469 93.0282Z" fill="#6C63FF"/>
<path opacity="0.4" d="M118.469 93.0282C117.745 92.5466 86.5727 70.6204 149.091 44.5947C149.091 44.5947 161.773 70.2088 145.75 89.4051C139.307 97.1237 127.756 98.8762 118.961 93.3448L118.469 93.0282Z" fill="white"/>
<path d="M118.844 93.4734C118.844 93.4734 148.674 73.8518 149.095 44.599" stroke="#535461" stroke-miterlimit="10"/>
<path d="M300.318 97.0646C299.046 99.8829 289.976 105.653 289.976 105.653C289.976 105.653 288.274 95.0821 289.545 92.2637C290.176 90.9406 291.329 89.9271 292.758 89.4408C294.187 88.9544 295.777 89.034 297.187 89.6625C298.598 90.291 299.715 91.4183 300.301 92.8023C300.886 94.1862 300.892 95.7165 300.318 97.0646Z" fill="#6C63FF"/>
<path d="M289.766 143.138C286.539 143.223 276.805 137.835 276.805 137.835C276.805 137.835 285.795 131.953 289.024 131.865C290.557 131.853 292.055 132.421 293.197 133.446C294.339 134.472 295.033 135.874 295.13 137.35C295.227 138.826 294.72 140.26 293.717 141.342C292.714 142.424 291.295 143.069 289.766 143.138Z" fill="#6C63FF"/>
<path d="M275.602 160.987C272.455 161.596 261.974 157.836 261.974 157.836C261.974 157.836 269.748 150.54 272.896 149.928C274.396 149.665 275.965 149.983 277.265 150.814C278.565 151.645 279.492 152.923 279.847 154.373C280.202 155.822 279.956 157.328 279.162 158.565C278.368 159.802 277.09 160.672 275.602 160.987Z" fill="#6C63FF"/>
<path d="M260.61 134.86C262.699 137.304 273.209 140.947 273.209 140.947C273.209 140.947 271.657 130.363 269.569 127.911C268.556 126.774 267.135 126.047 265.61 125.886C264.084 125.726 262.576 126.143 261.406 127.051C260.236 127.958 259.498 129.283 259.349 130.742C259.201 132.201 259.653 133.679 260.61 134.86Z" fill="#6C63FF"/>
<path d="M247.786 157.548C249.423 160.288 259.218 165.564 259.218 165.564C259.218 165.564 259.531 154.931 257.892 152.198C257.09 150.912 255.807 149.963 254.32 149.553C252.832 149.144 251.258 149.306 249.935 150.007C248.612 150.707 247.646 151.889 247.244 153.299C246.842 154.709 247.037 156.234 247.786 157.548Z" fill="#6C63FF"/>
<path d="M289.766 143.138C286.539 143.223 276.805 137.835 276.805 137.835C276.805 137.835 285.795 131.953 289.024 131.865C290.557 131.853 292.055 132.421 293.197 133.446C294.339 134.472 295.033 135.874 295.13 137.35C295.227 138.826 294.72 140.26 293.717 141.342C292.714 142.424 291.295 143.069 289.766 143.138Z" fill="#FC6681"/>
<path d="M275.602 160.987C272.455 161.596 261.974 157.836 261.974 157.836C261.974 157.836 269.748 150.54 272.896 149.928C274.396 149.665 275.965 149.983 277.265 150.814C278.565 151.645 279.492 152.923 279.847 154.373C280.202 155.822 279.956 157.328 279.162 158.565C278.368 159.802 277.09 160.672 275.602 160.987Z" fill="#FC6681"/>
<path d="M260.61 134.86C262.699 137.304 273.209 140.947 273.209 140.947C273.209 140.947 271.657 130.363 269.569 127.911C268.556 126.774 267.135 126.047 265.61 125.886C264.084 125.726 262.576 126.143 261.406 127.051C260.236 127.958 259.498 129.283 259.349 130.742C259.201 132.201 259.653 133.679 260.61 134.86Z" fill="#FC6681"/>
<path d="M247.786 157.548C249.423 160.288 259.218 165.564 259.218 165.564C259.218 165.564 259.531 154.931 257.892 152.198C257.09 150.912 255.807 149.963 254.32 149.553C252.832 149.144 251.258 149.306 249.935 150.007C248.612 150.707 247.646 151.889 247.244 153.299C246.842 154.709 247.037 156.234 247.786 157.548Z" fill="#FC6681"/>
<path d="M239.454 153.986C239.454 153.986 273.71 143.642 283.646 135.505C293.581 127.369 304.529 121.31 304.529 121.31" stroke="#535461" stroke-width="2" stroke-miterlimit="10"/>
<path d="M291.838 143.279L281.541 136.392C281.541 136.392 279.711 148.718 291.838 143.279Z" fill="#6C63FF"/>
<path d="M279.205 124.924L282.022 136.71C282.022 136.71 269.014 132.547 279.205 124.924Z" fill="#6C63FF"/>
<path d="M299.71 136.384L290.1 130.578C290.1 130.578 292.855 142.482 299.71 136.384Z" fill="#6C63FF"/>
<path d="M298.514 124.926C298.514 124.926 307.128 128.812 307.828 130.01C308.528 131.208 304.353 134.942 301.313 132.854C298.272 130.765 298.514 124.926 298.514 124.926Z" fill="#6C63FF"/>
<path d="M297.967 116.1C297.967 116.1 299.084 123.714 298.482 124.838C297.879 125.961 292.033 125.169 292.731 120.278C293.43 115.387 297.967 116.1 297.967 116.1Z" fill="#6C63FF"/>
<path d="M308.109 124.782C309.003 123.722 308.808 122.133 307.674 121.234C306.54 120.334 304.895 120.465 304.001 121.525C303.107 122.585 303.301 124.174 304.436 125.074C305.57 125.973 307.215 125.843 308.109 124.782Z" fill="#FFD037"/>
<path d="M305.222 120.891C306.116 119.831 305.921 118.242 304.787 117.343C303.652 116.443 302.008 116.574 301.114 117.634C300.22 118.694 300.414 120.283 301.549 121.183C302.683 122.082 304.328 121.952 305.222 120.891Z" fill="#FFD037"/>
<path d="M166.054 61.8187C166.054 61.8187 167.278 65.7802 161.944 68.9027C156.61 72.0251 152.174 74.6982 152.232 77.9805C152.232 77.9805 160.906 71.6901 165.292 73.2971C169.677 74.9042 168.814 68.7736 166.054 61.8187Z" fill="#6C63FF"/>
<path opacity="0.1" d="M166.054 61.8188C166.148 62.1919 166.186 62.574 166.169 62.9538C168.526 69.3556 169.027 74.6566 164.916 73.1506C161.085 71.7453 153.981 76.3689 152.247 77.5588C152.233 77.6984 152.227 77.8389 152.23 77.9796C152.23 77.9796 160.904 71.6892 165.289 73.2962C169.674 74.9033 168.814 68.7737 166.054 61.8188Z" fill="black"/>
<path d="M169.026 67.4274C168.606 68.4839 168.141 69.2887 167.987 69.2274C167.833 69.1661 168.049 68.2597 168.468 67.2055C168.887 66.1514 168.847 66.7082 169.001 66.7695C169.156 66.8308 169.445 66.3732 169.026 67.4274Z" fill="#FFD037"/>
<path d="M170.066 69.3013C168.886 69.4182 167.916 69.3846 167.893 69.2277C167.871 69.0708 168.806 68.8487 169.984 68.7308C171.162 68.6129 170.631 68.8293 170.65 68.9955C170.669 69.1617 171.244 69.1834 170.066 69.3013Z" fill="#FFD037"/>
<path d="M153.291 56.7426C153.291 56.7426 149.68 58.781 151.413 64.7141C153.145 70.6472 154.533 75.6364 152.237 77.9825C152.237 77.9825 150.253 67.4529 145.961 65.609C141.67 63.7651 146.503 59.9001 153.291 56.7426Z" fill="#6C63FF"/>
<path opacity="0.1" d="M153.291 56.7426C152.966 56.9493 152.676 57.2004 152.428 57.4883C146.318 60.5229 142.312 64.0313 146.335 65.7601C150.084 67.3698 152.073 75.6097 152.516 77.6658C152.43 77.7768 152.338 77.8828 152.239 77.9834C152.239 77.9834 150.249 67.4485 145.956 65.6093C141.663 63.7701 146.503 59.9001 153.291 56.7426Z" fill="black"/>
<path d="M147.274 58.7757C146.853 59.8322 146.638 60.7363 146.792 60.7976C146.947 60.8589 147.412 60.0518 147.831 58.9976C148.251 57.9434 147.897 58.3757 147.743 58.3144C147.589 58.2531 147.693 57.7215 147.274 58.7757Z" fill="#FFD037"/>
<path d="M145.231 59.4234C146.008 60.3188 146.736 60.9607 146.86 60.8622C146.984 60.7637 146.457 59.9595 145.682 59.0651C144.907 58.1706 145.144 58.6926 145.016 58.8004C144.889 58.9081 144.456 58.5289 145.231 59.4234Z" fill="#FFD037"/>
<path d="M276.321 254.907L290.483 156.875L282.519 153.707C283.561 150.16 284.666 146.762 285.827 143.609C285.827 143.609 254.569 138.121 238.443 111.618C222.316 85.1159 187.752 93.1943 187.752 93.1943L187.675 93.0804L187.689 93.0456L187.671 93.0897C186.295 91.0792 167.07 63.9011 138.256 71.787C108.342 79.978 81.8438 62.4952 81.8438 62.4952C80.5062 65.6232 78.9619 68.8789 77.2632 72.2021L69.8737 69.2631L12.2993 150.271C12.2993 150.271 100.034 188.828 132.379 198.315C132.605 201.003 136.755 204.606 142.529 206.903C149.018 209.484 155.143 209.453 156.382 206.872C179.96 218.281 231.081 241.859 276.321 254.907Z" fill="url(#paint0_linear)"/>
<path d="M71.8986 70.8484L15.5267 150.172C15.5267 150.172 131.839 201.29 143.675 199.199C143.675 199.199 214.123 235.353 274.039 252.628L287.906 156.643L71.8986 70.8484Z" fill="#E2E2EC"/>
<path opacity="0.1" d="M77.9832 76.7832L25.4274 150.738C25.4274 150.738 133.868 198.397 144.902 196.447C144.902 196.447 210.583 230.154 266.444 246.259L279.366 156.767L77.9832 76.7832Z" fill="black"/>
<path d="M283.347 143.659C283.347 143.659 252.732 138.28 236.951 112.335C221.17 86.389 187.317 94.2936 187.317 94.2936C187.317 94.2936 168.144 65.299 138.854 73.3185C109.564 81.338 83.6177 64.22 83.6177 64.22C69.1349 98.04 30.3374 146.715 30.3374 146.715C30.3374 146.715 58.0995 166.984 105.394 167.099C152.689 167.214 148.877 190.95 148.877 190.95C148.877 190.95 162.409 171.077 196.863 203.479C231.316 235.88 265.416 240.213 265.416 240.213C265.416 240.213 270.638 178.184 283.347 143.659Z" fill="#F1F2FB"/>
<path opacity="0.1" d="M94.0527 169.878C94.0527 169.878 134.56 176.763 147.117 195.354C147.117 195.354 169.357 187.688 203.38 214.09" fill="black"/>
<path d="M143.038 205.623C149.506 208.196 155.607 208.122 156.667 205.458C157.726 202.795 153.342 198.55 146.874 195.978C140.407 193.406 134.305 193.479 133.246 196.143C132.186 198.806 136.57 203.051 143.038 205.623Z" fill="#E8EAF8"/>
<path opacity="0.1" d="M187.249 94.1453C187.249 94.1453 179.55 137.949 148.694 191.724L187.249 94.1453Z" fill="black"/>
<path opacity="0.1" d="M86.6618 80.1221C86.6618 80.1221 102.705 90.9941 119.469 93.1707C136.233 95.3473 169.226 93.7783 171.832 113.997" stroke="black" stroke-width="4" stroke-miterlimit="10"/>
<path opacity="0.1" d="M83.8267 87.2504C83.8267 87.2504 99.87 98.1224 116.634 100.299C133.398 102.476 166.274 115.793 168.997 121.125" stroke="black" stroke-width="4" stroke-miterlimit="10"/>
<path opacity="0.1" d="M78.8278 99.819C78.8278 99.819 94.8711 110.691 111.635 112.868C128.399 115.044 161.392 113.475 163.998 133.694" stroke="black" stroke-width="4" stroke-miterlimit="10"/>
<path opacity="0.1" d="M75.9889 106.957C75.9889 106.957 92.0322 117.829 108.796 120.005C125.56 122.182 158.436 135.5 161.159 140.831" stroke="black" stroke-width="4" stroke-miterlimit="10"/>
<path opacity="0.1" d="M270.213 153.126C270.213 153.126 251.085 150.009 237.405 140.078C223.726 130.146 200.823 106.345 185.043 119.251" stroke="black" stroke-width="4" stroke-miterlimit="10"/>
<path opacity="0.1" d="M267.378 160.254C267.378 160.254 248.25 157.138 234.57 147.206C220.89 137.274 187.848 124.374 182.207 126.38" stroke="black" stroke-width="4" stroke-miterlimit="10"/>
<path opacity="0.1" d="M262.379 172.823C262.379 172.823 243.251 169.706 229.571 159.774C215.892 149.843 192.989 126.042 177.209 138.948" stroke="black" stroke-width="4" stroke-miterlimit="10"/>
<path opacity="0.1" d="M259.54 179.961C259.54 179.961 240.412 176.844 226.732 166.912C213.053 156.98 180.01 144.08 174.37 146.086" stroke="black" stroke-width="4" stroke-miterlimit="10"/>
<path opacity="0.1" d="M246.295 121.844C247.312 122.614 249.602 120.583 250.953 121.12C252.384 121.69 252.651 124.945 254.074 124.844C255.151 123.151 256.373 121.552 257.728 120.061L248.209 117.168C247.983 118.834 247.178 120.471 246.295 121.844Z" fill="black"/>
</g>
<defs>
<linearGradient id="paint0_linear" x1="142.586" y1="206.923" x2="191.324" y2="84.385" gradientUnits="userSpaceOnUse">
<stop stop-color="#808080" stop-opacity="0.25"/>
<stop offset="0.54" stop-color="#808080" stop-opacity="0.12"/>
<stop offset="1" stop-color="#808080" stop-opacity="0.1"/>
</linearGradient>
<clipPath id="clip0">
<rect width="284" height="195" fill="white" transform="translate(72.0668) rotate(21.6893)"/>
</clipPath>
</defs>
</svg>
