<svg width="172" height="173" viewBox="0 0 172 173" fill="none" xmlns="http://www.w3.org/2000/svg">
<path opacity="0.3" d="M29.7704 55.1651C44.981 24.6982 79.9051 11.2798 107.776 25.1941C135.646 39.1084 145.909 75.0865 130.698 105.553C115.488 136.02 80.5637 149.439 52.6932 135.524C24.8227 121.61 14.5598 85.632 29.7704 55.1651Z" fill="#6C63FF"/>
<path d="M133.124 135.066L74.0181 151.443L42.4694 67.7821L99.5385 51.0003L133.124 135.066Z" fill="#6C63FF"/>
<path opacity="0.1" d="M133.124 135.066L74.0181 151.443L42.4694 67.7821L99.5385 51.0003L133.124 135.066Z" fill="black"/>
<path d="M74.3037 149.75C76.0471 149.605 77.7807 149.212 79.4568 148.581L127.586 130.465C127.586 130.465 135.246 119.606 131.092 114.474L77.3197 141.467L74.3037 149.75Z" fill="#F2F2F2"/>
<path d="M74.1201 151.799L29.1708 66.9543C29.1708 66.9543 28.4798 60.4913 32.7168 56.4885L89.8515 21.0793L137.976 113.016L78.5819 144.544L74.1201 151.799Z" fill="#5E20E4"/>
<path d="M124.02 113.678L87.7661 134.737L87.4077 133.979L123.662 112.921L124.02 113.678Z" fill="#3F3D56"/>
<path d="M79.8463 131.302L79.1152 131.764L42.7569 62.2204L43.488 61.7583L79.8463 131.302Z" fill="#3F3D56"/>
<path d="M82.9792 34.4661L43.9478 56.5729L43.5977 55.8104L82.6291 33.7036L82.9792 34.4661Z" fill="#3F3D56"/>
<path d="M126.005 107.244L125.266 107.689L90.537 37.1235L91.2768 36.6792L126.005 107.244Z" fill="#3F3D56"/>
<path d="M130.424 125.892L78.541 148.401L78.3764 147.906L130.259 125.396L130.424 125.892Z" fill="#3F3D56"/>
<path d="M131.757 122.524L78.8276 146.696L78.6535 146.204L131.582 122.032L131.757 122.524Z" fill="#3F3D56"/>
<path d="M132.369 119.665L79.3193 145.704L79.1317 145.218L132.182 119.18L132.369 119.665Z" fill="#3F3D56"/>
</svg>
