<svg width="274" height="269" viewBox="0 0 274 269" fill="none" xmlns="http://www.w3.org/2000/svg">
<g clip-path="url(#clip0)">
<path d="M158.974 219.182C203.053 198.365 237.63 179.041 236.203 176.02C234.777 172.999 197.887 187.426 153.808 208.242C109.729 229.059 75.1522 248.383 76.5788 251.404C78.0054 254.425 114.895 239.999 158.974 219.182Z" fill="#3F3D56"/>
<path d="M24.4897 77.6846L100.41 238.445L202.324 190.315L126.404 29.5546L24.4897 77.6846ZM99.5588 222.559C99.2118 222.723 98.8068 222.744 98.395 222.619C97.9831 222.494 97.5829 222.228 97.2449 221.857C96.9069 221.485 96.6463 221.023 96.4962 220.53C96.346 220.036 96.3129 219.534 96.4012 219.085C96.4894 218.637 96.695 218.263 96.992 218.01C97.2889 217.758 97.6638 217.638 98.0694 217.667C98.4749 217.696 98.8928 217.871 99.2702 218.171C99.6477 218.471 99.9677 218.882 100.19 219.353C100.488 219.983 100.589 220.676 100.47 221.277C100.352 221.878 100.024 222.34 99.5588 222.559ZM94.0556 210.907C93.7087 211.07 93.3037 211.091 92.8918 210.966C92.48 210.841 92.0797 210.576 91.7418 210.204C91.4038 209.832 91.1432 209.37 90.9931 208.877C90.8429 208.384 90.8098 207.881 90.8981 207.433C90.9863 206.984 91.1919 206.61 91.4889 206.358C91.7858 206.105 92.1607 205.986 92.5662 206.014C92.9718 206.043 93.3897 206.218 93.7671 206.518C94.1445 206.819 94.4645 207.23 94.6867 207.7C94.9845 208.331 95.0854 209.023 94.9671 209.624C94.8487 210.226 94.5209 210.687 94.0556 210.907ZM88.6648 199.492C88.3179 199.655 87.9129 199.676 87.501 199.551C87.0892 199.426 86.6889 199.161 86.3509 198.789C86.013 198.417 85.7524 197.955 85.6022 197.462C85.4521 196.969 85.419 196.466 85.5073 196.018C85.5955 195.569 85.8011 195.195 86.098 194.943C86.395 194.69 86.7699 194.571 87.1754 194.599C87.581 194.628 87.9989 194.803 88.3763 195.104C88.7537 195.404 89.0737 195.815 89.2959 196.285C89.5937 196.916 89.6946 197.608 89.5763 198.209C89.4579 198.811 89.1301 199.272 88.6648 199.492ZM83.1617 187.839C82.8148 188.003 82.4098 188.023 81.9979 187.898C81.586 187.773 81.1858 187.508 80.8478 187.136C80.5098 186.764 80.2493 186.303 80.0991 185.809C79.949 185.316 79.9159 184.813 80.0042 184.365C80.0924 183.917 80.298 183.542 80.5949 183.29C80.8919 183.038 81.2668 182.918 81.6723 182.947C82.0778 182.975 82.4957 183.151 82.8732 183.451C83.2506 183.751 83.5706 184.162 83.7928 184.632C84.0906 185.263 84.1915 185.955 84.0731 186.557C83.9548 187.158 83.6269 187.619 83.1617 187.839ZM77.6586 176.186C77.3117 176.35 76.9067 176.371 76.4948 176.246C76.0829 176.121 75.6827 175.855 75.3447 175.483C75.0067 175.112 74.7462 174.65 74.596 174.157C74.4458 173.663 74.4128 173.161 74.501 172.712C74.5893 172.264 74.7949 171.89 75.0918 171.637C75.3887 171.385 75.7637 171.265 76.1692 171.294C76.5747 171.323 76.9926 171.498 77.3701 171.798C77.7475 172.098 78.0675 172.509 78.2896 172.98C78.5875 173.61 78.6884 174.303 78.57 174.904C78.4517 175.505 78.1238 175.966 77.6586 176.186ZM72.2678 164.771C71.9209 164.935 71.5159 164.956 71.104 164.831C70.6921 164.706 70.2919 164.44 69.9539 164.069C69.6159 163.697 69.3554 163.235 69.2052 162.742C69.055 162.248 69.022 161.746 69.1102 161.297C69.1985 160.849 69.4041 160.475 69.701 160.222C69.9979 159.97 70.3729 159.85 70.7784 159.879C71.1839 159.908 71.6018 160.083 71.9793 160.383C72.3567 160.683 72.6767 161.094 72.8988 161.565C73.1967 162.195 73.2975 162.888 73.1792 163.489C73.0609 164.09 72.733 164.552 72.2678 164.771ZM66.7647 153.119C66.4178 153.282 66.0127 153.303 65.6009 153.178C65.189 153.053 64.7888 152.788 64.4508 152.416C64.1128 152.044 63.8523 151.582 63.7021 151.089C63.5519 150.596 63.5189 150.093 63.6071 149.645C63.6954 149.196 63.901 148.822 64.1979 148.57C64.4948 148.317 64.8698 148.198 65.2753 148.226C65.6808 148.255 66.0987 148.43 66.4761 148.73C66.8536 149.03 67.1736 149.442 67.3957 149.912C67.6936 150.543 67.7944 151.235 67.6761 151.836C67.5578 152.438 67.2299 152.899 66.7647 153.119ZM61.2616 141.466C60.9146 141.63 60.5096 141.65 60.0978 141.525C59.6859 141.4 59.2857 141.135 58.9477 140.763C58.6097 140.391 58.3491 139.929 58.199 139.436C58.0488 138.943 58.0157 138.44 58.104 137.992C58.1923 137.543 58.3978 137.169 58.6948 136.917C58.9917 136.664 59.3666 136.545 59.7722 136.574C60.1777 136.602 60.5956 136.778 60.973 137.078C61.3505 137.378 61.6705 137.789 61.8926 138.259C62.1905 138.89 62.2913 139.582 62.173 140.183C62.0546 140.785 61.7268 141.246 61.2616 141.466ZM55.8708 130.051C55.5238 130.215 55.1188 130.235 54.707 130.11C54.2951 129.985 53.8949 129.72 53.5569 129.348C53.2189 128.976 52.9583 128.515 52.8082 128.021C52.658 127.528 52.6249 127.025 52.7132 126.577C52.8014 126.128 53.007 125.754 53.304 125.502C53.6009 125.249 53.9758 125.13 54.3814 125.159C54.7869 125.187 55.2048 125.363 55.5822 125.663C55.9597 125.963 56.2797 126.374 56.5018 126.844C56.7997 127.475 56.9005 128.167 56.7822 128.769C56.6638 129.37 56.336 129.831 55.8708 130.051ZM50.3676 118.398C50.0207 118.562 49.6157 118.583 49.2038 118.458C48.792 118.332 48.3917 118.067 48.0538 117.695C47.7158 117.324 47.4552 116.862 47.3051 116.369C47.1549 115.875 47.1218 115.373 47.2101 114.924C47.2983 114.476 47.5039 114.102 47.8008 113.849C48.0978 113.597 48.4727 113.477 48.8782 113.506C49.2838 113.535 49.7017 113.71 50.0791 114.01C50.4565 114.31 50.7766 114.721 50.9987 115.192C51.2965 115.822 51.3974 116.514 51.2791 117.116C51.1607 117.717 50.8329 118.178 50.3676 118.398ZM44.8645 106.745C44.5176 106.909 44.1126 106.93 43.7007 106.805C43.2889 106.68 42.8886 106.415 42.5506 106.043C42.2127 105.671 41.9521 105.209 41.8019 104.716C41.6518 104.223 41.6187 103.72 41.707 103.271C41.7952 102.823 42.0008 102.449 42.2977 102.196C42.5947 101.944 42.9696 101.825 43.3751 101.853C43.7807 101.882 44.1986 102.057 44.576 102.357C44.9534 102.657 45.2734 103.069 45.4956 103.539C45.7934 104.17 45.8943 104.862 45.7759 105.463C45.6576 106.064 45.3298 106.526 44.8645 106.745ZM39.586 95.5683C39.2391 95.7321 38.8341 95.7528 38.4222 95.6277C38.0104 95.5026 37.6101 95.2374 37.2721 94.8656C36.9342 94.4937 36.6736 94.032 36.5234 93.5387C36.3733 93.0454 36.3402 92.5428 36.4285 92.0944C36.5167 91.6459 36.7223 91.2718 37.0192 91.0194C37.3162 90.7669 37.6911 90.6474 38.0966 90.6761C38.5022 90.7047 38.9201 90.8801 39.2975 91.1802C39.6749 91.4802 39.9949 91.8914 40.2171 92.3618C40.5149 92.9925 40.6158 93.6846 40.4974 94.286C40.3791 94.8873 40.0513 95.3486 39.586 95.5683Z" fill="#F2F2F2"/>
<path opacity="0.3" d="M132.17 41.7634L131.945 41.2878L42.0914 83.722L36.5503 71.9888L36.1995 72.1545L41.7406 83.8876L30.0308 89.4177L30.2554 89.8933L41.9652 84.3633L47.2058 95.46L35.496 100.99L35.7206 101.466L47.4304 95.9356L52.6709 107.032L40.9611 112.562L41.1857 113.038L52.8955 107.508L58.1359 118.604L46.4262 124.135L46.6508 124.61L58.3606 119.08L63.601 130.177L51.8912 135.707L52.1158 136.182L63.8256 130.652L69.0661 141.749L57.3564 147.279L57.581 147.755L69.2908 142.225L74.5312 153.321L62.8214 158.851L63.046 159.327L74.7558 153.797L79.9963 164.893L68.2866 170.423L68.5112 170.899L80.221 165.369L85.4614 176.466L73.7516 181.996L73.9762 182.471L85.686 176.941L90.9264 188.038L79.2167 193.568L79.4413 194.043L91.151 188.513L96.3916 199.61L84.6818 205.14L84.9064 205.616L96.6162 200.086L101.857 211.182L90.1469 216.712L90.3715 217.188L102.081 211.658L107.322 222.754L95.6119 228.284L95.8365 228.76L107.546 223.23L112.12 232.915L112.471 232.749L107.897 223.064L197.751 180.63L197.526 180.154L107.673 222.589L102.432 211.492L192.286 169.058L192.061 168.582L102.207 211.016L96.967 199.92L186.821 157.486L186.596 157.01L96.7424 199.444L91.5019 188.348L181.355 145.913L181.131 145.438L91.2773 187.872L86.0368 176.775L175.89 134.341L175.666 133.866L85.8122 176.3L80.5718 165.203L170.425 122.769L170.201 122.294L80.3472 164.728L75.1066 153.631L164.96 111.197L164.736 110.721L74.882 153.155L69.6416 142.059L159.495 99.6247L159.27 99.1491L69.417 141.583L64.1764 130.487L154.03 88.0523L153.805 87.5767L63.9518 130.011L58.7114 118.914L148.565 76.4802L148.34 76.0046L58.4868 118.439L53.2463 107.342L143.1 64.9081L142.875 64.4325L53.0217 106.867L47.7812 95.7699L137.635 53.3357L137.41 52.8601L47.5566 95.2943L42.316 84.1976L132.17 41.7634Z" fill="#3F3D56"/>
<path d="M66.7051 108.117C66.1709 109.73 65.4892 111.236 64.6701 112.611C64.1407 113.499 63.4992 114.371 62.5447 114.554C61.5902 114.737 60.2692 113.918 60 112.675C59.9356 112.306 59.951 111.945 60.0447 111.629C60.1383 111.312 60.3068 111.052 60.5333 110.874C60.9939 110.526 61.5649 110.382 62.1736 110.459C63.2652 110.552 64.3863 111.074 65.3693 111.948C65.8722 112.397 66.3626 112.953 66.9294 113.131C67.3633 113.225 67.7857 113.197 68.1622 113.047C69.0912 112.787 70.0421 112.514 70.7546 111.841C71.4671 111.167 71.9012 109.995 71.5784 108.755" stroke="#3F3D56" stroke-width="2" stroke-miterlimit="10"/>
<path d="M70.6443 99.6209C72.3605 103.082 73.9739 106.592 75.4846 110.15L77.0916 108.819C77.6839 108.328 78.3261 107.702 78.2372 106.725C78.1543 105.814 77.4211 104.962 76.6728 104.601C75.9244 104.241 75.163 104.259 74.4296 104.284L73.2283 104.325" stroke="#3F3D56" stroke-width="2" stroke-miterlimit="10"/>
<path d="M82.3164 98.8182C81.5897 99.008 80.852 99.2096 80.2648 99.684C79.6777 100.158 79.2544 100.957 79.3331 101.916C79.4784 103.686 81.2183 105.129 82.6918 105.409C83.9159 105.637 85.0693 105.355 85.9594 104.61" stroke="#3F3D56" stroke-width="2" stroke-miterlimit="10"/>
<path d="M61.9901 93.7865C61.322 96.719 59.6434 97.5117 56.9543 96.1647C55.8549 95.6003 54.8116 94.7902 53.8884 93.784C52.9652 92.7779 52.1815 91.5969 51.5854 90.3136L41.7677 69.5249L51.0645 65.1344L60.8822 85.9231C61.4946 87.1987 61.9088 88.5542 62.0993 89.9064C62.2898 91.2586 62.2526 92.5789 61.9901 93.7865Z" fill="#6C63FF"/>
<path d="M148.842 143.072C158.032 162.532 152.709 173.356 142.182 178.327C141.938 178.442 141.692 178.553 141.447 178.66C140.953 178.876 140.454 179.074 139.955 179.254C130.025 182.83 119.272 179.171 110.725 161.073C101.882 142.348 108.372 110.382 108.873 108.001C108.873 108.001 108.873 108 108.873 108C108.873 108 108.873 107.999 108.873 107.999C108.873 107.999 108.873 107.998 108.874 107.998C108.874 107.998 108.874 107.998 108.874 107.998C108.892 107.905 108.903 107.859 108.903 107.859C108.903 107.859 139.653 123.615 148.842 143.072Z" fill="#6C63FF"/>
<path d="M140.082 175.678L140.817 159.182L140.749 177.137L141.447 178.66C140.953 178.876 140.454 179.074 139.955 179.254L131.513 159.432L131.435 159.282L131.435 159.25L130.638 157.376L116.695 145.995L130.008 155.986L130.209 156.368L123.83 141.392L110.664 129.045L122.685 138.777L108.874 108.001L108.826 107.895L108.874 107.998L120.133 132.092L121.601 119.738L121.086 134.175L127.148 147.419L126.755 132.146L128.041 149.368L131.411 156.732L131.194 135.317L132.585 159.301L140.082 175.678Z" fill="#3F3D56"/>
</g>
<defs>
<clipPath id="clip0">
<rect width="209" height="198" fill="white" transform="translate(0 89.2501) rotate(-25.2795)"/>
</clipPath>
</defs>
</svg>
