<svg width="512" height="470" viewBox="0 0 512 470" fill="none" xmlns="http://www.w3.org/2000/svg">
<path d="M485.341 416.426H472.161C463.017 394.7 463.013 373.501 472.151 351.884H485.341C500.041 351.884 512 339.925 512 325.224C512 310.524 500.041 298.564 485.341 298.564H432.303C439.054 290.852 443.158 280.769 443.158 269.738V186.208C443.158 162.042 423.499 142.382 399.334 142.382H377.767C379.597 138.734 380.633 134.621 380.633 130.269C380.633 115.302 368.471 103.125 353.521 103.125H346.102C339.481 86.7579 339.477 70.7719 346.091 54.5099H353.521C368.471 54.5099 380.633 42.3329 380.633 27.3659C380.633 12.4159 368.471 0.25293 353.521 0.25293H100.518C57.19 0.25293 21.94 35.4899 21.94 78.8019C21.94 99.7479 30.126 119.469 44.988 134.332C47.943 137.287 51.097 139.966 54.407 142.381H48.599C33.899 142.381 21.94 154.34 21.94 169.041C21.94 183.742 33.899 195.701 48.599 195.701H61.789C70.927 217.316 70.924 238.516 61.779 260.242H48.599C33.899 260.242 21.94 272.201 21.94 286.902C21.94 292.526 23.695 297.745 26.679 302.05C11.011 308.735 0 324.299 0 342.39V425.921C0 450.087 19.646 469.746 43.794 469.746H485.34C500.04 469.746 511.999 457.787 511.999 443.086C512 428.386 500.041 416.426 485.341 416.426V416.426ZM485.341 313.564C491.77 313.564 497 318.795 497 325.224C497 331.653 491.77 336.884 485.341 336.884H349.984C345.841 336.884 342.484 340.242 342.484 344.384C342.484 348.526 345.841 351.884 349.984 351.884H456.062C453.131 360.116 451.339 368.38 450.662 376.655C450.662 376.655 447.666 391.5 456.078 416.426H55.49C54.314 416.426 53.32 415.432 53.32 414.255V354.055C53.32 352.879 54.314 351.885 55.49 351.885H129.791L129.796 376.517C129.323 383.891 132.924 386.797 135.135 387.877C137.376 388.973 141.98 390.034 147.645 384.856C147.684 384.82 147.723 384.784 147.761 384.748L168.725 364.753L189.689 384.748C189.727 384.785 189.766 384.821 189.805 384.856C193.121 387.887 196.073 388.782 198.404 388.782C200.069 388.782 201.417 388.325 202.353 387.864C204.567 386.774 208.163 383.854 207.654 376.497L207.664 351.885H313.056C317.199 351.885 320.556 348.527 320.556 344.385C320.556 340.243 317.199 336.885 313.056 336.885H207.669L207.679 313.565H485.341V313.564ZM83.282 220.474C82.606 212.199 80.779 203.936 77.85 195.703H387.67C388.847 195.703 389.841 196.697 389.841 197.873V258.073C389.841 259.249 388.847 260.243 387.67 260.243H207.701L207.711 235.472H260.2C264.343 235.472 267.7 232.114 267.7 227.972C267.7 223.83 264.343 220.472 260.2 220.472H83.282V220.474ZM129.772 260.244H77.833C80.76 252 82.59 243.737 83.274 235.473H129.767L129.772 260.244ZM192.711 235.474L192.657 366.85L173.9 348.96C171.003 346.196 166.445 346.196 163.547 348.96L144.793 366.848L144.766 235.473H192.711V235.474ZM36.94 78.8029C36.94 43.7619 65.461 15.2539 100.518 15.2539H353.521C360.2 15.2539 365.633 20.6879 365.633 27.3669C365.633 34.0629 360.199 39.5109 353.521 39.5109H215.263C211.121 39.5109 207.763 42.8689 207.763 47.0109C207.763 51.1529 211.121 54.5109 215.263 54.5109H330.11C324.816 70.6449 324.823 86.9219 330.13 103.126H100.518C94.068 103.126 87.961 100.585 83.351 95.9979C78.737 91.3599 76.196 85.2539 76.196 78.8029C76.196 65.4079 87.107 54.5109 100.518 54.5109H178.335C182.477 54.5109 185.835 51.1529 185.835 47.0109C185.835 42.8689 182.477 39.5109 178.335 39.5109H100.518C78.836 39.5109 61.196 57.1369 61.196 78.8029C61.196 89.2459 65.288 99.1099 72.744 106.604C80.212 114.034 90.075 118.126 100.518 118.126H353.521C360.2 118.126 365.633 123.574 365.633 130.27C365.633 136.949 360.199 142.383 353.521 142.383H100.518C83.579 142.383 67.625 135.758 55.595 123.727C43.565 111.697 36.94 95.7429 36.94 78.8029V78.8029ZM48.599 180.703C42.17 180.703 36.94 175.473 36.94 169.043C36.94 162.614 42.17 157.383 48.599 157.383H399.334C415.228 157.383 428.158 170.314 428.158 186.209V269.739C428.158 285.634 415.227 298.565 399.334 298.565H207.685L207.695 275.245H387.669C397.137 275.245 404.84 267.542 404.84 258.075V197.875C404.84 188.407 397.137 180.705 387.669 180.705H48.599V180.703ZM48.599 275.244H129.775L129.78 298.564H48.6C42.171 298.564 36.941 293.333 36.941 286.904C36.94 280.475 42.17 275.244 48.599 275.244V275.244ZM485.341 454.746H43.794C27.917 454.746 15 441.815 15 425.921V342.39C15 326.495 27.917 313.564 43.794 313.564H129.782L129.787 336.884H55.49C46.022 336.884 38.32 344.587 38.32 354.054V414.254C38.32 423.722 46.023 431.425 55.49 431.425H485.341C491.77 431.425 497 436.656 497 443.085C497 449.514 491.77 454.746 485.341 454.746Z" fill="#5E20E4"/>
</svg>
