<svg width="313" height="312" viewBox="0 0 313 312" fill="none" xmlns="http://www.w3.org/2000/svg">
<g clip-path="url(#clip0)">
<path d="M114.871 222.972C114.521 222.753 114.244 222.429 114.067 222.033L80.4915 147.056C80.2192 146.445 80.2021 145.705 80.4439 144.996C80.6858 144.288 81.1669 143.669 81.7817 143.276L187.136 76.1084C187.44 75.914 187.769 75.7811 188.102 75.7172C188.435 75.6533 188.767 75.6596 189.078 75.7359C189.389 75.8121 189.673 75.9568 189.915 76.1616C190.157 76.3664 190.35 76.6273 190.486 76.9295L224.061 151.906C224.334 152.517 224.351 153.257 224.109 153.966C223.867 154.674 223.386 155.293 222.772 155.686L117.418 222.853C117.113 223.049 116.785 223.182 116.451 223.246C116.118 223.31 115.786 223.303 115.475 223.226C115.26 223.173 115.057 223.088 114.871 222.972Z" fill="#E6E6E6"/>
<path d="M183.18 78.8471L182.642 79.1898L218.127 158.43L218.665 158.087L183.18 78.8471Z" fill="white"/>
<path d="M173.504 85.0156L172.967 85.3583L208.452 164.598L208.989 164.256L173.504 85.0156Z" fill="white"/>
<path d="M163.829 91.184L163.291 91.5267L198.776 170.767L199.314 170.424L163.829 91.184Z" fill="white"/>
<path d="M154.154 97.3525L153.616 97.6952L189.101 176.935L189.639 176.593L154.154 97.3525Z" fill="white"/>
<path d="M144.478 103.521L143.941 103.864L179.426 183.104L179.963 182.761L144.478 103.521Z" fill="white"/>
<path d="M134.803 109.689L134.265 110.032L169.75 189.272L170.288 188.93L134.803 109.689Z" fill="white"/>
<path d="M125.127 115.858L124.59 116.201L160.075 195.441L160.612 195.098L125.127 115.858Z" fill="white"/>
<path d="M115.452 122.026L114.915 122.369L150.4 201.609L150.937 201.267L115.452 122.026Z" fill="white"/>
<path d="M105.777 128.195L105.239 128.537L140.724 207.778L141.262 207.435L105.777 128.195Z" fill="white"/>
<path d="M96.1015 134.363L95.564 134.706L131.049 213.946L131.586 213.603L96.1015 134.363Z" fill="white"/>
<path d="M86.4261 140.532L85.8886 140.875L121.374 220.115L121.911 219.772L86.4261 140.532Z" fill="white"/>
<path d="M118.585 205.061C118.235 204.841 117.958 204.517 117.781 204.121L84.2055 129.144C83.9331 128.534 83.916 127.793 84.1579 127.084C84.3997 126.376 84.8808 125.757 85.4956 125.364L190.849 58.1966C191.154 58.0023 191.482 57.8694 191.816 57.8055C192.149 57.7415 192.481 57.7479 192.792 57.8241C193.103 57.9004 193.387 58.0451 193.629 58.2499C193.87 58.4547 194.064 58.7156 194.2 59.0177L227.775 133.995C228.048 134.605 228.065 135.345 227.823 136.054C227.581 136.763 227.1 137.381 226.486 137.774L121.132 204.942C120.827 205.137 120.499 205.27 120.165 205.334C119.832 205.398 119.5 205.391 119.189 205.314C118.974 205.262 118.771 205.176 118.585 205.061Z" fill="#F2F2F2"/>
<path d="M186.893 60.9354L186.356 61.2781L221.841 140.518L222.378 140.176L186.893 60.9354Z" fill="white"/>
<path d="M177.218 67.104L176.681 67.4467L212.166 146.687L212.703 146.344L177.218 67.104Z" fill="white"/>
<path d="M167.543 73.2723L167.005 73.615L202.49 152.855L203.028 152.512L167.543 73.2723Z" fill="white"/>
<path d="M157.867 79.4409L157.33 79.7836L192.815 159.024L193.352 158.681L157.867 79.4409Z" fill="white"/>
<path d="M148.192 85.6093L147.655 85.952L183.14 165.192L183.677 164.85L148.192 85.6093Z" fill="white"/>
<path d="M138.517 91.7778L137.979 92.1205L173.464 171.361L174.002 171.018L138.517 91.7778Z" fill="white"/>
<path d="M128.841 97.9463L128.304 98.2889L163.789 177.529L164.326 177.186L128.841 97.9463Z" fill="white"/>
<path d="M119.166 104.115L118.629 104.457L154.114 183.698L154.651 183.355L119.166 104.115Z" fill="white"/>
<path d="M109.491 110.283L108.953 110.626L144.438 189.866L144.976 189.523L109.491 110.283Z" fill="white"/>
<path d="M99.8154 116.452L99.2779 116.794L134.763 196.034L135.3 195.692L99.8154 116.452Z" fill="white"/>
<path d="M90.1401 122.62L89.6025 122.963L125.088 202.203L125.625 201.86L90.1401 122.62Z" fill="white"/>
<path d="M200.271 61.5734L107.83 3.78308L12.4463 156.358L104.887 214.148C105.219 214.356 105.636 214.398 106.045 214.266C106.454 214.135 106.822 213.839 107.068 213.445L200.594 63.8422C200.84 63.448 200.945 62.9876 200.884 62.5621C200.823 62.1366 200.603 61.7809 200.271 61.5734V61.5734ZM20.2954 155.409C19.8414 155.125 19.4975 154.688 19.3072 154.152C19.1169 153.617 19.0887 153.007 19.2262 152.401C19.3637 151.795 19.6607 151.218 20.0797 150.745C20.4986 150.272 21.0207 149.923 21.58 149.743C22.1392 149.563 22.7104 149.559 23.2214 149.732C23.7324 149.905 24.1602 150.248 24.4507 150.716C24.7412 151.185 24.8814 151.758 24.8535 152.364C24.8256 152.969 24.6309 153.58 24.294 154.119C24.0703 154.477 23.7895 154.794 23.4675 155.053C23.1455 155.311 22.7886 155.506 22.4173 155.625C22.046 155.745 21.6675 155.788 21.3034 155.75C20.9393 155.713 20.5968 155.597 20.2954 155.409V155.409ZM28.9666 141.538C28.5126 141.254 28.1687 140.817 27.9784 140.282C27.7881 139.746 27.7599 139.137 27.8974 138.531C28.0349 137.924 28.3319 137.348 28.7509 136.875C29.1699 136.402 29.692 136.053 30.2512 135.872C30.8104 135.692 31.3816 135.688 31.8926 135.862C32.4036 136.035 32.8314 136.377 33.1219 136.846C33.4124 137.314 33.5526 137.887 33.5247 138.493C33.4968 139.099 33.3021 139.71 32.9653 140.249C32.7416 140.606 32.4607 140.924 32.1387 141.182C31.8167 141.441 31.4599 141.635 31.0886 141.755C30.7173 141.875 30.3387 141.917 29.9747 141.88C29.6106 141.843 29.268 141.727 28.9666 141.538V141.538ZM37.6378 127.668C37.1839 127.384 36.84 126.947 36.6497 126.411C36.4593 125.876 36.4312 125.267 36.5687 124.66C36.7062 124.054 37.0032 123.477 37.4221 123.004C37.8411 122.531 38.3632 122.182 38.9225 122.002C39.4817 121.822 40.0529 121.818 40.5639 121.991C41.0749 122.164 41.5026 122.507 41.7931 122.975C42.0837 123.444 42.2238 124.017 42.1959 124.623C42.1681 125.228 41.9734 125.839 41.6365 126.378C41.4128 126.736 41.132 127.053 40.81 127.312C40.488 127.57 40.1311 127.765 39.7598 127.884C39.3885 128.004 39.01 128.047 38.6459 128.01C38.2818 127.972 37.9393 127.856 37.6378 127.668V127.668ZM46.3091 113.797C45.8551 113.514 45.5112 113.076 45.3209 112.541C45.1306 112.006 45.1024 111.396 45.2399 110.79C45.3774 110.183 45.6744 109.607 46.0934 109.134C46.5124 108.661 47.0345 108.312 47.5937 108.132C48.1529 107.951 48.7241 107.947 49.2351 108.121C49.7461 108.294 50.1739 108.636 50.4644 109.105C50.7549 109.573 50.8951 110.146 50.8672 110.752C50.8393 111.358 50.6446 111.969 50.3077 112.508C50.0841 112.866 49.8032 113.183 49.4812 113.441C49.1592 113.7 48.8023 113.894 48.431 114.014C48.0597 114.134 47.6812 114.176 47.3171 114.139C46.9531 114.102 46.6105 113.986 46.3091 113.797V113.797ZM54.9803 99.9269C54.5263 99.6431 54.1824 99.2058 53.9921 98.6705C53.8018 98.1351 53.7736 97.5257 53.9111 96.9192C54.0486 96.3128 54.3457 95.7365 54.7646 95.2634C55.1836 94.7902 55.7057 94.4414 56.2649 94.2611C56.8241 94.0807 57.3954 94.0769 57.9063 94.2502C58.4173 94.4234 58.8451 94.7659 59.1356 95.2343C59.4261 95.7027 59.5663 96.276 59.5384 96.8818C59.5105 97.4875 59.3158 98.0984 58.979 98.6373C58.7553 98.9951 58.4744 99.3123 58.1524 99.5707C57.8304 99.8291 57.4736 100.024 57.1023 100.144C56.731 100.263 56.3525 100.306 55.9884 100.269C55.6243 100.231 55.2817 100.115 54.9803 99.9269V99.9269ZM63.6516 86.0564C63.1976 85.7726 62.8537 85.3354 62.6634 84.8C62.4731 84.2647 62.4449 83.6552 62.5824 83.0488C62.7199 82.4423 63.0169 81.8661 63.4359 81.3929C63.8548 80.9198 64.3769 80.571 64.9362 80.3906C65.4954 80.2103 66.0666 80.2065 66.5776 80.3797C67.0886 80.5529 67.5163 80.8954 67.8069 81.3638C68.0974 81.8323 68.2375 82.4056 68.2097 83.0113C68.1818 83.617 67.9871 84.228 67.6502 84.7668C67.4265 85.1246 67.1457 85.4418 66.8237 85.7003C66.5017 85.9587 66.1448 86.1534 65.7735 86.2731C65.4022 86.3928 65.0237 86.4353 64.6596 86.3982C64.2955 86.361 63.953 86.2449 63.6516 86.0564V86.0564ZM72.3228 72.186C71.8688 71.9022 71.5249 71.4649 71.3346 70.9296C71.1443 70.3942 71.1161 69.7848 71.2536 69.1783C71.3911 68.5719 71.6881 67.9956 72.1071 67.5225C72.5261 67.0493 73.0482 66.7005 73.6074 66.5202C74.1666 66.3398 74.7378 66.336 75.2488 66.5093C75.7598 66.6825 76.1876 67.025 76.4781 67.4934C76.7686 67.9618 76.9088 68.5351 76.8809 69.1409C76.853 69.7466 76.6583 70.3575 76.3214 70.8964C76.0978 71.2542 75.8169 71.5714 75.4949 71.8298C75.1729 72.0882 74.8161 72.2829 74.4447 72.4026C74.0734 72.5224 73.6949 72.5649 73.3309 72.5277C72.9668 72.4905 72.6242 72.3744 72.3228 72.186V72.186ZM80.994 58.3155C80.54 58.0317 80.1962 57.5945 80.0058 57.0591C79.8155 56.5238 79.7873 55.9143 79.9248 55.3079C80.0623 54.7014 80.3594 54.1252 80.7783 53.652C81.1973 53.1789 81.7194 52.8301 82.2786 52.6497C82.8379 52.4694 83.4091 52.4656 83.9201 52.6388C84.431 52.812 84.8588 53.1545 85.1493 53.6229C85.4398 54.0914 85.58 54.6647 85.5521 55.2704C85.5242 55.8761 85.3296 56.4871 84.9927 57.0259C84.769 57.3837 84.4881 57.7009 84.1661 57.9593C83.8441 58.2178 83.4873 58.4124 83.116 58.5322C82.7447 58.6519 82.3662 58.6944 82.0021 58.6573C81.638 58.6201 81.2955 58.504 80.994 58.3155V58.3155ZM89.6653 44.4451C89.2113 44.1613 88.8674 43.724 88.6771 43.1887C88.4868 42.6533 88.4586 42.0439 88.5961 41.4374C88.7336 40.831 89.0306 40.2547 89.4496 39.7816C89.8686 39.3084 90.3907 38.9596 90.9499 38.7793C91.5091 38.5989 92.0803 38.5951 92.5913 38.7684C93.1023 38.9416 93.5301 39.2841 93.8206 39.7525C94.1111 40.2209 94.2513 40.7942 94.2234 41.4C94.1955 42.0057 94.0008 42.6166 93.6639 43.1555C93.4402 43.5133 93.1594 43.8305 92.8374 44.0889C92.5154 44.3473 92.1585 44.542 91.7872 44.6617C91.4159 44.7815 91.0374 44.824 90.6733 44.7868C90.3092 44.7496 89.9667 44.6335 89.6653 44.4451V44.4451ZM98.3365 30.5746C97.8825 30.2908 97.5386 29.8536 97.3483 29.3182C97.158 28.7829 97.1298 28.1734 97.2673 27.567C97.4048 26.9605 97.7018 26.3843 98.1208 25.9111C98.5398 25.438 99.0619 25.0892 99.6211 24.9088C100.18 24.7285 100.752 24.7247 101.263 24.8979C101.774 25.0711 102.201 25.4136 102.492 25.882C102.782 26.3505 102.923 26.9238 102.895 27.5295C102.867 28.1352 102.672 28.7462 102.335 29.285C102.111 29.6428 101.831 29.96 101.509 30.2184C101.187 30.4769 100.83 30.6715 100.458 30.7913C100.087 30.911 99.7086 30.9535 99.3446 30.9164C98.9805 30.8792 98.6379 30.7631 98.3365 30.5746V30.5746ZM107.008 16.7042C106.554 16.4203 106.21 15.9831 106.02 15.4478C105.829 14.9124 105.801 14.303 105.939 13.6965C106.076 13.0901 106.373 12.5138 106.792 12.0407C107.211 11.5675 107.733 11.2187 108.292 11.0384C108.852 10.858 109.423 10.8542 109.934 11.0275C110.445 11.2007 110.873 11.5432 111.163 12.0116C111.454 12.48 111.594 13.0533 111.566 13.6591C111.538 14.2648 111.343 14.8757 111.006 15.4146C110.783 15.7724 110.502 16.0895 110.18 16.348C109.858 16.6064 109.501 16.8011 109.13 16.9208C108.758 17.0406 108.38 17.0831 108.016 17.0459C107.652 17.0087 107.309 16.8926 107.008 16.7042V16.7042Z" fill="#3F3D56"/>
<path d="M102.565 12.2044C101.946 11.8172 96.5355 8.38661 97.288 7.18289C98.0405 5.97917 103.494 9.34035 104.114 9.72757L103.804 10.2229C100.605 8.2228 98.2642 7.35098 97.7313 7.46007C97.8667 7.98689 99.6755 9.70892 102.875 11.7091C106.067 13.7047 108.404 14.577 108.944 14.4727C108.867 14.2352 108.382 13.5355 106.717 12.2411L107.062 11.7701C109.882 13.9632 109.525 14.5342 109.391 14.7491C108.638 15.9528 103.185 12.5917 102.565 12.2044Z" fill="#2F2E41"/>
<path d="M94.0488 25.8272C93.4294 25.44 88.019 22.0094 88.7716 20.8057C89.5241 19.602 94.9778 22.9632 95.5972 23.3504L95.2875 23.8457C92.0881 21.8456 89.7478 20.9738 89.2149 21.0829C89.3503 21.6097 91.159 23.3317 94.3585 25.3319C97.5507 27.3276 99.8878 28.1998 100.427 28.0955C100.35 27.858 99.8654 27.1583 98.2009 25.8639L98.5453 25.3929C101.366 27.5861 101.009 28.157 100.874 28.3719C100.122 29.5756 94.6682 26.2144 94.0488 25.8272Z" fill="#2F2E41"/>
<path d="M85.3776 39.6977C84.7582 39.3105 79.3478 35.8799 80.1004 34.6762C80.8529 33.4724 86.3066 36.8336 86.926 37.2209L86.6163 37.7162C83.4169 35.7161 81.0766 34.8443 80.5437 34.9533C80.6791 35.4802 82.4878 37.2022 85.6873 39.2023C88.8795 41.198 91.2166 42.0703 91.7562 41.966C91.6789 41.7284 91.1942 41.0287 89.5297 39.7344L89.8741 39.2634C92.6945 41.4565 92.3376 42.0275 92.2032 42.2424C91.4507 43.4461 85.997 40.0849 85.3776 39.6977Z" fill="#2F2E41"/>
<path d="M76.7063 53.5681C76.0869 53.1809 70.6766 49.7503 71.4291 48.5465C72.1816 47.3428 77.6354 50.704 78.2547 51.0912L77.9451 51.5866C74.7456 49.5865 72.4053 48.7146 71.8725 48.8237C72.0078 49.3505 73.8166 51.0726 77.016 53.0727C80.2083 55.0684 82.5453 55.9407 83.0849 55.8363C83.0077 55.5988 82.5229 54.8991 80.8585 53.6048L81.2029 53.1338C84.0232 55.3269 83.6663 55.8979 83.532 56.1128C82.7794 57.3165 77.3257 53.9553 76.7063 53.5681Z" fill="#2F2E41"/>
<path d="M68.0351 67.4386C67.4157 67.0513 62.0054 63.6207 62.7579 62.417C63.5104 61.2133 68.9642 64.5745 69.5835 64.9617L69.2739 65.4571C66.0744 63.4569 63.7341 62.5851 63.2013 62.6942C63.3366 63.221 65.1454 64.9431 68.3448 66.9432C71.5371 68.9389 73.8741 69.8112 74.4137 69.7068C74.3365 69.4693 73.8517 68.7696 72.1873 67.4752L72.5317 67.0042C75.3521 69.1974 74.9951 69.7683 74.8608 69.9832C74.1082 71.187 68.6545 67.8258 68.0351 67.4386Z" fill="#2F2E41"/>
<path d="M59.3638 81.309C58.7445 80.9218 53.3341 77.4912 54.0866 76.2875C54.8391 75.0838 60.2929 78.445 60.9123 78.8322L60.6026 79.3275C57.4032 77.3274 55.0629 76.4556 54.53 76.5647C54.6653 77.0915 56.4741 78.8135 59.6735 80.8137C62.8658 82.8094 65.2029 83.6816 65.7425 83.5773C65.6652 83.3398 65.1804 82.6401 63.516 81.3457L63.8604 80.8747C66.6808 83.0679 66.3238 83.6388 66.1895 83.8537C65.437 85.0575 59.9832 81.6962 59.3638 81.309Z" fill="#2F2E41"/>
<path d="M50.6926 95.1795C50.0732 94.7923 44.6629 91.3617 45.4154 90.158C46.1679 88.9543 51.6217 92.3154 52.2411 92.7027L51.9314 93.198C48.732 91.1979 46.3917 90.3261 45.8588 90.4352C45.9941 90.962 47.8029 92.684 51.0023 94.6842C54.1946 96.6799 56.5317 97.5521 57.0713 97.4478C56.994 97.2103 56.5092 96.5106 54.8448 95.2162L55.1892 94.7452C58.0096 96.9383 57.6526 97.5093 57.5183 97.7242C56.7658 98.9279 51.312 95.5668 50.6926 95.1795Z" fill="#2F2E41"/>
<path d="M42.0214 109.05C41.402 108.663 35.9916 105.232 36.7442 104.028C37.4967 102.825 42.9504 106.186 43.5698 106.573L43.2601 107.068C40.0607 105.068 37.7204 104.196 37.1875 104.306C37.3229 104.832 39.1316 106.554 42.3311 108.555C45.5233 110.55 47.8604 111.422 48.4 111.318C48.3227 111.081 47.838 110.381 46.1735 109.087L46.5179 108.616C49.3383 110.809 48.9814 111.38 48.847 111.595C48.0945 112.798 42.6408 109.437 42.0214 109.05Z" fill="#2F2E41"/>
<path d="M33.3501 122.92C32.7307 122.533 27.3204 119.103 28.0729 117.899C28.8254 116.695 34.2792 120.056 34.8985 120.444L34.5889 120.939C31.3894 118.939 29.0491 118.067 28.5163 118.176C28.6516 118.703 30.4604 120.425 33.6598 122.425C36.8521 124.421 39.1891 125.293 39.7287 125.189C39.6515 124.951 39.1667 124.251 37.5023 122.957L37.8467 122.486C40.6671 124.679 40.3101 125.25 40.1758 125.465C39.4232 126.669 33.9695 123.308 33.3501 122.92Z" fill="#2F2E41"/>
<path d="M24.6789 136.791C24.0595 136.404 18.6492 132.973 19.4017 131.769C20.1542 130.566 25.608 133.927 26.2273 134.314L25.9177 134.809C22.7182 132.809 20.3779 131.937 19.8451 132.046C19.9804 132.573 21.7892 134.295 24.9886 136.295C28.1809 138.291 30.5179 139.163 31.0575 139.059C30.9803 138.822 30.4955 138.122 28.8311 136.828L29.1755 136.357C31.9959 138.55 31.6389 139.121 31.5046 139.336C30.7521 140.539 25.2983 137.178 24.6789 136.791Z" fill="#2F2E41"/>
<path d="M16.0076 150.661C15.3883 150.274 9.97792 146.843 10.7304 145.64C11.4829 144.436 16.9367 147.797 17.5561 148.184L17.2464 148.68C14.047 146.68 11.7067 145.808 11.1738 145.917C11.3091 146.444 13.1179 148.166 16.3173 150.166C19.5096 152.162 21.8467 153.034 22.3863 152.929C22.309 152.692 21.8242 151.992 20.1598 150.698L20.5042 150.227C23.3246 152.42 22.9677 152.991 22.8333 153.206C22.0808 154.41 16.627 151.048 16.0076 150.661Z" fill="#2F2E41"/>
<path d="M144.92 108.098L99.013 79.3982C98.6537 79.1729 98.4151 78.7876 98.3495 78.3268C98.2839 77.866 98.3967 77.3674 98.6631 76.9403L111.98 55.6393C112.247 55.2127 112.646 54.8929 113.089 54.75C113.532 54.6072 113.983 54.6529 114.342 54.8772L160.25 83.5767C160.609 83.802 160.848 84.1873 160.913 84.6481C160.979 85.1089 160.866 85.6075 160.6 86.0346L147.283 107.336C147.016 107.762 146.617 108.082 146.174 108.225C145.731 108.368 145.28 108.322 144.92 108.098V108.098Z" fill="white"/>
<path d="M138.571 80.1864L126.886 72.8811C126.609 72.7081 126.425 72.4117 126.375 72.0571C126.324 71.7026 126.411 71.3188 126.616 70.9904C126.822 70.6619 127.129 70.4156 127.47 70.3057C127.81 70.1958 128.157 70.2312 128.434 70.4042L140.12 77.7095C140.396 77.8825 140.58 78.1789 140.631 78.5335C140.681 78.888 140.594 79.2718 140.389 79.6002C140.183 79.9287 139.877 80.175 139.536 80.2849C139.195 80.3948 138.848 80.3594 138.571 80.1864L138.571 80.1864Z" fill="#6C63FF"/>
<path d="M141.169 90.4225L116.546 75.0291C116.269 74.8562 116.085 74.5598 116.035 74.2052C115.984 73.8506 116.071 73.4669 116.277 73.1385C116.482 72.81 116.789 72.5637 117.13 72.4538C117.471 72.3439 117.817 72.3793 118.094 72.5523L142.717 87.9456C142.994 88.1186 143.178 88.415 143.228 88.7696C143.279 89.1242 143.192 89.5079 142.986 89.8363C142.781 90.1648 142.474 90.4111 142.133 90.521C141.792 90.6309 141.446 90.5955 141.169 90.4225Z" fill="#6C63FF"/>
<path d="M137.298 96.6147L112.675 81.2214C112.398 81.0484 112.214 80.752 112.164 80.3975C112.113 80.0429 112.2 79.6592 112.406 79.3307C112.611 79.0023 112.918 78.756 113.259 78.646C113.599 78.5361 113.946 78.5716 114.223 78.7445L138.846 94.1379C139.123 94.3109 139.307 94.6073 139.357 94.9618C139.408 95.3164 139.321 95.7001 139.115 96.0286C138.91 96.357 138.603 96.6033 138.262 96.7132C137.921 96.8232 137.574 96.7877 137.298 96.6147Z" fill="#6C63FF"/>
</g>
<defs>
<clipPath id="clip0">
<rect width="280" height="192" fill="white" transform="translate(101.778) rotate(32.0119)"/>
</clipPath>
</defs>
</svg>
