<svg width="512" height="512" viewBox="0 0 512 512" fill="none" xmlns="http://www.w3.org/2000/svg">
<path d="M467 331H452V316C452 291.187 431.813 271 407 271H271V241C285.095 241 301.95 241 316 241C324.284 241 331 234.284 331 226C331 217.716 324.284 211 316 211H301V181H346C370.813 181 391 160.813 391 136V45C391 20.187 370.813 0 346 0H166C141.187 0 121 20.187 121 45V136C121 160.813 141.187 181 166 181H211V211H196C187.716 211 181 217.716 181 226C181 234.284 187.716 241 196 241C210.05 241 226.905 241 241 241V271H105C80.187 271 60 291.187 60 316V331H45C20.187 331 0 351.187 0 376V406C0 430.813 20.187 451 45 451H60V482H45C36.716 482 30 488.716 30 497C30 505.284 36.716 512 45 512H105C113.284 512 120 505.284 120 497C120 488.716 113.284 482 105 482H90V451H105C129.813 451 150 430.813 150 406V376C150 351.187 129.813 331 105 331H90V316C90 307.729 96.729 301 105 301H241V331H226C201.187 331 181 351.187 181 376V406C181 430.813 201.187 451 226 451H241V482H226C217.716 482 211 488.716 211 497C211 505.284 217.716 512 226 512H286C294.284 512 301 505.284 301 497C301 488.716 294.284 482 286 482H271V451H286C310.813 451 331 430.813 331 406V376C331 351.187 310.813 331 286 331H271V301H407C415.271 301 422 307.729 422 316V331H407C382.187 331 362 351.187 362 376V406C362 430.813 382.187 451 407 451H422V482H407C398.716 482 392 488.716 392 497C392 505.284 398.716 512 407 512H467C475.284 512 482 505.284 482 497C482 488.716 475.284 482 467 482H452V451H467C491.813 451 512 430.813 512 406V376C512 351.187 491.813 331 467 331ZM105 361C113.271 361 120 367.729 120 376V406C120 414.271 113.271 421 105 421H45C36.729 421 30 414.271 30 406V376C30 367.729 36.729 361 45 361H105ZM166 151C157.729 151 151 144.271 151 136V45C151 36.729 157.729 30 166 30H346C354.271 30 361 36.729 361 45V136C361 144.271 354.271 151 346 151C309.96 151 201.911 151 166 151ZM286 361C294.271 361 301 367.729 301 376V406C301 414.271 294.271 421 286 421H226C217.729 421 211 414.271 211 406V376C211 367.729 217.729 361 226 361H286ZM241 211V181H271V211H241ZM482 406C482 414.271 475.271 421 467 421H407C398.729 421 392 414.271 392 406V376C392 367.729 398.729 361 407 361H467C475.271 361 482 367.729 482 376V406Z" fill="#5E20E4"/>
</svg>
