<svg width="512" height="470" viewBox="0 0 512 470" fill="none" xmlns="http://www.w3.org/2000/svg">
<path d="M446.84 196.109L256.001 138.041L65.1621 196.109L0 291.119L59.9878 309.373V410.358L256 469.999L452.012 410.358V309.373L512 291.119L446.84 196.109ZM389.336 207.625L256.001 248.196L122.666 207.625L256.001 167.055L389.336 207.625ZM45.7949 276.04L81.4241 224.09L233.104 270.242L197.475 322.192L45.7949 276.04ZM89.9906 318.502L210.343 355.122L241 310.423V436.422L89.9906 390.473V318.502ZM271.002 436.421V310.422L301.659 355.121L422.011 318.501V390.472L271.002 436.421ZM314.527 322.193L278.898 270.243L430.578 224.09L466.207 276.041L314.527 322.193Z" fill="#5E20E4"/>
<path d="M240.998 0H271V91.9586H240.998V0Z" fill="#5E20E4"/>
<path d="M99.9114 42.0813L125.893 28.3115L175.983 107.948L150.002 121.717L99.9114 42.0813Z" fill="#5E20E4"/>
<path d="M336.012 107.955L386.103 28.3192L412.084 42.089L361.994 121.725L336.012 107.955Z" fill="#5E20E4"/>
</svg>
