<svg width="45" height="45" viewBox="0 0 45 45" fill="none" xmlns="http://www.w3.org/2000/svg">
<path d="M39.2713 18.7765L22.4991 13.2168L5.72683 18.7765L-6.10352e-05 27.8732L5.27207 29.6208V39.2896L22.499 45L39.7259 39.2896V29.6208L44.998 27.8732L39.2713 18.7765ZM34.2175 19.8791L22.4991 23.7635L10.7806 19.8791L22.4991 15.9947L34.2175 19.8791ZM4.0247 26.4295L7.15604 21.4555L20.4867 25.8743L17.3554 30.8483L4.0247 26.4295ZM7.90893 30.4949L18.4863 34.0011L21.1807 29.7214V41.7851L7.90893 37.3858V30.4949ZM23.8174 41.7851V29.7213L26.5118 34.001L37.0892 30.4948V37.3857L23.8174 41.7851ZM27.6427 30.8484L24.5114 25.8744L37.8421 21.4556L40.9734 26.4296L27.6427 30.8484Z" fill="#5E20E4"/>
<path d="M21.1805 0H23.8173V8.80453H21.1805V0Z" fill="#5E20E4"/>
<path d="M8.78088 4.02905L11.0643 2.71067L15.4666 10.3354L13.1831 11.6538L8.78088 4.02905Z" fill="#5E20E4"/>
<path d="M29.531 10.3362L33.9333 2.71146L36.2167 4.02984L31.8145 11.6546L29.531 10.3362Z" fill="#5E20E4"/>
</svg>
