<svg width="187" height="297" viewBox="0 0 187 297" fill="none" xmlns="http://www.w3.org/2000/svg">
<path d="M261.82 125.176L150.001 88.1116L38.1808 125.176L-6.10352e-05 185.821L35.149 197.472V261.931L150 300L264.851 261.931V197.472L300 185.821L261.82 125.176ZM228.127 132.527L150.001 158.423L71.8744 132.527L150.001 106.631L228.127 132.527ZM26.8329 176.196L47.7094 143.036L136.584 172.495L115.708 205.655L26.8329 176.196ZM52.7288 203.299L123.248 226.674L141.211 198.142V278.567L52.7288 249.238V203.299ZM158.79 278.567V198.142L176.753 226.673L247.272 203.299V249.238L158.79 278.567ZM184.293 205.655L163.417 172.496L252.292 143.037L273.168 176.197L184.293 205.655Z" fill="#5E20E4"/>
<path d="M141.21 0H158.789V58.6969H141.21V0Z" fill="#5E20E4"/>
<path d="M58.5417 26.8604L73.7654 18.0711L103.115 68.9026L87.8915 77.6919L58.5417 26.8604Z" fill="#5E20E4"/>
</svg>
