<svg width="91" height="83" viewBox="0 0 91 83" fill="none" xmlns="http://www.w3.org/2000/svg">
<path d="M79.4188 34.632L45.5001 24.3774L11.5815 34.632L-6.10352e-05 51.4104L10.6618 54.6339V72.4674L45.4999 82.9999L80.3381 72.4674V54.6339L90.9999 51.4104L79.4188 34.632ZM69.1984 36.6658L45.5001 43.8303L21.8018 36.6658L45.5001 29.5012L69.1984 36.6658ZM8.13926 48.7475L14.4718 39.5732L41.4305 47.7236L35.0981 56.8978L8.13926 48.7475ZM15.9944 56.2461L37.3851 62.7131L42.8339 54.8193V77.0703L15.9944 68.9559V56.2461ZM48.1663 77.0701V54.8191L53.6151 62.7129L75.0059 56.2459V68.9557L48.1663 77.0701ZM55.9021 56.8979L49.5698 47.7238L76.5284 39.5734L82.861 48.7477L55.9021 56.8979Z" fill="#5E20E4"/>
<path d="M42.8336 0H48.166V16.2395H42.8336V0Z" fill="#5E20E4"/>
<path d="M17.7577 7.4314L22.3755 4.9997L31.2783 19.0631L26.6604 21.4948L17.7577 7.4314Z" fill="#5E20E4"/>
<path d="M59.7209 19.0645L68.6236 5.00105L73.2415 7.43275L64.3387 21.4961L59.7209 19.0645Z" fill="#5E20E4"/>
</svg>
