<svg width="120" height="120" viewBox="0 0 120 120" fill="none" xmlns="http://www.w3.org/2000/svg">
<path d="M104.728 50.0705L60.0002 35.2446L15.2723 50.0705L-6.10352e-05 74.3284L14.0596 78.9888V104.772L59.9999 120L105.94 104.772V78.9888L120 74.3284L104.728 50.0705ZM91.2506 53.0108L60.0002 63.3692L28.7497 53.0108L60.0002 42.6524L91.2506 53.0108ZM10.7331 70.4784L19.0837 57.2144L54.6336 68.9981L46.2832 82.2619L10.7331 70.4784ZM21.0915 81.3197L49.2991 90.6695L56.4843 79.2569V111.427L21.0915 99.6953V81.3197ZM63.516 111.427V79.2567L70.7012 90.6693L98.9089 81.3194V99.695L63.516 111.427ZM73.7171 82.2621L65.3668 68.9983L100.917 57.2147L109.267 70.4787L73.7171 82.2621Z" fill="#5E20E4"/>
<path d="M56.4839 0H63.5156V23.4787H56.4839V0Z" fill="#5E20E4"/>
<path d="M23.4167 10.7441L29.5061 7.22845L41.246 27.561L35.1566 31.0767L23.4167 10.7441Z" fill="#5E20E4"/>
<path d="M78.7528 27.563L90.4927 7.2304L96.5821 10.7461L84.8423 31.0787L78.7528 27.563Z" fill="#5E20E4"/>
</svg>
