<svg width="430" height="401" viewBox="0 0 430 401" fill="none" xmlns="http://www.w3.org/2000/svg">
<g clip-path="url(#clip0)">
<path d="M183.062 340.511L39.1685 339.688L24.8707 300.35L75.4278 296.045L66.6163 252.915L166.612 237.712L70.8581 198.665L79.3165 196.308L233.287 225.773L224.808 293.081L212.688 330.072L183.062 340.511Z" fill="#6C63FF"/>
<path d="M41.3755 323.212C41.3755 323.212 50.2039 321.555 55.5009 328.873C55.5009 328.873 51.6164 332.463 43.2589 327.493L41.3755 323.212Z" fill="#6C63FF"/>
<path d="M40.4507 323.049C40.4507 323.049 34.8174 331.181 37.592 340.235C37.592 340.235 42.1828 338.08 42.6831 327.103L40.4507 323.049Z" fill="#6C63FF"/>
<path d="M35.3892 309.68C35.3892 309.68 38.9205 302.081 53.0459 312.718C53.0459 312.718 51.1625 317.827 44.9238 317.413C38.6851 316.999 37.0371 313.685 35.3892 309.68Z" fill="#6C63FF"/>
<path d="M34.4769 309.133C34.4769 309.133 27.1493 308.147 26.4388 327.823C26.4388 327.823 31.0842 328.952 34.3844 322.729C37.6845 316.505 36.3308 313.014 34.4769 309.133Z" fill="#6C63FF"/>
<path d="M30.2098 293.436C30.2098 293.436 34.3297 280.043 49.2791 289.57C49.2791 289.57 45.8655 301.859 31.7401 297.993L30.2098 293.436Z" fill="#6C63FF"/>
<path d="M25.6191 273.415C25.6191 273.415 33.388 259.883 47.1603 272.429C47.1603 272.429 42.3341 285.132 26.7962 278.228L25.6191 273.415Z" fill="#6C63FF"/>
<path d="M23.9711 254.36C23.9711 254.36 33.0349 241.928 46.6726 254.36C46.6726 254.36 38.0796 265.268 23.9711 257.536V254.36Z" fill="#6C63FF"/>
<path d="M22.5585 235.853C22.5585 235.853 31.74 222.873 44.806 235.162C44.806 235.162 34.4474 246.623 22.5585 238.89V235.853Z" fill="#6C63FF"/>
<path d="M23.3826 219.421C23.3826 219.421 33.0517 202.714 45.2769 214.036C45.2769 214.036 34.9183 228.396 23.3826 222.597V219.421Z" fill="#6C63FF"/>
<path d="M25.6191 200.228C25.6191 200.228 35.86 183.659 47.7488 196.362C47.7488 196.362 35.6246 210.722 25.6191 203.266V200.228Z" fill="#6C63FF"/>
<path d="M29.0327 183.072C29.0327 183.072 41.157 167.499 51.7342 173.702C51.7342 173.702 39.1012 190.242 28.503 187.205L29.0327 183.072Z" fill="#6C63FF"/>
<path d="M33.2703 166.808C33.2703 166.808 47.2611 147.734 55.4 154.105C55.4 154.105 45.0919 168.899 32.2781 170.379L33.2703 166.808Z" fill="#6C63FF"/>
<path d="M39.3871 147.946C39.3871 147.946 51.6333 132.373 60.5794 136.239C60.5794 136.239 50.1031 152.394 37.7433 152.808L39.3871 147.946Z" fill="#6C63FF"/>
<path d="M44.9238 130.301C44.9238 130.301 58.4606 115.389 64.3462 118.012C64.3462 118.012 54.5761 134.582 44.3352 133.615L44.9238 130.301Z" fill="#6C63FF"/>
<path d="M50.3385 114.008C50.3385 114.008 61.9919 96.1911 68.3526 97.5719C68.3526 97.5719 61.2857 113.456 50.3385 115.818V114.008Z" fill="#6C63FF"/>
<path d="M56.2156 92.0389C56.2156 92.0389 66.5154 78.3839 72.0815 78.4135C72.0815 78.4135 63.9509 96.6596 55.791 96.4919L56.2156 92.0389Z" fill="#6C63FF"/>
<path d="M59.6965 77.4124L69.6474 48.9683C69.6474 48.9683 70.1434 74.6805 58.4312 82.689L59.6965 77.4124Z" fill="#6C63FF"/>
<path d="M63.7366 46.0439C63.7366 46.0439 65.3845 22.2894 64.3251 20.3563C64.3251 20.3563 71.4383 40.1065 63.6693 56.5379L63.7366 46.0439Z" fill="#6C63FF"/>
<path d="M29.823 293.121C29.823 293.121 19.5065 285.62 12.8264 303.97C12.8264 303.97 22.0078 311.12 31.038 297.801L29.823 293.121Z" fill="#6C63FF"/>
<path d="M25.287 272.651C25.287 272.651 12.633 265.88 6.49518 285.038C6.49518 285.038 16.2694 292.928 26.4389 277.493L25.287 272.651Z" fill="#6C63FF"/>
<path d="M23.3825 255.499C23.3825 255.499 14.3187 243.067 0.68103 255.499C0.68103 255.499 9.27397 266.408 23.3825 258.675V255.499Z" fill="#6C63FF"/>
<path d="M22.2475 235.853C22.2475 235.853 13.066 222.873 0 235.162C0 235.162 10.3586 246.623 22.2475 238.89V235.853Z" fill="#6C63FF"/>
<path d="M23.3826 219.895C23.3826 219.895 16.9421 201.18 2.94281 209.228C2.94281 209.228 10.51 225.822 22.8108 223.001L23.3826 219.895Z" fill="#6C63FF"/>
<path d="M26.4304 200.135C26.4304 200.135 20.0278 181.095 5.83093 189.922C5.83093 189.922 14.5248 207.374 25.7998 203.074L26.4304 200.135Z" fill="#6C63FF"/>
<path d="M30.3989 183.166C30.3989 183.166 27.8766 162.291 16.1054 160.422C16.1054 160.422 18.6026 182.436 28.814 186.928L30.3989 183.166Z" fill="#6C63FF"/>
<path d="M33.5688 166.848C33.5688 166.848 32.5851 141.698 22.8528 140.82C22.8528 140.82 23.1808 159.909 32.4715 170.408L33.5688 166.848Z" fill="#6C63FF"/>
<path d="M40.3961 147.241C40.3961 147.241 37.4953 126.327 28.2045 123.772C28.2045 123.772 29.3564 144.026 39.4754 152.374L40.3961 147.241Z" fill="#6C63FF"/>
<path d="M46.0252 130.474C46.0252 130.474 45.9285 108.687 40.2531 105.487C40.2531 105.487 36.7344 125.212 44.3814 133.255L46.0252 130.474Z" fill="#6C63FF"/>
<path d="M50.7715 113.762C50.7715 113.762 49.9769 91.3287 44.0998 88.1677C44.0998 88.1677 42.0902 105.921 49.8928 115.231L50.7715 113.762Z" fill="#6C63FF"/>
<path d="M57.0354 93.829C57.0354 93.829 57.0018 75.5829 52.8062 71.3025C52.8062 71.3025 48.6359 91.2894 54.8451 97.498L57.0354 93.829Z" fill="#6C63FF"/>
<path d="M59.2046 76.5149L55.1226 46.1475C55.1226 46.1475 49.5775 71.0312 59.398 81.9986L59.2046 76.5149Z" fill="#6C63FF"/>
<path d="M59.9992 46.33C59.9992 46.33 49.5229 25.9141 49.7373 23.6456C49.7373 23.6456 50.8514 45.0429 64.0308 55.6996L59.9992 46.33Z" fill="#6C63FF"/>
<path d="M61.2268 40.2989C61.2268 40.2989 51.339 11.3024 46.866 8.95508C46.866 8.95508 60.9913 17.3779 62.0507 39.4704L61.2268 40.2989Z" fill="#6C63FF"/>
<path d="M55.7406 96.6646L55.0637 96.4229C63.4086 64.5021 65.4896 44.1503 60.9283 39.0463L61.4117 38.4447C66.2505 43.8298 64.2873 63.9597 55.7406 96.6646Z" fill="#444053"/>
<path d="M32.7616 171.405L31.761 170.985C32.6481 168.061 33.6024 165.092 34.6029 162.168C43.3136 136.702 50.7294 113.012 55.4841 94.8252L56.3543 94.332C51.5912 112.553 44.3057 137.151 35.5867 162.651C34.5903 165.521 33.6402 168.475 32.7616 171.405Z" fill="#444053"/>
<path d="M53.8151 347.1C53.6806 346.927 40.1564 329.061 30.7269 298.56C25.2017 280.703 22.1268 261.931 21.6169 242.944C20.9694 219.209 25.2155 192.708 32.4883 168.633L33.2787 169.718C16.9504 223.751 23.4372 270.052 32.0427 297.934C41.3714 328.158 54.7442 345.827 54.8745 346.005L53.8151 347.1Z" fill="#444053"/>
<path d="M265.158 309.167C265.158 309.167 255.627 322.813 263.194 343.441L187.102 382.152L179.8 383.947L176.437 366.687L178.686 344.905V333.001L265.158 309.167Z" fill="#D5D6DB"/>
<path d="M24.8707 300.35L130.189 277.829L269.74 303.906L183.062 340.511L24.8707 300.35Z" fill="#6C63FF"/>
<path d="M24.8707 300.35L130.189 277.829L269.74 303.906L183.062 340.511L24.8707 300.35Z" fill="#6C63FF"/>
<path d="M24.8707 300.345C24.8707 300.345 15.0208 322.236 26.3715 342.454L182.549 382.152C182.549 382.152 172.855 364.715 183.05 340.511L24.8707 300.345Z" fill="#6C63FF"/>
<path opacity="0.1" d="M24.8707 300.345C24.8707 300.345 15.0208 322.236 26.3715 342.454L182.549 382.152C182.549 382.152 172.855 364.715 183.05 340.511L24.8707 300.345Z" fill="black"/>
<path opacity="0.1" d="M29.5245 307.935C29.5245 307.935 23.8954 323.952 29.5245 334.318V307.935Z" fill="black"/>
<path d="M182.549 382.152L269.74 338.509C269.74 338.509 274.617 339.742 271.464 343.934C268.311 348.125 184.231 386.344 184.231 386.344L26.3716 342.454L182.549 382.152Z" fill="#6C63FF"/>
<path opacity="0.1" d="M182.549 382.152L269.74 338.509C269.74 338.509 274.617 339.742 271.464 343.934C268.311 348.125 184.231 386.344 184.231 386.344L26.3716 342.454L182.549 382.152Z" fill="black"/>
<path opacity="0.1" d="M175.403 344.92C175.403 344.92 166.995 356.755 175.403 374.508V344.92Z" fill="black"/>
<path opacity="0.1" d="M216.109 344.72L178.395 359.479L178.528 359.947L216.242 345.188L216.109 344.72Z" fill="black"/>
<path opacity="0.1" d="M223.662 343.251L178.383 363.448L178.533 363.909L223.812 343.712L223.662 343.251Z" fill="black"/>
<path opacity="0.1" d="M230.6 343.18L178.636 368.13L178.795 368.587L230.759 343.637L230.6 343.18Z" fill="black"/>
<path opacity="0.1" d="M238.144 341.044L179.242 372.255L179.415 372.704L238.317 341.493L238.144 341.044Z" fill="black"/>
<path opacity="0.1" d="M244.481 341.054L179.709 374.265L179.877 374.717L244.65 341.506L244.481 341.054Z" fill="black"/>
<path opacity="0.1" d="M258.344 338.292L180.685 377.637L180.852 378.09L258.511 338.745L258.344 338.292Z" fill="black"/>
<path opacity="0.3" d="M63.9972 302.757L137.987 284.511L183.062 294.62L122.433 317.551L63.9972 302.757Z" fill="white"/>
<path d="M269.74 303.906C269.74 303.906 273.566 305.716 271.321 308.512C269.076 311.308 183.05 340.511 183.05 340.511L269.74 303.906Z" fill="#6C63FF"/>
<path d="M306.899 261.738C306.899 261.738 297.373 275.378 304.94 296.011L228.848 334.722L221.546 336.527L218.182 319.267L220.465 297.49V285.571L306.899 261.738Z" fill="#D5D6DB"/>
<path d="M66.6163 252.915L171.93 230.399L311.486 256.476L224.808 293.081L66.6163 252.915Z" fill="#3A3768"/>
<path d="M66.5994 252.915C66.5994 252.915 56.7453 274.806 68.096 295.024L224.274 334.722C224.274 334.722 214.584 317.27 224.791 293.076L66.5994 252.915Z" fill="#3A3768"/>
<path opacity="0.1" d="M66.5994 252.915C66.5994 252.915 56.7453 274.806 68.096 295.024L224.274 334.722C224.274 334.722 214.584 317.27 224.791 293.076L175.403 280.536L66.5994 252.915Z" fill="black"/>
<path opacity="0.1" d="M71.2659 260.505C71.2659 260.505 65.641 276.517 71.2659 286.888V260.505Z" fill="black"/>
<path d="M224.291 334.722L311.486 291.079C311.486 291.079 316.358 292.312 313.205 296.504C310.052 300.695 225.972 338.914 225.972 338.914L68.1129 295.024L224.291 334.722Z" fill="#3A3768"/>
<path opacity="0.1" d="M224.291 334.722L311.486 291.079C311.486 291.079 316.358 292.312 313.205 296.504C310.052 300.695 225.972 338.914 225.972 338.914L68.1129 295.024L224.291 334.722Z" fill="black"/>
<path opacity="0.1" d="M217.144 297.49C217.144 297.49 208.736 309.325 217.144 327.078V297.49Z" fill="black"/>
<path opacity="0.1" d="M257.853 297.295L220.14 312.054L220.273 312.522L257.986 297.763L257.853 297.295Z" fill="black"/>
<path opacity="0.1" d="M265.412 295.824L220.133 316.021L220.283 316.482L265.562 296.285L265.412 295.824Z" fill="black"/>
<path opacity="0.1" d="M272.344 295.746L220.38 320.696L220.539 321.153L272.503 296.203L272.344 295.746Z" fill="black"/>
<path opacity="0.1" d="M279.892 293.611L220.991 324.822L221.164 325.271L280.065 294.06L279.892 293.611Z" fill="black"/>
<path opacity="0.1" d="M286.224 293.615L221.451 326.826L221.62 327.277L286.392 294.067L286.224 293.615Z" fill="black"/>
<path opacity="0.1" d="M300.09 290.853L222.431 330.198L222.598 330.651L300.257 291.306L300.09 290.853Z" fill="black"/>
<path opacity="0.45" d="M105.743 255.327L179.733 237.081L224.808 247.19L164.178 270.121L105.743 255.327Z" fill="white"/>
<path d="M311.486 256.476C311.486 256.476 315.307 258.286 313.066 261.077C310.826 263.868 224.808 293.076 224.808 293.076L311.486 256.476Z" fill="#3A3768"/>
<path d="M310.851 207.478C310.851 207.478 301.32 231.972 308.888 252.6L232.795 280.462L225.51 282.272L222.147 265.012L224.396 243.23V231.311L310.851 207.478Z" fill="#D5D6DB"/>
<path d="M70.5806 198.66L175.899 176.139L315.454 202.216L228.772 238.821L70.5806 198.66Z" fill="#6C63FF"/>
<path d="M70.5806 198.655C70.5806 198.655 60.7139 220.546 72.0646 240.764L228.243 280.462C228.243 280.462 218.548 263.01 228.755 238.821L70.5806 198.655Z" fill="#6C63FF"/>
<path opacity="0.1" d="M70.5806 198.655C70.5806 198.655 60.7139 220.546 72.0646 240.764L228.243 280.462C228.243 280.462 218.548 263.01 228.755 238.821L70.5806 198.655Z" fill="black"/>
<path opacity="0.1" d="M75.2344 206.245C75.2344 206.245 69.6053 222.262 75.2344 232.628V206.245Z" fill="black"/>
<path d="M228.259 280.462L315.45 247.668C315.45 247.668 320.327 248.901 317.174 253.093C314.021 257.285 229.941 284.654 229.941 284.654L72.0815 240.764L228.259 280.462Z" fill="#6C63FF"/>
<path opacity="0.1" d="M228.259 280.462L315.45 247.668C315.45 247.668 320.327 248.901 317.174 253.093C314.021 257.285 229.941 284.654 229.941 284.654L72.0815 240.764L228.259 280.462Z" fill="black"/>
<path opacity="0.1" d="M221.113 243.23C221.113 243.23 212.705 255.065 221.113 272.818V243.23Z" fill="black"/>
<path opacity="0.1" d="M261.823 243.034L224.109 257.793L224.243 258.261L261.956 243.502L261.823 243.034Z" fill="black"/>
<path opacity="0.1" d="M269.379 241.566L224.1 261.763L224.249 262.224L269.529 242.027L269.379 241.566Z" fill="black"/>
<path opacity="0.1" d="M276.306 241.49L224.343 266.44L224.502 266.897L276.466 241.947L276.306 241.49Z" fill="black"/>
<path opacity="0.1" d="M283.861 239.35L224.96 270.562L225.133 271.011L284.034 239.8L283.861 239.35Z" fill="black"/>
<path opacity="0.1" d="M290.195 239.359L225.422 272.57L225.591 273.022L290.363 239.811L290.195 239.359Z" fill="black"/>
<path opacity="0.1" d="M304.059 236.601L226.401 275.946L226.568 276.399L304.226 237.053L304.059 236.601Z" fill="black"/>
<path opacity="0.3" d="M109.707 201.067L183.697 182.821L228.772 192.93L168.142 215.861L109.707 201.067Z" fill="white"/>
<path d="M315.45 202.216C315.45 202.216 319.276 204.026 317.031 206.822C314.786 209.618 228.772 238.821 228.772 238.821L315.45 202.216Z" fill="#6C63FF"/>
<path d="M130.5 52.5188C130.5 52.5188 114.525 51.3895 116.391 64.5365C116.391 64.5365 116.017 66.8592 117.812 67.9145C117.812 67.9145 117.842 66.9283 119.452 67.2685C120.027 67.3843 120.611 67.4174 121.192 67.3672C121.976 67.3042 122.721 66.9442 123.315 66.3414C123.315 66.3414 127.809 64.1618 129.558 55.5417C129.558 55.5417 130.853 53.6629 130.82 53.1796L128.112 54.5308C128.112 54.5308 129.033 56.814 128.31 58.7126C128.31 58.7126 128.221 54.6146 127.7 54.7083C127.595 54.7083 126.3 55.5023 126.3 55.5023C126.3 55.5023 127.885 59.4819 126.687 62.3717C126.687 62.3717 127.141 57.4699 125.804 55.7883L123.904 57.0902C123.904 57.0902 125.758 61.198 124.501 64.5513C124.501 64.5513 124.825 59.4079 123.505 57.4058L121.781 58.9838C121.781 58.9838 123.526 63.0325 122.462 65.8138C122.462 65.8138 122.323 59.8271 121.411 59.3734C121.411 59.3734 119.902 60.9317 119.675 61.5728C119.675 61.5728 120.869 64.5316 120.125 66.0653C120.125 66.0653 119.675 62.0758 119.284 62.0561C119.284 62.0561 117.783 64.6993 117.627 66.4943C117.7 64.8208 118.145 63.1989 118.918 61.7898C118.053 61.9817 117.255 62.4669 116.623 63.1854C116.623 63.1854 116.854 61.3164 119.292 61.1536C119.292 61.1536 120.532 59.1466 120.864 59.0282C120.864 59.0282 118.439 58.7866 116.972 59.5509C116.972 59.5509 118.266 57.7904 121.306 58.5646L122.987 56.9373C122.987 56.9373 119.801 56.4442 118.447 56.9915C118.447 56.9915 120.007 55.4332 123.446 56.5674L125.3 55.2705C125.3 55.2705 122.58 54.585 120.961 54.8316C120.961 54.8316 122.668 53.7516 125.842 54.9204L127.162 54.225C127.162 54.225 125.174 53.7664 124.589 53.6924C124.005 53.6185 123.975 53.4311 123.975 53.4311C125.238 53.1879 126.532 53.3586 127.717 53.9242C127.717 53.9242 130.555 52.7259 130.5 52.5188Z" fill="#6C63FF"/>
<path opacity="0.1" d="M355.245 106.557C355.245 106.557 339.27 105.428 341.136 118.575C341.136 118.575 340.762 120.897 342.557 121.953C342.557 121.953 342.587 120.966 344.197 121.307C344.772 121.42 345.356 121.453 345.937 121.405C346.714 121.338 347.451 120.978 348.039 120.38C348.039 120.38 352.537 118.2 354.282 109.58C354.282 109.58 355.577 107.701 355.543 107.218L352.844 108.569C352.844 108.569 353.765 110.852 353.042 112.751C353.042 112.751 352.954 108.653 352.436 108.746C352.331 108.746 351.032 109.54 351.032 109.54C351.032 109.54 352.617 113.52 351.423 116.41C351.423 116.41 351.877 111.508 350.536 109.826L348.636 111.128C348.636 111.128 350.49 115.236 349.233 118.589C349.233 118.589 349.557 113.446 348.237 111.444L346.517 113.022C346.517 113.022 348.258 117.071 347.194 119.852C347.194 119.852 347.055 113.865 346.143 113.411C346.143 113.411 344.638 114.97 344.407 115.611C344.407 115.611 345.601 118.57 344.861 120.103C344.861 120.103 344.407 116.114 344.02 116.094C344.02 116.094 342.519 118.737 342.364 120.532C342.437 118.858 342.883 117.236 343.659 115.828C342.793 116.02 341.993 116.505 341.359 117.223C341.359 117.223 341.594 115.354 344.029 115.192C344.029 115.192 345.269 113.185 345.601 113.061C345.601 113.061 343.179 112.825 341.708 113.589C341.708 113.589 343.003 111.829 346.042 112.603L347.724 110.975C347.724 110.975 344.533 110.482 343.184 111.03C343.184 111.03 344.739 109.471 348.182 110.606L350.032 109.309C350.032 109.309 347.312 108.623 345.693 108.87C345.693 108.87 347.4 107.79 350.574 108.958L351.898 108.263C351.898 108.263 349.906 107.805 349.321 107.731C348.737 107.657 348.708 107.469 348.708 107.469C349.97 107.223 351.265 107.394 352.449 107.962C352.449 107.962 355.295 106.764 355.245 106.557Z" fill="#6C63FF"/>
<path opacity="0.1" d="M157.405 133.739C157.405 133.739 150.444 116.809 141.582 125.153C141.582 125.153 139.669 125.903 139.761 128.255C139.761 128.255 140.497 127.806 141.023 129.621C141.219 130.262 141.478 130.875 141.796 131.446C142.226 132.219 142.859 132.808 143.6 133.122C143.6 133.122 147.413 136.663 154.681 134.247C154.681 134.247 156.712 134.656 157.044 134.37L154.723 132.264C154.723 132.264 153.462 134.321 151.705 134.503C151.705 134.503 154.715 132.417 154.391 131.934C154.324 131.835 153.13 130.883 153.13 130.883C153.13 130.883 150.94 134.449 148.207 134.631C148.207 134.631 152.075 132.708 152.672 130.514L150.78 129.202C150.78 129.202 148.623 133.107 145.517 133.453C145.517 133.453 149.502 131.278 150.347 128.95L148.337 127.964C148.337 127.964 146.172 131.722 143.583 131.993C143.583 131.993 147.972 128.931 147.862 127.772C147.862 127.772 145.966 126.993 145.378 127.066C145.378 127.066 143.772 129.725 142.259 129.725C142.259 129.725 145.004 127.313 144.836 126.923C144.836 126.923 142.137 126.677 140.716 127.417C141.996 126.67 143.421 126.33 144.848 126.43C144.282 125.638 143.531 125.057 142.687 124.759C142.687 124.759 144.192 124.088 145.5 126.499C145.5 126.499 147.602 126.79 147.85 127.071C147.85 127.071 146.845 124.478 145.563 123.348C145.563 123.348 147.505 123.807 148.392 127.293L150.431 128.24C150.431 128.24 149.258 124.729 148.178 123.619C148.178 123.619 150.095 124.453 150.931 128.551L152.798 129.813C152.798 129.813 151.987 126.692 151.011 125.158C151.011 125.158 152.647 126.381 153.323 130.198L154.488 131.214C154.488 131.214 153.857 128.95 153.647 128.319C153.437 127.688 153.542 127.56 153.542 127.56C154.342 128.73 154.848 130.139 155.005 131.628C155.005 131.628 157.254 133.887 157.405 133.739Z" fill="#6C63FF"/>
<path opacity="0.1" d="M318.746 82.6398C318.746 82.6398 311.788 65.7103 302.922 74.0542C302.922 74.0542 301.013 74.8038 301.102 77.1561C301.102 77.1561 301.842 76.7122 302.363 78.522C302.559 79.1662 302.82 79.7804 303.141 80.3516C303.569 81.1238 304.201 81.7108 304.94 82.0233C304.94 82.0233 308.757 85.5641 316.022 83.1526C316.022 83.1526 318.052 83.557 318.388 83.271L316.081 81.1603C316.081 81.1603 314.819 83.2217 313.066 83.4041C313.066 83.4041 316.072 81.3132 315.748 80.8299C315.681 80.7313 314.487 79.7796 314.487 79.7796C314.487 79.7796 312.301 83.3449 309.564 83.5274C309.564 83.5274 313.436 81.6042 314.033 79.4146L312.112 78.1128C312.112 78.1128 309.96 82.0135 306.849 82.3636C306.849 82.3636 310.834 80.1839 311.683 77.8563L309.669 76.87C309.669 76.87 307.504 80.6327 304.919 80.899C304.919 80.899 309.304 77.8366 309.194 76.6826C309.194 76.6826 307.303 75.8986 306.714 75.9775C306.714 75.9775 305.108 78.6305 303.59 78.6305C303.59 78.6305 306.34 76.2191 306.172 75.8295C306.172 75.8295 303.473 75.583 302.048 76.3227C303.328 75.5759 304.753 75.2359 306.18 75.3364C305.616 74.5438 304.866 73.9626 304.023 73.6646C304.023 73.6646 305.529 72.994 306.836 75.4054C306.836 75.4054 308.938 75.7013 309.186 75.9824C309.186 75.9824 308.181 73.3836 306.895 72.2543C306.895 72.2543 308.837 72.7178 309.724 76.224L311.767 77.1709C311.767 77.1709 310.594 73.6548 309.514 72.5452C309.514 72.5452 311.431 73.3786 312.263 77.4766L314.134 78.739C314.134 78.739 313.318 75.6224 312.343 74.0838C312.343 74.0838 313.983 75.3068 314.655 79.1237L315.82 80.1395C315.82 80.1395 315.193 77.876 314.979 77.2448C314.765 76.6136 314.874 76.4903 314.874 76.4903C315.671 77.6622 316.176 79.0705 316.333 80.5587C316.333 80.5587 318.616 82.7976 318.746 82.6398Z" fill="#6C63FF"/>
<path opacity="0.1" d="M340.981 166.379C340.981 166.379 334.023 149.445 325.144 157.789C325.144 157.789 323.236 158.539 323.324 160.891C323.324 160.891 324.064 160.447 324.585 162.257C324.78 162.901 325.039 163.515 325.359 164.086C325.787 164.859 326.419 165.445 327.158 165.758C327.158 165.758 330.975 169.304 338.244 166.887C338.244 166.887 340.27 167.297 340.607 167.006L338.286 164.9C338.286 164.9 337.025 166.961 335.267 167.144C335.267 167.144 338.273 165.053 337.95 164.57C337.882 164.471 336.688 163.519 336.688 163.519C336.688 163.519 334.502 167.085 331.766 167.272C331.766 167.272 335.637 165.344 336.234 163.154L334.338 161.843C334.338 161.843 332.186 165.748 329.075 166.093C329.075 166.093 333.06 163.914 333.91 161.586L331.896 160.6C331.896 160.6 329.731 164.358 327.145 164.629C327.145 164.629 331.534 161.566 331.425 160.408C331.425 160.408 329.529 159.623 328.94 159.702C328.94 159.702 327.335 162.355 325.817 162.355C325.817 162.355 328.566 159.944 328.398 159.554C328.398 159.554 325.699 159.308 324.274 160.048C325.556 159.301 326.982 158.961 328.411 159.061C327.846 158.267 327.094 157.686 326.25 157.389C326.25 157.389 327.755 156.714 329.062 159.13C329.062 159.13 331.164 159.421 331.412 159.702C331.412 159.702 330.408 157.108 329.125 155.974C329.125 155.974 331.068 156.438 331.955 159.944L333.994 160.891C333.994 160.891 332.821 157.375 331.74 156.27C331.74 156.27 333.657 157.099 334.49 161.201L336.36 162.459C336.36 162.459 335.545 159.342 334.57 157.804C334.57 157.804 336.209 159.027 336.886 162.849L338.051 163.835C338.051 163.835 337.42 161.571 337.21 160.94C337 160.309 337.105 160.186 337.105 160.186C337.904 161.356 338.409 162.765 338.563 164.254C338.563 164.254 340.85 166.527 340.981 166.379Z" fill="#6C63FF"/>
<path opacity="0.1" d="M84.8994 386.699C90.2372 386.699 94.5644 386.131 94.5644 385.431C94.5644 384.731 90.2372 384.164 84.8994 384.164C79.5616 384.164 75.2345 384.731 75.2345 385.431C75.2345 386.131 79.5616 386.699 84.8994 386.699Z" fill="#6C63FF"/>
<path opacity="0.1" d="M21.5412 365.158C26.879 365.158 31.2061 364.591 31.2061 363.891C31.2061 363.191 26.879 362.624 21.5412 362.624C16.2034 362.624 11.8762 363.191 11.8762 363.891C11.8762 364.591 16.2034 365.158 21.5412 365.158Z" fill="#6C63FF"/>
<path opacity="0.1" d="M133.195 401.005C138.533 401.005 142.86 400.437 142.86 399.737C142.86 399.037 138.533 398.47 133.195 398.47C127.857 398.47 123.53 399.037 123.53 399.737C123.53 400.437 127.857 401.005 133.195 401.005Z" fill="#6C63FF"/>
<path opacity="0.1" d="M380.683 369.843C386.021 369.843 390.348 369.276 390.348 368.576C390.348 367.876 386.021 367.308 380.683 367.308C375.345 367.308 371.018 367.876 371.018 368.576C371.018 369.276 375.345 369.843 380.683 369.843Z" fill="#6C63FF"/>
<path opacity="0.1" d="M300.257 363.694C305.595 363.694 309.922 363.126 309.922 362.426C309.922 361.726 305.595 361.159 300.257 361.159C294.919 361.159 290.592 361.726 290.592 362.426C290.592 363.126 294.919 363.694 300.257 363.694Z" fill="#6C63FF"/>
<path opacity="0.1" d="M248.228 393.686C254.541 393.686 259.659 392.655 259.659 391.384C259.659 390.112 254.541 389.081 248.228 389.081C241.915 389.081 236.798 390.112 236.798 391.384C236.798 392.655 241.915 393.686 248.228 393.686Z" fill="#6C63FF"/>
<path d="M253.328 368.236C253.328 368.236 237.411 377.881 245.634 389.243C245.634 389.243 246.408 391.709 248.644 391.536C248.644 391.536 248.199 390.58 249.906 389.815C250.513 389.54 251.09 389.181 251.625 388.745C252.348 388.159 252.888 387.312 253.164 386.334C253.164 386.334 256.418 381.225 253.895 371.771C253.895 371.771 254.223 369.099 253.937 368.665L252.003 371.776C252.003 371.776 254 373.349 254.232 375.662C254.232 375.662 252.13 371.781 251.709 372.21C251.617 372.299 250.751 373.912 250.751 373.912C250.751 373.912 254.215 376.668 254.471 380.248C254.471 380.248 252.521 375.233 250.414 374.518L249.208 377.043C249.208 377.043 252.991 379.745 253.412 383.809C253.412 383.809 251.213 378.656 248.968 377.615L248.081 380.283C248.081 380.283 251.73 383.005 252.066 386.388C252.066 386.388 249.014 380.732 247.917 380.909C247.917 380.909 247.228 383.414 247.32 384.189C247.32 384.189 249.897 386.21 249.943 388.198C249.943 388.198 247.564 384.672 247.198 384.904C247.198 384.904 247.047 388.449 247.778 390.294C247.778 390.294 246.517 387.66 246.723 384.904C245.986 385.668 245.455 386.67 245.197 387.784C245.197 387.784 244.512 385.836 246.769 384.041C246.769 384.041 246.984 381.284 247.245 380.944C247.245 380.944 244.802 382.344 243.764 384.06C243.764 384.06 244.146 381.501 247.459 380.229L248.3 377.526C248.3 377.526 244.987 379.173 243.965 380.623C243.965 380.623 244.701 378.084 248.56 376.865L249.704 374.4C249.704 374.4 246.761 375.564 245.323 376.865C245.323 376.865 246.437 374.681 250.057 373.675L250.986 372.122C250.986 372.122 248.85 373.014 248.253 373.335C247.656 373.655 247.539 373.497 247.539 373.497C248.63 372.415 249.956 371.708 251.369 371.456C251.369 371.456 253.475 368.403 253.328 368.236Z" fill="#6C63FF"/>
<path d="M251.427 158.583C251.427 158.583 257.86 178.308 261.517 176.336C265.175 174.363 264.182 165.98 264.88 163.682C265.578 161.384 266.352 143.957 266.352 143.957C266.352 143.957 266.705 131.628 267.403 129.133C268.05 126.84 268.576 115.276 268.664 113.456C268.664 113.298 268.664 113.214 268.664 113.214L267.97 98.9133L264.044 97.7643L254.938 101.709L253.677 110.157L253.185 113.456L252.975 114.861L251.427 158.583Z" fill="#BE6F72"/>
<path opacity="0.1" d="M253.546 155.279C253.546 155.279 259.684 161.172 261.534 161.69C263.384 162.207 264.519 166.803 264.519 166.803" fill="black"/>
<path d="M201.127 159.446C201.127 159.446 194.695 179.171 191.037 177.199C187.38 175.226 188.372 166.843 187.674 164.545C186.976 162.247 186.203 144.819 186.203 144.819C186.203 144.819 185.85 132.491 185.152 129.996C184.504 127.703 183.979 116.139 183.891 114.319C183.891 114.161 183.891 114.077 183.891 114.077L184.588 99.7762L188.515 98.6272L197.621 102.572L198.882 111.02L199.374 114.319L199.584 115.724L201.127 159.446Z" fill="#BE6F72"/>
<path d="M243.011 53.8848H228.655V80.1345H243.011V53.8848Z" fill="#3E373A"/>
<path opacity="0.1" d="M243.011 53.8848H228.655V80.1345H243.011V53.8848Z" fill="black"/>
<path d="M198.604 179.092C198.604 179.092 193.698 185.419 195.519 186.568C197.339 187.717 209.114 209.253 209.114 209.253C209.114 209.253 247.791 214.84 255.085 206.457C262.379 198.073 262.232 183.097 262.232 183.097C262.232 183.097 256.371 184.576 255.732 183.772C255.093 182.969 251.583 179.092 251.583 179.092C251.583 179.092 201.968 175.562 198.604 179.092Z" fill="#4B4B5B"/>
<path opacity="0.02" d="M198.604 179.092C198.604 179.092 193.698 185.419 195.519 186.568C197.339 187.717 209.114 209.253 209.114 209.253C209.114 209.253 247.791 214.84 255.085 206.457C262.379 198.073 262.232 183.097 262.232 183.097C262.232 183.097 256.371 184.576 255.732 183.772C255.093 182.969 251.583 179.092 251.583 179.092C251.583 179.092 201.968 175.562 198.604 179.092Z" fill="black"/>
<path d="M268.231 99.1204L255.619 110.956L251.806 111.281L250.406 111.4L226.893 113.421L202.51 111.33L198.882 111.02L194.258 110.625L184.588 99.7762C184.588 99.7762 191.432 91.1759 197.427 85.3717C199.79 83.0786 202.022 81.2244 203.649 80.4945L203.927 80.3811C204.95 79.913 205.864 79.1658 206.592 78.2015C211.326 72.4761 215.702 58.3477 215.702 58.3477C215.702 58.3477 236.583 45.6938 234.061 62.2928C231.538 78.8918 243.448 74.7889 243.448 74.7889L247.375 76.8897L248.926 77.7231L252.882 79.8485L261.807 84.6517C268.811 88.4341 268.231 99.1204 268.231 99.1204Z" fill="#BE6F72"/>
<path opacity="0.1" d="M225.914 71.8646C236.285 71.8646 244.693 62.0021 244.693 49.8361C244.693 37.6701 236.285 27.8076 225.914 27.8076C215.542 27.8076 207.134 37.6701 207.134 49.8361C207.134 62.0021 215.542 71.8646 225.914 71.8646Z" fill="black"/>
<path opacity="0.1" d="M268.26 114.812H183.891C183.891 114.654 183.891 114.57 183.891 114.57L184.588 100.269C184.588 100.269 191.432 91.6691 197.427 85.8648L250.397 83.3992L252.861 80.3516L261.786 85.1547C268.794 88.9322 268.231 99.6185 268.231 99.6185C268.231 99.6185 269.189 112.001 268.26 114.812Z" fill="black"/>
<path d="M268.26 114.319H183.891C183.891 114.161 183.891 114.077 183.891 114.077L184.588 99.7762C184.588 99.7762 191.432 91.1759 197.427 85.3717L250.397 82.906L252.861 79.8584L261.786 84.6616C268.794 88.439 268.231 99.1253 268.231 99.1253C268.231 99.1253 269.189 111.508 268.26 114.319Z" fill="#E7C7CA"/>
<path opacity="0.1" d="M212.389 74.2169C212.389 74.2169 225.699 94.1101 243.427 73.8076C261.155 53.5051 245.391 119.092 245.391 119.092L207.134 124.418L212.389 74.2169Z" fill="black"/>
<path d="M212.389 75.2032C212.389 75.2032 225.699 95.0964 243.427 74.7939C261.155 54.4914 245.391 120.079 245.391 120.079L207.134 125.405L212.389 75.2032Z" fill="#E7C7CA"/>
<path opacity="0.1" d="M248.905 78.6945L250.313 103.889L251.823 112.272L252.975 118.683C252.975 118.683 255.917 167.997 255.077 170.463C254.236 172.928 255.497 174.901 255.674 176.213C255.85 177.524 255.497 180.818 255.636 182.298C255.774 183.777 255.636 184.433 252.415 183.906C249.195 183.378 244.705 182.461 244.705 182.461C244.705 182.461 233.355 183.447 229.432 181.805C225.51 180.163 218.082 180.158 218.082 180.158C218.082 180.158 206.87 180.488 203.229 179.995C199.588 179.502 197.621 185.257 195.241 183.61C192.862 181.963 198.041 166.024 199.723 161.418C201.404 156.812 197.482 145.145 197.482 145.145L202.527 112.317L203.649 104.875V81.4808L203.927 81.3673C204.95 80.8992 205.864 80.1521 206.592 79.1877L207.853 102.73L247.371 104.377V77.8809" fill="black"/>
<path d="M248.905 77.7083L250.313 102.903L251.823 111.286L252.975 117.697C252.975 117.697 255.917 167.011 255.077 169.476C254.236 171.942 255.497 173.915 255.674 175.226C255.85 176.538 255.497 179.832 255.636 181.312C255.774 182.791 255.636 183.447 252.415 182.919C249.195 182.392 244.705 181.474 244.705 181.474C244.705 181.474 233.355 182.461 229.432 180.819C225.51 179.176 218.082 179.171 218.082 179.171C218.082 179.171 206.87 179.502 203.229 179.009C199.588 178.516 197.621 184.271 195.241 182.623C192.862 180.976 198.041 165.038 199.723 160.432C201.404 155.826 197.482 144.159 197.482 144.159L202.527 111.33L203.649 103.889V80.4946L203.927 80.3811C204.95 79.913 205.864 79.1659 206.592 78.2015L207.853 101.744L247.371 103.391V76.8947" fill="#E7C7CA"/>
<path opacity="0.1" d="M253.45 25.13C253.21 24.0993 252.878 23.0292 252.189 22.3388C251.53 21.7843 250.77 21.4194 249.969 21.2737C248.051 20.6822 246.102 20.2439 244.134 19.9619C243.853 18.8669 243.427 17.8303 242.872 16.8897C238.753 10.0646 232.657 3.62919 225.485 2.17444C221.731 1.41007 217.38 2.09553 214.975 5.56722C213.655 7.47567 213.087 10.0055 211.755 11.8794C209.186 15.5187 204.549 15.9675 201.312 18.7833C199.584 20.2627 198.331 22.4079 197.108 24.4889C195.784 26.7426 194.422 29.0899 194.001 31.7824C193.16 37.1626 196.191 42.2912 196.751 47.7206C198.012 59.8666 186.913 70.6417 189.011 82.6249C190.234 89.6127 195.737 94.5342 201.43 97.0295C203.435 97.9122 205.726 98.79 206.664 101.049C207.084 102.035 207.155 103.174 207.551 104.17C208.879 107.494 213.247 107.622 215.593 105.201C217.939 102.779 218.679 98.864 218.956 95.2098C220.083 79.2519 214.634 63.4863 215.269 47.4889C215.458 42.6512 216.619 37.1626 220.314 34.973C225.287 32.0142 231.269 36.9456 236.743 36.0037C239.333 43.3965 239.883 51.5557 238.315 59.334C237.445 63.5898 235.94 67.7174 235.831 72.1063C235.667 78.7883 238.74 84.8934 241.397 90.8012C241.967 91.9059 242.348 93.1303 242.519 94.406C242.561 95.7004 242.356 96.9893 241.918 98.1785C240.417 102.918 237.828 107.316 237.533 112.361C237.447 112.95 237.56 113.555 237.849 114.048C238.145 114.376 238.527 114.578 238.933 114.62C243.474 115.532 247.4 110.813 249.616 106.074C252.086 100.839 253.525 95.0227 253.828 89.0505C254.286 79.0102 251.217 69.1327 251.407 59.0825C251.625 47.6565 256.027 36.1516 253.45 25.13Z" fill="black"/>
<path d="M253.87 24.6368C253.63 23.6062 253.298 22.5361 252.609 21.8457C251.95 21.2911 251.19 20.9262 250.389 20.7805C248.472 20.189 246.522 19.7508 244.554 19.4688C244.273 18.3737 243.847 17.3371 243.293 16.3965C239.173 9.57148 233.077 3.13603 225.905 1.68127C222.151 0.916907 217.8 1.60237 215.395 5.07406C214.075 6.9825 213.508 9.5123 212.175 11.3862C209.606 15.0256 204.969 15.4743 201.732 18.2902C200.004 19.7696 198.752 21.9147 197.528 23.9958C196.204 26.2494 194.842 28.5967 194.422 31.2893C193.581 36.6694 196.612 41.798 197.171 47.2275C198.432 59.3735 187.334 70.1485 189.431 82.1318C190.655 89.1196 196.158 94.0411 201.85 96.5363C203.855 97.4191 206.146 98.2969 207.084 100.555C207.504 101.542 207.576 102.681 207.971 103.677C209.299 107.001 213.667 107.129 216.013 104.708C218.359 102.286 219.099 98.3708 219.376 94.7167C220.503 78.7587 215.055 62.9931 215.689 46.9957C215.879 42.158 217.039 36.6694 220.734 34.4799C225.708 31.521 231.69 36.4524 237.163 35.5105C239.754 42.9033 240.303 51.0625 238.736 58.8409C237.865 63.0967 236.36 67.2242 236.251 71.6132C236.087 78.2952 239.16 84.4002 241.817 90.308C242.387 91.4128 242.769 92.6372 242.94 93.9128C242.982 95.2072 242.776 96.4961 242.339 97.6854C240.838 102.424 238.248 106.823 237.954 111.868C237.868 112.457 237.981 113.062 238.269 113.555C238.565 113.883 238.947 114.085 239.354 114.127C243.894 115.039 247.821 110.32 250.036 105.58C252.506 100.346 253.945 94.5295 254.248 88.5574C254.707 78.5171 251.638 68.6395 251.827 58.5894C252.045 47.1634 256.447 35.6585 253.87 24.6368Z" fill="#3E373A"/>
<path d="M244.583 242.984L261.261 243.61L258.869 229.102L246.093 230.527L244.583 242.984Z" fill="#C3C7D9"/>
<path d="M296.259 208.597C295.136 210.239 290.794 213.198 290.373 214.184C289.953 215.17 284.769 218.129 282.104 218.622C279.439 219.116 271.035 221.256 269.492 222.405C268.386 223.233 259.512 225.857 253.681 227.312C252.101 227.75 250.503 228.087 248.892 228.322C246.37 228.485 218.767 217.473 218.767 217.473L224.089 211.063L224.383 210.944C225.888 210.348 232.842 207.591 236.701 206.279C241.048 204.8 246.093 198.719 246.093 198.719C246.093 198.719 253.517 195.761 254.501 195.43C255.484 195.1 251.978 183.925 251.978 183.925C251.978 183.925 268.092 181.302 274.398 179.078C280.704 176.854 295.279 177.677 297.94 186.391C300.601 195.105 297.398 206.955 296.259 208.597Z" fill="#4B4B5B"/>
<path d="M222.828 236.375C222.828 236.375 219.608 240.321 216.383 239.995C213.159 239.67 201.884 240.981 201.884 240.981C199.84 241.937 197.927 243.238 196.204 244.843C193.568 247.279 192.168 245.336 191.908 244.922L191.861 244.843C190.457 250.026 187.237 246.076 187.237 246.076C187.237 246.076 188.637 230.295 188.208 228.323C187.779 226.35 190.978 222.962 190.978 222.962L194.762 221.833L204.347 218.953L218.082 224.54L222.828 236.375Z" fill="#E7C7CA"/>
<path opacity="0.1" d="M194.745 221.833L191.908 244.922L191.861 244.843C190.457 250.025 187.237 246.075 187.237 246.075C187.237 246.075 188.637 230.295 188.208 228.322C187.779 226.35 190.978 222.962 190.978 222.962L194.745 221.833Z" fill="black"/>
<path opacity="0.1" d="M214.58 156.157C214.58 156.157 222.004 159.116 228.453 156.157H214.58Z" fill="black"/>
<path opacity="0.1" d="M239.925 161.749C239.925 161.749 243.007 163.554 245.391 161.749H239.925Z" fill="black"/>
<path opacity="0.1" d="M239.925 166.029C239.925 166.029 245.109 166.843 246.093 165.201L239.925 166.029Z" fill="black"/>
<path opacity="0.1" d="M238.244 175.226C238.244 175.226 247.98 173.747 250.397 171.774L238.244 175.226Z" fill="black"/>
<path opacity="0.1" d="M208.534 171.774C208.534 171.774 213.999 175.389 218.065 175.226L208.534 171.774Z" fill="black"/>
<path opacity="0.1" d="M253.677 227.312C252.097 227.75 250.499 228.087 248.888 228.323C246.366 228.485 218.763 217.473 218.763 217.473L224.085 211.063L224.379 210.944C225.22 211.64 225.909 212.236 226.401 212.69C228.718 214.83 230.954 212.034 231.795 212.034C232.636 212.034 239.921 219.101 239.921 219.101C239.921 219.101 246.648 220.911 247.77 222.553C248.893 224.195 252.815 223.869 253.513 225.018C253.723 225.374 253.748 226.246 253.677 227.312Z" fill="black"/>
<path d="M201.884 184.596C201.884 184.596 195.082 185.055 191.159 183.117C187.237 181.179 174.205 176.706 170.421 179.847C166.637 182.988 157.527 185.765 161.731 198.261C165.935 210.757 167.899 211.082 167.899 211.082C169.199 212.227 170.335 213.609 171.262 215.175C172.523 217.478 184.294 222.735 187.237 222.735C190.18 222.735 195.363 222.735 202.649 228.653C209.934 234.571 216.522 235.231 216.522 235.231C216.522 235.231 225.771 239.67 228.65 240.656C231.53 241.642 244.689 245.913 247.774 244.601C250.86 243.289 252.819 235.064 252.819 235.064C252.819 235.064 254.219 227.667 253.517 226.518C252.815 225.369 248.893 225.694 247.774 224.052C246.656 222.41 239.925 220.6 239.925 220.6C239.925 220.6 232.657 213.528 231.816 213.528C230.975 213.528 228.739 216.32 226.422 214.184C221.808 210.175 216.96 206.55 211.914 203.335C206.592 200.046 201.884 184.596 201.884 184.596Z" fill="#4B4B5B"/>
<path opacity="0.1" d="M188.208 189.365C189.419 189.074 190.671 189.116 191.866 189.486C193.061 189.857 194.167 190.546 195.098 191.5C198.461 194.789 209.779 201.392 209.779 201.392" fill="black"/>
<path opacity="0.1" d="M272.296 189.157C272.296 189.157 257.3 191.82 254.501 195.435L272.296 189.157Z" fill="black"/>
<path d="M289.532 243.61H288.872C286.501 243.511 278.467 243.215 276.92 243.61C275.1 244.103 250.994 243.61 250.994 243.61L255.707 242.461C255.707 242.461 253.958 235.271 255.068 234.674C255.068 234.674 248.762 229.802 253.517 226.513C258.272 223.223 263.396 224.609 263.396 224.609L275.331 219.865L277.622 218.953C277.622 218.953 291.075 219.776 294.716 230.625C298.357 241.474 289.532 243.61 289.532 243.61Z" fill="#E7C7CA"/>
<path opacity="0.1" d="M289.532 243.61H288.872C292.786 239.822 301.64 228.293 275.331 219.89L277.622 218.978C277.622 218.978 291.075 219.801 294.716 230.65C298.357 241.499 289.532 243.61 289.532 243.61Z" fill="black"/>
<path d="M264.8 230.828C265.207 230.828 265.536 230.441 265.536 229.965C265.536 229.488 265.207 229.102 264.8 229.102C264.394 229.102 264.065 229.488 264.065 229.965C264.065 230.441 264.394 230.828 264.8 230.828Z" fill="#4B4B5B"/>
<path d="M260.525 232.253C260.931 232.253 261.261 231.866 261.261 231.39C261.261 230.913 260.931 230.527 260.525 230.527C260.119 230.527 259.789 230.913 259.789 231.39C259.789 231.866 260.119 232.253 260.525 232.253Z" fill="#4B4B5B"/>
<g opacity="0.1">
<path opacity="0.1" d="M239.694 49.0215C239.857 43.5974 239.035 38.1947 237.281 33.1721C231.816 34.1288 225.829 29.1826 220.852 32.1414C217.169 34.331 216.013 39.8196 215.807 44.6573C215.757 45.9345 215.748 47.2117 215.769 48.489C215.769 48.0353 215.769 47.5766 215.807 47.123C216 42.2853 217.157 36.7966 220.852 34.6071C225.829 31.6483 231.807 36.5797 237.281 35.6378C238.766 39.8921 239.584 44.4262 239.694 49.0215Z" fill="black"/>
<path opacity="0.1" d="M197.343 48.12C197.415 47.0455 197.397 45.9652 197.289 44.8949C196.843 40.5553 194.821 36.408 194.455 32.1769C193.984 37.2809 196.755 42.1827 197.289 47.3606C197.343 47.6269 197.343 47.8636 197.343 48.12Z" fill="black"/>
<path opacity="0.1" d="M219.494 92.3742C219.233 96.0332 218.498 99.9438 216.131 102.37C213.764 104.796 209.405 104.663 208.089 101.339C207.668 100.353 207.605 99.2041 207.197 98.2178C206.264 95.9593 203.969 95.0815 201.963 94.1988C196.267 91.6986 190.772 86.8017 189.549 79.7942C189.44 79.1594 189.365 78.517 189.326 77.871C189.223 79.3389 189.298 80.8167 189.549 82.2599C190.772 89.2477 196.275 94.1643 201.963 96.6645C203.969 97.5472 206.264 98.425 207.197 100.684C207.618 101.67 207.689 102.809 208.089 103.805C209.413 107.129 213.781 107.257 216.131 104.836C218.481 102.414 219.212 98.4989 219.494 94.8399C219.622 92.9139 219.666 90.9816 219.624 89.0504C219.624 90.1698 219.57 91.2745 219.494 92.3742Z" fill="black"/>
<path opacity="0.1" d="M251.966 56.2519C251.966 56.9669 251.966 57.677 251.966 58.3872C252.201 49.2148 255.068 39.9931 254.786 31.0131C254.568 39.3175 252.125 47.8093 251.966 56.2519Z" fill="black"/>
<path opacity="0.1" d="M242.944 93.3556C243.047 92.7704 243.08 92.1711 243.041 91.5753C242.871 90.2991 242.49 89.0743 241.918 87.9705C239.488 82.546 236.718 76.9933 236.39 70.972C236.39 71.2285 236.36 71.4652 236.356 71.7413C236.188 78.4184 239.261 84.5284 241.918 90.4362C242.37 91.3512 242.715 92.3331 242.944 93.3556Z" fill="black"/>
<path opacity="0.1" d="M254.383 86.2199C254.069 92.1944 252.62 98.0108 250.141 103.243C247.921 107.982 243.999 112.701 239.455 111.789C239.047 111.748 238.665 111.544 238.37 111.212C238.285 111.099 238.218 110.969 238.172 110.828C238.122 111.212 238.08 111.602 238.055 111.996C237.968 112.584 238.081 113.187 238.37 113.678C238.665 114.01 239.047 114.214 239.455 114.255C243.999 115.167 247.921 110.448 250.141 105.709C252.62 100.477 254.069 94.6601 254.383 88.6856C254.433 87.5317 254.437 86.3827 254.408 85.2336C254.4 85.564 254.4 85.8895 254.383 86.2199Z" fill="black"/>
</g>
<path opacity="0.1" d="M255.068 234.674C255.068 234.674 265.708 239.911 272.725 228.323" stroke="black" stroke-miterlimit="10"/>
<path opacity="0.1" d="M257.162 243.827C257.162 243.827 265.851 237.199 276.92 243.61" stroke="black" stroke-miterlimit="10"/>
<path opacity="0.1" d="M198.995 242.323C198.995 242.323 202.645 232.667 212.389 240.03" stroke="black" stroke-miterlimit="10"/>
<path opacity="0.1" d="M187.165 99.5297L194.607 91.6394C194.607 91.6394 223.458 89.4203 224.652 100.925C224.652 100.925 234.881 87.285 256.392 90.3228L265.494 98.8245L240.337 111.774L215.891 121.721L197.886 112.267L187.165 99.5297Z" fill="black"/>
<path d="M187.165 100.023L194.607 92.1326C194.607 92.1326 223.458 89.9135 224.652 101.418C224.652 101.418 234.881 87.7782 256.392 90.8159L265.494 99.3176L240.337 112.267L215.891 122.214L197.886 112.761L187.165 100.023Z" fill="#D5D6DB"/>
<path opacity="0.1" d="M183.874 101.009L187.165 147.201L222.058 149.258L220.545 103.263L220.516 102.488L183.874 101.009Z" fill="black"/>
<path d="M183.874 100.023L187.165 146.215L222.058 148.271L220.545 102.276L220.516 101.502L183.874 100.023Z" fill="#6C63FF"/>
<path opacity="0.1" d="M267.092 100.023L231.097 106.355V152.754L266.272 146.792L267.092 100.023Z" fill="black"/>
<path d="M267.092 99.0365L231.097 105.368V151.768L266.272 145.806L267.092 99.0365Z" fill="#6C63FF"/>
<path opacity="0.3" d="M258.604 110.359L239.16 112.894L239.585 120.665L258.591 118.229L258.604 110.359Z" fill="white"/>
<path d="M189.057 170.951L191.037 177.199C191.037 177.199 193.98 180.158 197.2 178.678C200.421 177.199 203.229 176.464 204.629 175.024C206.029 173.584 207.992 166.35 207.992 166.35C207.992 166.35 209.955 158.46 211.914 156.487C213.873 154.515 219.061 127.338 211.914 129.996C204.768 132.654 199.302 157.311 199.302 157.311C199.302 157.311 198.041 159.116 196.221 159.283C194.401 159.451 190.756 158.953 190.054 160.763C189.352 162.572 186.955 167.336 189.057 170.951Z" fill="#BE6F72"/>
<path opacity="0.1" d="M231.097 106.35C229.254 106.837 227.34 106.811 225.507 106.275C223.674 105.739 221.973 104.708 220.541 103.263L222.058 149.253C222.058 149.253 225.632 153.79 231.097 152.754V106.35Z" fill="black"/>
<path d="M231.097 105.364C229.254 105.851 227.34 105.825 225.507 105.289C223.674 104.753 221.973 103.721 220.541 102.276L222.058 148.267C222.058 148.267 225.632 152.803 231.097 151.768V105.364Z" fill="#6C63FF"/>
<path opacity="0.1" d="M231.097 105.364C229.254 105.851 227.34 105.825 225.507 105.289C223.674 104.753 221.973 103.721 220.541 102.276L222.058 148.267C222.058 148.267 225.632 152.803 231.097 151.768V105.364Z" fill="black"/>
<path opacity="0.1" d="M231.938 100.181C231.938 100.181 246.58 94.9287 250.397 95.6684L231.938 100.181Z" fill="black"/>
<path opacity="0.1" d="M215.559 97.8875C215.559 97.8875 201.367 93.9424 198.995 95.0618L215.559 97.8875Z" fill="black"/>
<path opacity="0.1" d="M241.17 100.837C241.17 100.837 250.961 96.6251 254.501 98.6273L241.17 100.837Z" fill="black"/>
<path opacity="0.1" d="M236.239 206.481C237.756 205.145 239.371 203.968 241.065 202.965C243.587 201.54 248.211 197.842 248.211 197.842" fill="black"/>
<path opacity="0.1" d="M198.995 156.157C198.995 156.157 192.853 162.05 191.008 162.568C189.162 163.085 188.023 167.681 188.023 167.681" fill="black"/>
<path d="M263.48 170.073L261.521 176.336C261.521 176.336 258.578 179.295 255.354 177.815C252.13 176.336 249.33 175.601 247.926 174.161C246.521 172.721 244.562 165.487 244.562 165.487C244.562 165.487 242.603 157.597 240.64 155.624C238.677 153.652 233.493 126.475 240.64 129.133C247.787 131.791 253.252 156.448 253.252 156.448C253.252 156.448 254.513 158.253 256.334 158.42C258.154 158.588 261.799 158.09 262.501 159.9C263.203 161.709 265.582 166.473 263.48 170.073Z" fill="#BE6F72"/>
<path opacity="0.1" d="M260.046 158.553C260.046 158.553 264.06 161.581 264.044 165.201L260.046 158.553Z" fill="black"/>
<path d="M225.981 70.7846C236.352 70.7846 244.76 60.9221 244.76 48.7561C244.76 36.5901 236.352 26.7277 225.981 26.7277C215.609 26.7277 207.202 36.5901 207.202 48.7561C207.202 60.9221 215.609 70.7846 225.981 70.7846Z" fill="#BE6F72"/>
<path d="M214.189 42.8434C216.467 42.4242 218.464 40.8708 220.642 39.9783C225.514 37.9712 230.904 39.347 235.835 41.1569C237.727 41.8522 239.648 42.6363 241.632 42.6363C243.616 42.6363 245.723 41.6845 246.736 39.6775C247.669 37.8331 247.488 35.4365 246.702 33.4984C245.916 31.5604 244.6 30.0021 243.272 28.5325C238.9 23.6899 233.476 19.1629 227.477 19.656C225.064 19.8582 222.756 20.8692 220.537 21.9886C217.742 23.4014 215.021 25.0086 212.389 26.8016C210.367 28.1775 206.621 30.0169 205.457 32.5319C202.808 38.198 210.069 43.6028 214.189 42.8434Z" fill="#3E373A"/>
<path opacity="0.1" d="M246.736 37.6063C245.723 39.6134 243.617 40.5652 241.632 40.5652C239.648 40.5652 237.727 39.8107 235.831 39.1153C230.899 37.3055 225.514 35.9247 220.638 37.9367C218.464 38.8293 216.463 40.4024 214.184 40.7969C210.863 41.4084 205.516 38.0156 204.936 33.7007C204.284 38.6863 210.485 42.9569 214.184 42.2763C216.463 41.8572 218.464 40.3038 220.638 39.4162C225.514 37.4041 230.899 38.7849 235.831 40.5947C237.727 41.2901 239.644 42.0742 241.632 42.0446C243.621 42.015 245.723 41.0978 246.736 39.0857C247.261 37.9912 247.468 36.7256 247.324 35.4809C247.259 36.2303 247.058 36.9548 246.736 37.6063Z" fill="black"/>
<path d="M403.759 309.735C403.759 311.081 403.628 312.171 403.473 312.171C403.317 312.171 403.183 311.081 403.183 309.735C403.183 308.388 403.343 309.024 403.502 309.024C403.662 309.024 403.759 308.388 403.759 309.735Z" fill="#FFD037"/>
<path d="M405.352 311.342C404.347 311.983 403.469 312.373 403.393 312.21C403.317 312.047 404.07 311.392 405.075 310.731C406.079 310.07 405.684 310.553 405.76 310.731C405.836 310.908 406.361 310.696 405.352 311.342Z" fill="#FFD037"/>
<path d="M381.326 309.735C381.326 311.081 381.452 312.171 381.612 312.171C381.772 312.171 381.902 311.081 381.902 309.735C381.902 308.388 381.738 309.024 381.583 309.024C381.427 309.024 381.326 308.388 381.326 309.735Z" fill="#FFD037"/>
<path d="M379.737 311.342C380.742 311.983 381.621 312.373 381.696 312.21C381.772 312.047 381.019 311.392 380.015 310.731C379.01 310.07 379.405 310.553 379.329 310.731C379.254 310.908 378.728 310.696 379.737 311.342Z" fill="#FFD037"/>
</g>
<defs>
<clipPath id="clip0">
<rect width="430" height="401" fill="white" transform="translate(0 -0.000366211)"/>
</clipPath>
</defs>
</svg>
