<svg width="164" height="231" viewBox="0 0 164 231" fill="none" xmlns="http://www.w3.org/2000/svg">
<path d="M56.3705 230.733C87.2556 230.733 112.293 205.709 112.293 174.84C112.293 143.971 87.2556 118.946 56.3705 118.946C25.4855 118.946 0.448242 143.971 0.448242 174.84C0.448242 205.709 25.4855 230.733 56.3705 230.733Z" fill="url(#paint0_linear)"/>
<path opacity="0.1" d="M67.856 222.053C96.788 222.053 120.241 219.255 120.241 215.803C120.241 212.351 96.788 209.553 67.856 209.553C38.9251 209.553 15.4717 212.351 15.4717 215.803C15.4717 219.255 38.9251 222.053 67.856 222.053Z" fill="black"/>
<path d="M83.2642 199.209H52.4492V226.794H83.2642V199.209Z" fill="#021639"/>
<path d="M123.542 205.89L121.781 215.372L133.227 217.096L140.71 212.786L140.27 205.89H123.542Z" fill="#575A89"/>
<path d="M65.8752 27.8811C65.8752 27.8811 64.9942 37.7944 62.7932 38.2254C60.5922 38.6564 67.6362 55.897 67.6362 55.897H78.2012L86.5642 53.742L82.6032 44.26C82.6032 44.26 77.3202 37.3634 81.2822 31.7602C85.2442 26.157 65.8752 27.8811 65.8752 27.8811Z" fill="#A0616A"/>
<path opacity="0.1" d="M65.8752 27.8811C65.8752 27.8811 64.9942 37.7944 62.7932 38.2254C60.5922 38.6564 67.6362 55.897 67.6362 55.897H78.2012L86.5642 53.742L82.6032 44.26C82.6032 44.26 77.3202 37.3634 81.2822 31.7602C85.2442 26.157 65.8752 27.8811 65.8752 27.8811Z" fill="black"/>
<path d="M43.7236 103.903C43.7236 103.903 32.2782 125.453 41.5225 129.764C50.767 134.074 52.968 133.643 52.968 134.936C52.968 136.229 51.207 135.798 52.087 137.953C52.968 140.108 50.327 148.728 52.968 153.9C55.609 159.072 54.729 162.952 54.729 162.952C54.729 162.952 54.729 163.383 55.609 165.107C56.49 166.831 56.93 168.124 56.49 168.986C56.049 169.848 53.408 175.451 56.049 176.744C58.691 178.037 72.337 178.899 73.658 176.744C74.978 174.589 72.337 173.296 73.658 172.003C74.978 170.71 75.859 170.279 74.978 169.417C74.098 168.555 73.217 157.779 73.217 157.779C73.217 157.779 75.419 145.28 74.538 143.556C73.658 141.832 72.337 140.108 73.217 138.815C74.098 137.522 74.978 137.953 75.419 136.229C75.859 134.505 76.739 130.626 76.739 130.626L81.581 130.195L93.027 132.35C93.027 132.35 105.793 146.142 119.879 150.452C119.879 150.452 123.841 154.331 125.162 154.331C126.483 154.331 126.483 154.331 126.042 155.193C125.602 156.055 124.282 156.055 125.162 156.917C126.042 157.779 127.363 156.486 126.483 157.779C125.602 159.072 124.722 159.072 125.602 159.935C126.483 160.797 125.162 165.538 125.162 165.969C125.162 166.4 121.2 206.915 122.521 207.777C123.841 208.639 142.33 211.225 143.651 207.777C144.971 204.329 142.77 200.019 142.77 200.019C142.77 200.019 149.373 148.297 147.613 144.849C145.852 141.401 139.689 125.884 106.673 115.971C106.673 115.971 97.429 114.247 97.429 112.954C97.429 111.661 96.548 103.472 94.788 103.041C93.027 102.61 82.902 102.179 82.902 102.179L70.136 106.058L52.528 103.041L43.7236 103.903Z" fill="#2F2E41"/>
<path d="M59.2722 176.149L57.0712 183.908C57.0712 183.908 55.3102 196.407 57.5112 199.424C59.2402 201.794 62.3272 204.696 68.0522 205.205C69.6562 205.349 71.2632 204.953 72.6062 204.081C73.9492 203.21 74.9482 201.916 75.4382 200.413C75.5042 200.233 75.5452 200.046 75.5602 199.855C75.5602 198.993 74.2392 188.649 74.2392 188.649L72.0382 177.874L71.5982 174.856L59.2722 176.149Z" fill="#2F2E41"/>
<path d="M123.543 213.217C123.543 213.217 121.342 211.062 120.902 213.217C120.461 215.372 118.701 224.423 121.782 224.854C124.864 225.285 154.357 229.596 157.439 227.871C160.52 226.147 166.243 223.561 162.721 222.268C159.2 220.975 149.075 217.096 149.075 217.096C149.075 217.096 143.352 209.769 142.472 209.338C141.591 208.907 136.749 209.769 134.548 211.493C132.347 213.217 123.543 213.217 123.543 213.217Z" fill="#2F2E41"/>
<path d="M76.4399 36.9323C83.9769 36.9323 90.087 30.9502 90.087 23.5709C90.087 16.1916 83.9769 10.2095 76.4399 10.2095C68.9039 10.2095 62.7939 16.1916 62.7939 23.5709C62.7939 30.9502 68.9039 36.9323 76.4399 36.9323Z" fill="#A0616A"/>
<path d="M75.119 53.742L69.837 48.139L63.981 36.9326C63.981 36.9326 59.712 35.6395 58.831 37.7946C57.951 39.9497 42.1035 46.846 42.1035 46.846C42.1035 46.846 46.0653 83.051 44.3045 86.499C42.5437 89.947 39.4622 103.74 42.1035 105.033C44.7447 106.326 57.071 105.033 61.032 106.757C64.994 108.481 76.44 108.481 79.521 106.326C82.603 104.171 83.483 102.447 86.564 103.74C89.188 104.84 95.32 67.207 97.086 55.992C97.235 55.05 97.111 54.086 96.73 53.209C96.348 52.332 95.723 51.578 94.926 51.031C90.976 48.318 83.862 43.6433 82.603 44.26C80.842 45.122 75.119 53.742 75.119 53.742Z" fill="#575A89"/>
<path d="M94.0478 52.0181C95.0818 52.2711 96.0118 52.8271 96.7128 53.6131C97.4138 54.3981 97.8528 55.3751 97.9708 56.4121L101.532 87.7921C101.532 87.7921 92.7278 106.325 88.3258 93.8261C83.9238 81.3261 94.0478 52.0181 94.0478 52.0181Z" fill="#575A89"/>
<path d="M93.1678 90.8091L102.853 88.2231C102.853 88.2231 104.613 100.292 106.374 100.292C108.135 100.292 100.211 107.188 96.2488 106.326C92.2878 105.464 86.5648 102.447 86.1248 100.292C85.6838 98.1361 90.0868 89.0851 90.0868 89.0851L93.1678 90.8091Z" fill="#575A89"/>
<path d="M66.1377 29.3347C67.0657 27.3314 66.9047 24.9946 67.6717 22.9271C68.0827 21.82 68.7497 20.8209 69.6197 20.0078C70.4897 19.1947 71.5407 18.5897 72.6897 18.24C73.8377 17.8903 75.0537 17.8053 76.2417 17.9918C77.4297 18.1782 78.5577 18.6311 79.5367 19.3149C80.5237 20.0038 81.5127 20.9718 82.7177 20.8402C84.0147 20.6986 85.1717 19.2817 86.3647 19.801C87.6867 20.3765 87.3297 22.696 88.6687 23.2317C89.3737 23.5137 90.2067 23.0795 90.6127 22.4491C90.9687 21.7867 91.1617 21.0525 91.1787 20.3043C91.3637 18.466 91.5307 16.5205 90.7167 14.8542C90.3737 14.2894 90.0757 13.7001 89.8237 13.0914C89.6807 12.5229 89.6237 11.9371 89.6537 11.3525C89.6467 9.19178 89.4857 6.93798 88.3747 5.07078C87.1427 2.99888 84.8647 1.67399 82.4877 1.09589C80.1107 0.517785 77.6207 0.606484 75.1807 0.808684C71.1477 1.14308 66.9407 1.85978 63.7627 4.31498C63.3307 4.62398 62.9587 5.00638 62.6647 5.44408C62.3857 5.96398 62.1887 6.52218 62.0807 7.09978C61.3937 9.83938 60.3627 12.4853 59.0137 14.9775C58.3637 16.034 57.8337 17.1562 57.4307 18.3245C57.0937 19.5117 57.1167 20.8646 57.8217 21.885C58.3957 22.7158 59.3147 23.1585 60.0357 23.8377C60.7507 24.5107 61.0847 25.805 61.8767 26.3146C62.5677 26.7595 63.3957 26.4455 64.1017 26.917C65.0067 27.5223 65.0717 28.8497 66.1377 29.3347Z" fill="#2F2E41"/>
<path d="M77.3203 60.2071L78.6413 57.6211C78.6413 57.6211 98.0103 63.2241 101.972 68.3961C101.972 68.3961 111.657 62.3621 116.939 63.2241L122.222 64.0861L105.934 78.3101L85.2443 76.5861L77.3203 60.2071Z" fill="#F2F2F2"/>
<path d="M76.4396 57.6211L58.3916 82.1891L84.3636 94.6881C84.3636 94.6881 86.7916 95.9811 88.6586 94.6881L105.934 86.9301L122.222 64.0861L105.934 72.2761C105.934 72.2761 104.173 68.8271 100.652 70.5511L76.4396 57.6211Z" fill="#877DFB"/>
<path d="M104.174 101.153L107.695 92.1018C107.695 92.1018 115.619 82.1888 111.217 77.4468C106.815 72.7058 101.973 91.2398 101.973 91.2398L104.174 101.153Z" fill="#A0616A"/>
<path d="M63.541 99.7088L71.225 93.6088C71.225 93.6088 83.159 88.9258 81.781 82.6628C80.402 76.3988 66.717 90.0518 66.717 90.0518L63.541 99.7088Z" fill="#A0616A"/>
<path opacity="0.1" d="M44.5251 56.1122H44.0849C44.0849 56.1122 37.2616 48.1382 35.941 58.9142C34.6204 69.6892 30.2183 105.463 41.6637 106.756C53.109 108.049 61.253 101.369 61.253 101.369C61.253 101.369 69.617 88.8693 66.535 88.8693C65.045 88.8693 60.99 88.2143 57.291 88.4383C53.346 88.6783 49.8 89.7663 50.028 88.6543C50.468 86.4993 56.851 59.1292 44.5251 56.1122Z" fill="black"/>
<path d="M43.8646 47.7082L42.1038 46.8462C42.1038 46.8462 35.0605 48.1392 33.7398 58.9142C32.4192 69.6892 28.0171 105.464 39.4625 106.757C50.908 108.05 66.315 105.033 66.315 105.033C66.315 105.033 69.397 88.6542 66.315 88.6542C63.234 88.6542 47.3863 90.8092 47.8265 88.6542C48.2667 86.4992 56.19 50.7252 43.8646 47.7082Z" fill="#575A89"/>
<path d="M97.79 96.1971L102.644 88.9121L105.714 100.938L97.79 104.386V96.1971Z" fill="#575A89"/>
<defs>
<linearGradient id="paint0_linear" x1="31.8761" y1="121.294" x2="112.233" y2="251.675" gradientUnits="userSpaceOnUse">
<stop stop-color="#5E20E4"/>
<stop offset="1" stop-color="#5E20E4" stop-opacity="0"/>
</linearGradient>
</defs>
</svg>
