<svg width="1756" height="629" viewBox="0 0 1756 629" fill="none" xmlns="http://www.w3.org/2000/svg">
<g clip-path="url(#clip0_1193_7)">
<path d="M88.1 393.35C75.2 393.35 65 389.6 57.5 382.1C50 374.6 46.25 364.4 46.25 351.5V118.4C49.85 117.8 55.1 117.05 62 116.15C68.9 114.95 75.8 114.35 82.7 114.35C97.7 114.35 108.5 116.9 115.1 122C121.7 127.1 125 137 125 151.7V329.9H228.05C230.15 333.2 232.1 337.55 233.9 342.95C235.7 348.35 236.6 354.2 236.6 360.5C236.6 371.6 234.2 379.85 229.4 385.25C224.6 390.65 218 393.35 209.6 393.35H88.1ZM282.901 336.2C279.601 328.7 276.001 320.3 272.101 311C268.501 301.7 264.601 291.05 260.401 279.05C256.501 267.05 252.301 253.4 247.801 238.1C243.601 222.5 239.101 204.65 234.301 184.55C238.501 180.35 244.051 176.75 250.951 173.75C258.151 170.45 265.951 168.8 274.351 168.8C284.851 168.8 293.551 171.05 300.451 175.55C307.351 179.75 312.451 187.85 315.751 199.85C321.751 220.85 327.601 241.7 333.301 262.4C339.301 282.8 345.301 303.2 351.301 323.6H353.101C356.701 313.4 360.151 302.3 363.451 290.3C367.051 278.3 370.501 266 373.801 253.4C377.101 240.5 380.101 227.75 382.801 215.15C385.801 202.25 388.351 189.65 390.451 177.35C395.551 174.65 400.801 172.55 406.201 171.05C411.601 169.55 417.301 168.8 423.301 168.8C433.801 168.8 442.951 171.05 450.751 175.55C458.551 180.05 462.451 187.85 462.451 198.95C462.451 210.95 460.501 225.35 456.601 242.15C453.001 258.65 448.201 275.9 442.201 293.9C436.201 311.6 429.451 329 421.951 346.1C414.451 363.2 406.951 378.2 399.451 391.1C382.351 420.5 366.601 442.1 352.201 455.9C338.101 470 323.701 477.05 309.001 477.05C297.001 477.05 286.951 473.3 278.851 465.8C270.751 458.3 265.951 448.55 264.451 436.55C274.051 428.45 283.651 419.3 293.251 409.1C302.851 398.9 311.251 388.55 318.451 378.05C313.351 376.55 307.801 373.1 301.801 367.7C296.101 362 289.801 351.5 282.901 336.2ZM585.758 343.4C590.858 343.4 596.408 342.95 602.408 342.05C608.708 340.85 613.358 339.35 616.358 337.55V301.55L583.958 304.25C575.558 304.85 568.658 306.65 563.258 309.65C557.858 312.65 555.158 317.15 555.158 323.15C555.158 329.15 557.408 334.1 561.908 338C566.708 341.6 574.658 343.4 585.758 343.4ZM582.158 166.55C598.358 166.55 613.058 168.2 626.258 171.5C639.758 174.8 651.158 179.9 660.458 186.8C670.058 193.4 677.408 201.95 682.508 212.45C687.608 222.65 690.158 234.8 690.158 248.9V349.7C690.158 357.5 687.908 363.95 683.408 369.05C679.208 373.85 674.108 378.05 668.108 381.65C648.608 393.35 621.158 399.2 585.758 399.2C569.858 399.2 555.458 397.7 542.558 394.7C529.958 391.7 519.008 387.2 509.708 381.2C500.708 375.2 493.658 367.55 488.558 358.25C483.758 348.95 481.358 338.15 481.358 325.85C481.358 305.15 487.508 289.25 499.808 278.15C512.108 267.05 531.158 260.15 556.958 257.45L615.908 251.15V248C615.908 239.3 612.008 233.15 604.208 229.55C596.708 225.65 585.758 223.7 571.358 223.7C560.258 223.7 549.158 224.9 538.058 227.3C527.258 229.7 517.508 232.7 508.808 236.3C504.908 233.6 501.608 229.55 498.908 224.15C496.208 218.45 494.858 212.6 494.858 206.6C494.858 198.8 496.658 192.65 500.258 188.15C504.158 183.35 510.008 179.3 517.808 176C526.508 172.7 536.708 170.3 548.408 168.8C560.408 167.3 571.658 166.55 582.158 166.55Z" fill="white"/>
<path d="M956.983 189.05C956.983 202.55 953.383 214.25 946.183 224.15C939.283 234.05 928.783 242 914.683 248C932.083 253.7 945.133 262.25 953.833 273.65C962.533 285.05 966.883 298.55 966.883 314.15C966.883 342.65 956.533 363.8 935.833 377.6C915.133 391.4 885.133 398.3 845.833 398.3C840.133 398.3 833.983 398.15 827.383 397.85C821.083 397.55 814.633 396.95 808.033 396.05C801.433 395.45 794.833 394.4 788.233 392.9C781.633 391.7 775.483 390.2 769.783 388.4C755.383 383.6 748.183 374.75 748.183 361.85V141.8C748.183 136.1 749.683 131.75 752.683 128.75C755.683 125.75 759.883 123.35 765.283 121.55C775.483 118.25 787.333 116 800.833 114.8C814.333 113.3 828.433 112.55 843.133 112.55C879.433 112.55 907.483 118.85 927.283 131.45C947.083 143.75 956.983 162.95 956.983 189.05ZM907.483 311.9C907.483 299.9 903.133 290.45 894.433 283.55C886.033 276.65 873.733 273.2 857.533 273.2H804.883V348.35C810.583 349.85 817.333 350.9 825.133 351.5C833.233 352.1 841.183 352.4 848.983 352.4C867.283 352.4 881.533 349.25 891.733 342.95C902.233 336.35 907.483 326 907.483 311.9ZM804.883 230.45H850.333C866.533 230.45 878.533 227.15 886.333 220.55C894.433 213.95 898.483 204.8 898.483 193.1C898.483 169.4 880.183 157.55 843.583 157.55C836.083 157.55 828.883 157.85 821.983 158.45C815.383 159.05 809.683 159.8 804.883 160.7V230.45ZM1224.93 285.35C1224.93 302.75 1222.23 318.5 1216.83 332.6C1211.73 346.4 1204.38 358.25 1194.78 368.15C1185.18 378.05 1173.63 385.7 1160.13 391.1C1146.63 396.2 1131.48 398.75 1114.68 398.75C1097.88 398.75 1082.73 396.2 1069.23 391.1C1055.73 385.7 1044.18 378.2 1034.58 368.6C1024.98 358.7 1017.48 346.85 1012.08 333.05C1006.98 318.95 1004.43 303.05 1004.43 285.35C1004.43 267.95 1006.98 252.35 1012.08 238.55C1017.48 224.45 1024.98 212.6 1034.58 203C1044.48 193.1 1056.18 185.6 1069.68 180.5C1083.18 175.1 1098.18 172.4 1114.68 172.4C1131.18 172.4 1146.18 175.1 1159.68 180.5C1173.18 185.6 1184.73 193.1 1194.33 203C1204.23 212.9 1211.73 224.9 1216.83 239C1222.23 252.8 1224.93 268.25 1224.93 285.35ZM1114.68 217.4C1098.48 217.4 1085.73 223.4 1076.43 235.4C1067.13 247.1 1062.48 263.75 1062.48 285.35C1062.48 307.25 1066.98 324.05 1075.98 335.75C1085.28 347.45 1098.18 353.3 1114.68 353.3C1131.18 353.3 1143.93 347.45 1152.93 335.75C1162.23 323.75 1166.88 306.95 1166.88 285.35C1166.88 263.75 1162.23 247.1 1152.93 235.4C1143.63 223.4 1130.88 217.4 1114.68 217.4ZM1481.57 285.35C1481.57 302.75 1478.87 318.5 1473.47 332.6C1468.37 346.4 1461.02 358.25 1451.42 368.15C1441.82 378.05 1430.27 385.7 1416.77 391.1C1403.27 396.2 1388.12 398.75 1371.32 398.75C1354.52 398.75 1339.37 396.2 1325.87 391.1C1312.37 385.7 1300.82 378.2 1291.22 368.6C1281.62 358.7 1274.12 346.85 1268.72 333.05C1263.62 318.95 1261.07 303.05 1261.07 285.35C1261.07 267.95 1263.62 252.35 1268.72 238.55C1274.12 224.45 1281.62 212.6 1291.22 203C1301.12 193.1 1312.82 185.6 1326.32 180.5C1339.82 175.1 1354.82 172.4 1371.32 172.4C1387.82 172.4 1402.82 175.1 1416.32 180.5C1429.82 185.6 1441.37 193.1 1450.97 203C1460.87 212.9 1468.37 224.9 1473.47 239C1478.87 252.8 1481.57 268.25 1481.57 285.35ZM1371.32 217.4C1355.12 217.4 1342.37 223.4 1333.07 235.4C1323.77 247.1 1319.12 263.75 1319.12 285.35C1319.12 307.25 1323.62 324.05 1332.62 335.75C1341.92 347.45 1354.82 353.3 1371.32 353.3C1387.82 353.3 1400.57 347.45 1409.57 335.75C1418.87 323.75 1423.52 306.95 1423.52 285.35C1423.52 263.75 1418.87 247.1 1409.57 235.4C1400.27 223.4 1387.52 217.4 1371.32 217.4ZM1586.11 391.55C1583.41 392.15 1579.81 392.9 1575.31 393.8C1570.81 394.7 1565.71 395.15 1560.01 395.15C1549.51 395.15 1541.71 393.2 1536.61 389.3C1531.51 385.4 1528.96 378.5 1528.96 368.6V99.5C1531.36 98.6 1534.81 97.85 1539.31 97.25C1544.11 96.35 1549.36 95.9 1555.06 95.9C1565.56 95.9 1573.36 97.85 1578.46 101.75C1583.56 105.65 1586.11 112.55 1586.11 122.45V261.95L1673.41 175.1C1684.81 175.1 1693.96 177.65 1700.86 182.75C1707.76 187.85 1711.21 194.3 1711.21 202.1C1711.21 209 1708.96 215 1704.46 220.1C1700.26 225.2 1693.51 231.65 1684.21 239.45L1635.61 281.75L1721.56 362.3C1720.36 372.8 1717.21 381.05 1712.11 387.05C1707.01 392.75 1699.66 395.6 1690.06 395.6C1683.16 395.6 1677.01 393.95 1671.61 390.65C1666.51 387.35 1660.21 381.5 1652.71 373.1L1586.11 299.3V391.55Z" fill="#5E20E4"/>
<path d="M1446.6 408C1455.2 408 1462.1 409.65 1467.3 412.95C1472.6 416.25 1475.25 421.55 1475.25 428.85C1475.25 432.45 1474.2 435.4 1472.1 437.7C1470 439.9 1467.15 441 1463.55 441C1460.05 441 1457.45 440.2 1455.75 438.6C1456.55 436.4 1456.95 433.9 1456.95 431.1C1456.95 422.3 1453.05 417.9 1445.25 417.9C1441.45 417.9 1438.45 418.85 1436.25 420.75C1434.15 422.55 1433.1 425.25 1433.1 428.85C1433.1 432.15 1433.95 435.15 1435.65 437.85C1437.35 440.55 1439.45 442.95 1441.95 445.05C1444.55 447.15 1448.05 449.7 1452.45 452.7C1457.65 456.2 1461.8 459.35 1464.9 462.15C1468.1 464.85 1470.8 468.15 1473 472.05C1475.2 475.85 1476.3 480.25 1476.3 485.25C1476.3 494.15 1473.25 501.05 1467.15 505.95C1461.05 510.85 1453.15 513.3 1443.45 513.3C1434.65 513.3 1427.35 511.55 1421.55 508.05C1415.85 504.45 1413 498.9 1413 491.4C1413 487.8 1414.05 484.9 1416.15 482.7C1418.25 480.4 1421.05 479.25 1424.55 479.25C1428.05 479.25 1430.65 480.05 1432.35 481.65C1431.65 483.65 1431.3 486.15 1431.3 489.15C1431.3 498.65 1435.8 503.4 1444.8 503.4C1449.2 503.4 1452.8 502.2 1455.6 499.8C1458.4 497.3 1459.8 493.95 1459.8 489.75C1459.8 486.45 1458.95 483.45 1457.25 480.75C1455.55 478.05 1453.4 475.65 1450.8 473.55C1448.3 471.45 1444.85 468.9 1440.45 465.9C1435.25 462.4 1431.05 459.3 1427.85 456.6C1424.75 453.8 1422.1 450.5 1419.9 446.7C1417.7 442.8 1416.6 438.35 1416.6 433.35C1416.6 425.35 1419.4 419.15 1425 414.75C1430.7 410.25 1437.9 408 1446.6 408ZM1498.9 494.1C1502.2 494.1 1504.85 494.9 1506.85 496.5C1508.85 498.1 1509.85 500.4 1509.85 503.4C1509.85 506.5 1508.75 508.85 1506.55 510.45C1504.45 512.15 1501.75 513 1498.45 513C1495.15 513 1492.5 512.2 1490.5 510.6C1488.5 509 1487.5 506.7 1487.5 503.7C1487.5 500.6 1488.55 498.25 1490.65 496.65C1492.85 494.95 1495.6 494.1 1498.9 494.1ZM1566.73 411L1592.38 510H1574.68L1568.68 484.8H1539.28L1533.43 510H1516.93L1544.38 411H1566.73ZM1541.98 473.7H1566.13L1553.98 422.25L1541.98 473.7ZM1610.52 494.1C1613.82 494.1 1616.47 494.9 1618.47 496.5C1620.47 498.1 1621.47 500.4 1621.47 503.4C1621.47 506.5 1620.37 508.85 1618.17 510.45C1616.07 512.15 1613.37 513 1610.07 513C1606.77 513 1604.12 512.2 1602.12 510.6C1600.12 509 1599.12 506.7 1599.12 503.7C1599.12 500.6 1600.17 498.25 1602.27 496.65C1604.47 494.95 1607.22 494.1 1610.52 494.1ZM1671.3 418.5C1663.7 418.5 1658.65 422.5 1656.15 430.5C1653.75 438.4 1652.55 448.3 1652.55 460.2C1652.55 472.1 1653.85 481.65 1656.45 488.85C1659.05 495.95 1664.5 499.5 1672.8 499.5C1678 499.5 1682.45 498.05 1686.15 495.15C1689.85 492.25 1692.5 488.25 1694.1 483.15C1696.2 483.85 1697.7 484.95 1698.6 486.45C1699.5 487.85 1699.95 489.7 1699.95 492C1699.95 496.5 1698.55 500.35 1695.75 503.55C1693.05 506.75 1689.5 509.15 1685.1 510.75C1680.8 512.45 1676.2 513.3 1671.3 513.3C1657.7 513.3 1648 508.6 1642.2 499.2C1636.5 489.8 1633.65 477.05 1633.65 460.95C1633.65 444.95 1636.7 432.15 1642.8 422.55C1649 412.85 1658.95 408 1672.65 408C1681.45 408 1688.45 409.75 1693.65 413.25C1698.95 416.75 1701.6 422.3 1701.6 429.9C1701.6 433.5 1700.55 436.45 1698.45 438.75C1696.35 440.95 1693.5 442.05 1689.9 442.05C1686.4 442.05 1683.8 441.25 1682.1 439.65C1682.9 437.45 1683.3 434.95 1683.3 432.15C1683.3 423.05 1679.3 418.5 1671.3 418.5Z" fill="white"/>
</g>
<defs>
<clipPath id="clip0_1193_7">
<rect width="1756" height="629" fill="white"/>
</clipPath>
</defs>
</svg>
