<svg width="116" height="53" viewBox="0 0 116 53" fill="none" xmlns="http://www.w3.org/2000/svg">
<path d="M5.74 41.09C4.88 41.09 4.2 40.84 3.7 40.34C3.2 39.84 2.95 39.16 2.95 38.3V22.76C3.19 22.72 3.54 22.67 4 22.61C4.46 22.53 4.92 22.49 5.38 22.49C6.38 22.49 7.1 22.66 7.54 23C7.98 23.34 8.2 24 8.2 24.98V36.86H15.07C15.21 37.08 15.34 37.37 15.46 37.73C15.58 38.09 15.64 38.48 15.64 38.9C15.64 39.64 15.48 40.19 15.16 40.55C14.84 40.91 14.4 41.09 13.84 41.09H5.74ZM18.7267 37.28C18.5067 36.78 18.2667 36.22 18.0067 35.6C17.7667 34.98 17.5067 34.27 17.2267 33.47C16.9667 32.67 16.6867 31.76 16.3867 30.74C16.1067 29.7 15.8067 28.51 15.4867 27.17C15.7667 26.89 16.1367 26.65 16.5967 26.45C17.0767 26.23 17.5967 26.12 18.1567 26.12C18.8567 26.12 19.4367 26.27 19.8967 26.57C20.3567 26.85 20.6967 27.39 20.9167 28.19C21.3167 29.59 21.7067 30.98 22.0867 32.36C22.4867 33.72 22.8867 35.08 23.2867 36.44H23.4067C23.6467 35.76 23.8767 35.02 24.0967 34.22C24.3367 33.42 24.5667 32.6 24.7867 31.76C25.0067 30.9 25.2067 30.05 25.3867 29.21C25.5867 28.35 25.7567 27.51 25.8967 26.69C26.2367 26.51 26.5867 26.37 26.9467 26.27C27.3067 26.17 27.6867 26.12 28.0867 26.12C28.7867 26.12 29.3967 26.27 29.9167 26.57C30.4367 26.87 30.6967 27.39 30.6967 28.13C30.6967 28.93 30.5667 29.89 30.3067 31.01C30.0667 32.11 29.7467 33.26 29.3467 34.46C28.9467 35.64 28.4967 36.8 27.9967 37.94C27.4967 39.08 26.9967 40.08 26.4967 40.94C25.3567 42.9 24.3067 44.34 23.3467 45.26C22.4067 46.2 21.4467 46.67 20.4667 46.67C19.6667 46.67 18.9967 46.42 18.4567 45.92C17.9167 45.42 17.5967 44.77 17.4967 43.97C18.1367 43.43 18.7767 42.82 19.4167 42.14C20.0567 41.46 20.6167 40.77 21.0967 40.07C20.7567 39.97 20.3867 39.74 19.9867 39.38C19.6067 39 19.1867 38.3 18.7267 37.28ZM38.9172 37.76C39.2572 37.76 39.6272 37.73 40.0272 37.67C40.4472 37.59 40.7572 37.49 40.9572 37.37V34.97L38.7972 35.15C38.2372 35.19 37.7772 35.31 37.4172 35.51C37.0572 35.71 36.8772 36.01 36.8772 36.41C36.8772 36.81 37.0272 37.14 37.3272 37.4C37.6472 37.64 38.1772 37.76 38.9172 37.76ZM38.6772 25.97C39.7572 25.97 40.7372 26.08 41.6172 26.3C42.5172 26.52 43.2772 26.86 43.8972 27.32C44.5372 27.76 45.0272 28.33 45.3672 29.03C45.7072 29.71 45.8772 30.52 45.8772 31.46V38.18C45.8772 38.7 45.7272 39.13 45.4272 39.47C45.1472 39.79 44.8072 40.07 44.4072 40.31C43.1072 41.09 41.2772 41.48 38.9172 41.48C37.8572 41.48 36.8972 41.38 36.0372 41.18C35.1972 40.98 34.4672 40.68 33.8472 40.28C33.2472 39.88 32.7772 39.37 32.4372 38.75C32.1172 38.13 31.9572 37.41 31.9572 36.59C31.9572 35.21 32.3672 34.15 33.1872 33.41C34.0072 32.67 35.2772 32.21 36.9972 32.03L40.9272 31.61V31.4C40.9272 30.82 40.6672 30.41 40.1472 30.17C39.6472 29.91 38.9172 29.78 37.9572 29.78C37.2172 29.78 36.4772 29.86 35.7372 30.02C35.0172 30.18 34.3672 30.38 33.7872 30.62C33.5272 30.44 33.3072 30.17 33.1272 29.81C32.9472 29.43 32.8572 29.04 32.8572 28.64C32.8572 28.12 32.9772 27.71 33.2172 27.41C33.4772 27.09 33.8672 26.82 34.3872 26.6C34.9672 26.38 35.6472 26.22 36.4272 26.12C37.2272 26.02 37.9772 25.97 38.6772 25.97Z" fill="#F9F9FF"/>
<path d="M63.6655 27.47C63.6655 28.37 63.4255 29.15 62.9455 29.81C62.4855 30.47 61.7855 31 60.8455 31.4C62.0055 31.78 62.8755 32.35 63.4555 33.11C64.0355 33.87 64.3255 34.77 64.3255 35.81C64.3255 37.71 63.6355 39.12 62.2555 40.04C60.8755 40.96 58.8755 41.42 56.2555 41.42C55.8755 41.42 55.4655 41.41 55.0255 41.39C54.6055 41.37 54.1755 41.33 53.7355 41.27C53.2955 41.23 52.8555 41.16 52.4155 41.06C51.9755 40.98 51.5655 40.88 51.1855 40.76C50.2255 40.44 49.7455 39.85 49.7455 38.99V24.32C49.7455 23.94 49.8455 23.65 50.0455 23.45C50.2455 23.25 50.5255 23.09 50.8855 22.97C51.5655 22.75 52.3555 22.6 53.2555 22.52C54.1555 22.42 55.0955 22.37 56.0755 22.37C58.4955 22.37 60.3655 22.79 61.6855 23.63C63.0055 24.45 63.6655 25.73 63.6655 27.47ZM60.3655 35.66C60.3655 34.86 60.0755 34.23 59.4955 33.77C58.9355 33.31 58.1155 33.08 57.0355 33.08H53.5255V38.09C53.9055 38.19 54.3555 38.26 54.8755 38.3C55.4155 38.34 55.9455 38.36 56.4655 38.36C57.6855 38.36 58.6355 38.15 59.3155 37.73C60.0155 37.29 60.3655 36.6 60.3655 35.66ZM53.5255 30.23H56.5555C57.6355 30.23 58.4355 30.01 58.9555 29.57C59.4955 29.13 59.7655 28.52 59.7655 27.74C59.7655 26.16 58.5455 25.37 56.1055 25.37C55.6055 25.37 55.1255 25.39 54.6655 25.43C54.2255 25.47 53.8455 25.52 53.5255 25.58V30.23ZM81.5289 33.89C81.5289 35.05 81.3489 36.1 80.9889 37.04C80.6489 37.96 80.1589 38.75 79.5189 39.41C78.8789 40.07 78.1089 40.58 77.2089 40.94C76.3089 41.28 75.2989 41.45 74.1789 41.45C73.0589 41.45 72.0489 41.28 71.1489 40.94C70.2489 40.58 69.4789 40.08 68.8389 39.44C68.1989 38.78 67.6989 37.99 67.3389 37.07C66.9989 36.13 66.8289 35.07 66.8289 33.89C66.8289 32.73 66.9989 31.69 67.3389 30.77C67.6989 29.83 68.1989 29.04 68.8389 28.4C69.4989 27.74 70.2789 27.24 71.1789 26.9C72.0789 26.54 73.0789 26.36 74.1789 26.36C75.2789 26.36 76.2789 26.54 77.1789 26.9C78.0789 27.24 78.8489 27.74 79.4889 28.4C80.1489 29.06 80.6489 29.86 80.9889 30.8C81.3489 31.72 81.5289 32.75 81.5289 33.89ZM74.1789 29.36C73.0989 29.36 72.2489 29.76 71.6289 30.56C71.0089 31.34 70.6989 32.45 70.6989 33.89C70.6989 35.35 70.9989 36.47 71.5989 37.25C72.2189 38.03 73.0789 38.42 74.1789 38.42C75.2789 38.42 76.1289 38.03 76.7289 37.25C77.3489 36.45 77.6589 35.33 77.6589 33.89C77.6589 32.45 77.3489 31.34 76.7289 30.56C76.1089 29.76 75.2589 29.36 74.1789 29.36ZM98.6383 33.89C98.6383 35.05 98.4583 36.1 98.0983 37.04C97.7583 37.96 97.2683 38.75 96.6283 39.41C95.9883 40.07 95.2183 40.58 94.3183 40.94C93.4183 41.28 92.4083 41.45 91.2883 41.45C90.1683 41.45 89.1583 41.28 88.2583 40.94C87.3583 40.58 86.5883 40.08 85.9483 39.44C85.3083 38.78 84.8083 37.99 84.4483 37.07C84.1083 36.13 83.9383 35.07 83.9383 33.89C83.9383 32.73 84.1083 31.69 84.4483 30.77C84.8083 29.83 85.3083 29.04 85.9483 28.4C86.6083 27.74 87.3883 27.24 88.2883 26.9C89.1883 26.54 90.1883 26.36 91.2883 26.36C92.3883 26.36 93.3883 26.54 94.2883 26.9C95.1883 27.24 95.9583 27.74 96.5983 28.4C97.2583 29.06 97.7583 29.86 98.0983 30.8C98.4583 31.72 98.6383 32.75 98.6383 33.89ZM91.2883 29.36C90.2083 29.36 89.3583 29.76 88.7383 30.56C88.1183 31.34 87.8083 32.45 87.8083 33.89C87.8083 35.35 88.1083 36.47 88.7083 37.25C89.3283 38.03 90.1883 38.42 91.2883 38.42C92.3883 38.42 93.2383 38.03 93.8383 37.25C94.4583 36.45 94.7683 35.33 94.7683 33.89C94.7683 32.45 94.4583 31.34 93.8383 30.56C93.2183 29.76 92.3683 29.36 91.2883 29.36ZM105.608 40.97C105.428 41.01 105.188 41.06 104.888 41.12C104.588 41.18 104.248 41.21 103.868 41.21C103.168 41.21 102.648 41.08 102.308 40.82C101.968 40.56 101.798 40.1 101.798 39.44V21.5C101.958 21.44 102.188 21.39 102.488 21.35C102.808 21.29 103.158 21.26 103.538 21.26C104.238 21.26 104.758 21.39 105.098 21.65C105.438 21.91 105.608 22.37 105.608 23.03V32.33L111.428 26.54C112.188 26.54 112.798 26.71 113.258 27.05C113.718 27.39 113.948 27.82 113.948 28.34C113.948 28.8 113.798 29.2 113.498 29.54C113.218 29.88 112.768 30.31 112.148 30.83L108.908 33.65L114.638 39.02C114.558 39.72 114.348 40.27 114.008 40.67C113.668 41.05 113.178 41.24 112.538 41.24C112.078 41.24 111.668 41.13 111.308 40.91C110.968 40.69 110.548 40.3 110.048 39.74L105.608 34.82V40.97Z" fill="#5E20E4"/>
<path d="M14.2422 12.2202L14.2568 11.7222C14.2666 11.4097 14.2959 11.0679 14.3447 10.6968L14.4619 9.83252C14.4863 9.62744 14.5107 9.44189 14.5352 9.27588C14.0713 9.78369 13.6978 10.1792 13.4146 10.4624L12.5723 11.2827C10.6875 13.0454 9.56445 13.9268 9.20312 13.9268C8.6709 13.9268 8.11182 13.812 7.52588 13.5825C7.2085 13.4556 7.02783 13.3237 6.98389 13.187C6.91553 13.0161 6.88135 12.7842 6.88135 12.4912C6.88135 12.1934 6.89111 11.9199 6.91064 11.6709C6.93018 11.4219 6.95459 11.1753 6.98389 10.9312C7.01318 10.6821 7.04248 10.4453 7.07178 10.2207C7.10596 9.99121 7.13281 9.79102 7.15234 9.62012C7.20117 9.23438 7.21094 9.0415 7.18164 9.0415L4.45703 12.3887C3.17285 13.8975 2.44287 14.7324 2.26709 14.8936C1.89111 15.2354 1.47607 15.4062 1.02197 15.4062C0.797363 15.4062 0.611816 15.3501 0.465332 15.2378C0.318848 15.1255 0.245605 14.9863 0.245605 14.8203C0.245605 14.4883 0.384766 14.1416 0.663086 13.7803L7.16699 5.51123L7.92871 4.5957C8.83691 3.52637 9.43262 2.9917 9.71582 2.9917C10.1113 2.9917 10.4873 3.0918 10.8438 3.29199C11.1611 3.46777 11.3418 3.63867 11.3857 3.80469C11.4053 3.86816 11.3638 4.16357 11.2612 4.69092L11.0049 6.0752C10.7168 7.61816 10.5728 8.61426 10.5728 9.06348C10.5728 9.50781 10.624 9.72998 10.7266 9.72998C11.0586 9.72998 11.6982 9.18555 12.6455 8.09668L15.0186 5.25488C15.541 4.6543 15.8877 4.3125 16.0586 4.22949C16.1074 4.20508 16.1782 4.19287 16.271 4.19287C16.3638 4.19287 16.4663 4.20508 16.5786 4.22949C16.6958 4.25391 16.813 4.28564 16.9302 4.32471C17.0522 4.36377 17.1694 4.41016 17.2817 4.46387C17.394 4.51758 17.4941 4.57373 17.582 4.63232C17.7725 4.75928 17.8652 4.86426 17.8604 4.94727C17.8604 5.02539 17.8408 5.19873 17.8018 5.46729C17.7627 5.73096 17.7139 6.05322 17.6553 6.43408C17.25 8.9585 17.0376 10.4233 17.0181 10.8286C17.0034 11.2339 17.0449 11.4878 17.1426 11.5903C17.2451 11.6929 17.394 11.7441 17.5894 11.7441C17.9458 11.7441 18.4634 11.5317 19.1421 11.1069C19.6011 10.8188 19.9795 10.6748 20.2773 10.6748C20.5801 10.6748 20.7314 10.8188 20.7314 11.1069C20.7314 11.4048 20.5703 11.7661 20.248 12.1909C19.7842 12.8062 19.0908 13.3628 18.168 13.8608C17.3916 14.2759 16.6543 14.4834 15.9561 14.4834C14.8135 14.4834 14.2422 13.729 14.2422 12.2202ZM28.7295 9.48828C28.7295 9.75195 28.9541 9.88379 29.4033 9.88379C29.7354 9.88379 30.1699 9.72266 30.707 9.40039L31.293 9.07812C31.4736 8.97559 31.6299 8.92432 31.7617 8.92432C31.8984 8.92432 32.0059 8.96582 32.084 9.04883C32.1621 9.13184 32.2012 9.24658 32.2012 9.39307C32.2012 9.53955 32.1523 9.71045 32.0547 9.90576C31.957 10.0962 31.8228 10.2988 31.6519 10.5137C31.481 10.7236 31.2808 10.9336 31.0513 11.1436C30.8218 11.3486 30.5752 11.5342 30.3115 11.7002C29.7256 12.0664 29.1812 12.2495 28.6782 12.2495C28.146 12.2495 27.7212 12.1592 27.4038 11.9785C27.3062 11.9199 27.2109 11.8589 27.1182 11.7954C26.5957 12.3911 25.8389 12.938 24.8477 13.436C23.793 13.9634 22.8726 14.2271 22.0864 14.2271C21.2612 14.2271 20.6094 13.9023 20.1309 13.2529C19.7451 12.7256 19.5522 12.1909 19.5522 11.6489C19.5522 10.8677 19.9697 10.123 20.8047 9.41504C21.4199 8.89746 22.0132 8.50439 22.5845 8.23584C23.1606 7.96729 23.6807 7.75977 24.1445 7.61328C25.126 7.30566 26.0098 7.15186 26.7959 7.15186C27.1475 7.15186 27.46 7.22021 27.7334 7.35693C28.0117 7.48877 28.2168 7.62305 28.3486 7.75977C28.6611 8.06738 28.8174 8.46045 28.8174 8.93896C28.8174 9.08057 28.8027 9.19043 28.7734 9.26855C28.7441 9.34668 28.7295 9.41992 28.7295 9.48828ZM22.7383 10.8726L22.731 10.8945V10.9019C22.731 11.1118 22.7773 11.2485 22.8701 11.312C23.0947 11.4487 23.3315 11.4854 23.5806 11.4219C23.8296 11.3535 24.0664 11.2705 24.291 11.1729C24.8477 10.9336 25.3506 10.6309 25.7998 10.2646C25.7217 10.1084 25.6826 9.94727 25.6826 9.78125C25.6826 9.42969 25.8364 9.07812 26.144 8.72656C25.7534 8.72656 25.2261 8.90967 24.562 9.27588C23.8296 9.68115 23.2803 10.0986 22.9141 10.5283C22.7969 10.6748 22.7383 10.7896 22.7383 10.8726ZM30.5312 11.583C30.4385 11.583 30.3481 11.561 30.2603 11.5171C30.1675 11.4731 30.082 11.4023 30.0039 11.3047C29.833 11.0898 29.7476 10.7969 29.7476 10.4258C29.7476 10.0303 29.9844 9.53711 30.458 8.94629C30.917 8.375 31.4517 7.88184 32.062 7.4668C32.7163 7.01758 33.2778 6.79297 33.7466 6.79297C34.1616 6.79297 34.4424 6.91016 34.5889 7.14453L34.6914 7.30566C34.7695 7.42773 34.8477 7.48877 34.9258 7.48877C35.0039 7.48877 35.126 7.48145 35.292 7.4668L36.332 7.39355C36.4932 7.37891 36.6201 7.37158 36.7129 7.37158C36.8057 7.37158 36.9106 7.40576 37.0278 7.47412C37.1499 7.5376 37.2573 7.62305 37.3501 7.73047C37.5552 7.97461 37.6577 8.24316 37.6577 8.53613C37.6577 8.83887 37.3232 9.31494 36.6543 9.96436L36.1709 10.4478C35.8242 10.8042 35.6509 11.0288 35.6509 11.1216C35.6509 11.2144 35.6948 11.2974 35.7827 11.3706C35.8706 11.439 35.9658 11.4731 36.0684 11.4731C36.1709 11.4731 36.2856 11.4463 36.4126 11.3926C36.5444 11.334 36.7056 11.251 36.896 11.1436C37.0864 11.0312 37.3037 10.897 37.5479 10.7407C38.2168 10.3013 38.6636 9.99854 38.8882 9.83252L39.4961 9.40039C39.9111 9.10742 40.2065 8.96094 40.3823 8.96094C40.5581 8.96094 40.7021 9 40.8145 9.07812C40.9268 9.15137 40.9829 9.28076 40.9829 9.46631C40.9829 9.65186 40.8877 9.90088 40.6973 10.2134C40.5068 10.5259 40.2993 10.7969 40.0747 11.0264C39.855 11.2559 39.6401 11.4683 39.4302 11.6636C39.2202 11.8589 38.9712 12.0713 38.6831 12.3008C38.3999 12.5254 38.085 12.7549 37.7383 12.9893C37.3916 13.2188 37.0254 13.4263 36.6396 13.6118C35.7656 14.0366 34.9624 14.249 34.23 14.249C33.1606 14.249 32.5088 13.9731 32.2744 13.4214C32.2012 13.2554 32.1646 13.0698 32.1646 12.8647C32.1646 12.6597 32.2036 12.4399 32.2817 12.2056C32.3599 11.9663 32.4624 11.7295 32.5894 11.4951C32.8433 11.0312 33.1436 10.6211 33.4902 10.2646C33.7832 9.95703 33.9297 9.77393 33.9297 9.71533C33.9297 9.62256 33.876 9.56396 33.7686 9.53955C33.666 9.51514 33.5122 9.50293 33.3071 9.50293C33.2192 9.50293 33.0312 9.62988 32.7432 9.88379L32.0254 10.543C31.2637 11.2363 30.7656 11.583 30.5312 11.583Z" fill="#A52A2A"/>
<path d="M50.66 4.8C51.52 4.8 52.21 4.965 52.73 5.295C53.26 5.625 53.525 6.155 53.525 6.885C53.525 7.245 53.42 7.54 53.21 7.77C53 7.99 52.715 8.1 52.355 8.1C52.005 8.1 51.745 8.02 51.575 7.86C51.655 7.64 51.695 7.39 51.695 7.11C51.695 6.23 51.305 5.79 50.525 5.79C50.145 5.79 49.845 5.885 49.625 6.075C49.415 6.255 49.31 6.525 49.31 6.885C49.31 7.215 49.395 7.515 49.565 7.785C49.735 8.055 49.945 8.295 50.195 8.505C50.455 8.715 50.805 8.97 51.245 9.27C51.765 9.62 52.18 9.935 52.49 10.215C52.81 10.485 53.08 10.815 53.3 11.205C53.52 11.585 53.63 12.025 53.63 12.525C53.63 13.415 53.325 14.105 52.715 14.595C52.105 15.085 51.315 15.33 50.345 15.33C49.465 15.33 48.735 15.155 48.155 14.805C47.585 14.445 47.3 13.89 47.3 13.14C47.3 12.78 47.405 12.49 47.615 12.27C47.825 12.04 48.105 11.925 48.455 11.925C48.805 11.925 49.065 12.005 49.235 12.165C49.165 12.365 49.13 12.615 49.13 12.915C49.13 13.865 49.58 14.34 50.48 14.34C50.92 14.34 51.28 14.22 51.56 13.98C51.84 13.73 51.98 13.395 51.98 12.975C51.98 12.645 51.895 12.345 51.725 12.075C51.555 11.805 51.34 11.565 51.08 11.355C50.83 11.145 50.485 10.89 50.045 10.59C49.525 10.24 49.105 9.93 48.785 9.66C48.475 9.38 48.21 9.05 47.99 8.67C47.77 8.28 47.66 7.835 47.66 7.335C47.66 6.535 47.94 5.915 48.5 5.475C49.07 5.025 49.79 4.8 50.66 4.8ZM55.8902 13.41C56.2202 13.41 56.4852 13.49 56.6852 13.65C56.8852 13.81 56.9852 14.04 56.9852 14.34C56.9852 14.65 56.8752 14.885 56.6552 15.045C56.4452 15.215 56.1752 15.3 55.8452 15.3C55.5152 15.3 55.2502 15.22 55.0502 15.06C54.8502 14.9 54.7502 14.67 54.7502 14.37C54.7502 14.06 54.8552 13.825 55.0652 13.665C55.2852 13.495 55.5602 13.41 55.8902 13.41ZM62.6734 5.1L65.2384 15H63.4684L62.8684 12.48H59.9284L59.3434 15H57.6934L60.4384 5.1H62.6734ZM60.1984 11.37H62.6134L61.3984 6.225L60.1984 11.37ZM67.0523 13.41C67.3823 13.41 67.6473 13.49 67.8473 13.65C68.0473 13.81 68.1473 14.04 68.1473 14.34C68.1473 14.65 68.0373 14.885 67.8173 15.045C67.6073 15.215 67.3373 15.3 67.0073 15.3C66.6773 15.3 66.4123 15.22 66.2123 15.06C66.0123 14.9 65.9123 14.67 65.9123 14.37C65.9123 14.06 66.0173 13.825 66.2273 13.665C66.4473 13.495 66.7223 13.41 67.0523 13.41ZM73.1305 5.85C72.3705 5.85 71.8655 6.25 71.6155 7.05C71.3755 7.84 71.2555 8.83 71.2555 10.02C71.2555 11.21 71.3855 12.165 71.6455 12.885C71.9055 13.595 72.4505 13.95 73.2805 13.95C73.8005 13.95 74.2455 13.805 74.6155 13.515C74.9855 13.225 75.2505 12.825 75.4105 12.315C75.6205 12.385 75.7705 12.495 75.8605 12.645C75.9505 12.785 75.9955 12.97 75.9955 13.2C75.9955 13.65 75.8555 14.035 75.5755 14.355C75.3055 14.675 74.9505 14.915 74.5105 15.075C74.0805 15.245 73.6205 15.33 73.1305 15.33C71.7705 15.33 70.8005 14.86 70.2205 13.92C69.6505 12.98 69.3655 11.705 69.3655 10.095C69.3655 8.495 69.6705 7.215 70.2805 6.255C70.9005 5.285 71.8955 4.8 73.2655 4.8C74.1455 4.8 74.8455 4.975 75.3655 5.325C75.8955 5.675 76.1605 6.23 76.1605 6.99C76.1605 7.35 76.0555 7.645 75.8455 7.875C75.6355 8.095 75.3505 8.205 74.9905 8.205C74.6405 8.205 74.3805 8.125 74.2105 7.965C74.2905 7.745 74.3305 7.495 74.3305 7.215C74.3305 6.305 73.9305 5.85 73.1305 5.85Z" fill="#F9F9FF"/>
</svg>
