<svg width="95" height="22" viewBox="0 0 95 22" fill="none" xmlns="http://www.w3.org/2000/svg">
<path d="M2.825 17.05C2.19167 17.05 1.68333 16.8667 1.3 16.5C0.933333 16.1167 0.75 15.6083 0.75 14.975V1.8C0.933333 1.76667 1.19167 1.725 1.525 1.675C1.875 1.625 2.21667 1.6 2.55 1.6C3.3 1.6 3.84167 1.725 4.175 1.975C4.50833 2.225 4.675 2.71667 4.675 3.45V13.875H10.675C10.775 14.0417 10.8667 14.2583 10.95 14.525C11.05 14.7917 11.1 15.0833 11.1 15.4C11.1 15.95 10.975 16.3667 10.725 16.65C10.4917 16.9167 10.1667 17.05 9.75 17.05H2.825ZM13.9234 14C13.5401 13.1667 13.0984 12.0833 12.5984 10.75C12.1151 9.4 11.6068 7.65833 11.0734 5.525C11.2734 5.30833 11.5484 5.125 11.8984 4.975C12.2651 4.80833 12.6568 4.725 13.0734 4.725C13.6068 4.725 14.0401 4.84167 14.3734 5.075C14.7068 5.29167 14.9651 5.7 15.1484 6.3C15.5151 7.51667 15.8818 8.71667 16.2484 9.9C16.6318 11.0833 17.0151 12.275 17.3984 13.475H17.4984C17.6984 12.9083 17.9068 12.2917 18.1234 11.625C18.3401 10.9417 18.5484 10.2417 18.7484 9.525C18.9484 8.79167 19.1318 8.05833 19.2984 7.325C19.4818 6.575 19.6401 5.85 19.7734 5.15C20.2901 4.86667 20.8318 4.725 21.3984 4.725C21.9318 4.725 22.3901 4.84167 22.7734 5.075C23.1568 5.30833 23.3484 5.69167 23.3484 6.225C23.3484 6.825 23.2401 7.59167 23.0234 8.525C22.8234 9.44167 22.5484 10.4083 22.1984 11.425C21.8651 12.425 21.4818 13.425 21.0484 14.425C20.6318 15.4083 20.1984 16.275 19.7484 17.025C18.8151 18.6083 17.9734 19.7833 17.2234 20.55C16.4734 21.3333 15.7151 21.725 14.9484 21.725C14.3318 21.725 13.8234 21.5333 13.4234 21.15C13.0234 20.7833 12.7818 20.3083 12.6984 19.725C13.2318 19.2583 13.7818 18.7083 14.3484 18.075C14.9318 17.4583 15.4234 16.8333 15.8234 16.2C15.5401 16.1167 15.2401 15.9333 14.9234 15.65C14.6234 15.35 14.2901 14.8 13.9234 14ZM30.1559 14.575C30.5225 14.575 30.8809 14.5417 31.2309 14.475C31.5975 14.3917 31.8725 14.2917 32.0559 14.175V11.875L30.0059 12.05C29.4725 12.1 29.0392 12.225 28.7059 12.425C28.3892 12.6083 28.2309 12.8917 28.2309 13.275C28.2309 13.675 28.3809 13.9917 28.6809 14.225C28.9809 14.4583 29.4725 14.575 30.1559 14.575ZM30.0059 4.6C30.8725 4.6 31.6559 4.69167 32.3559 4.875C33.0725 5.04167 33.6809 5.30833 34.1809 5.675C34.6809 6.04167 35.0642 6.50833 35.3309 7.075C35.6142 7.64167 35.7559 8.30833 35.7559 9.075V14.725C35.7559 15.1583 35.6392 15.5083 35.4059 15.775C35.1892 16.025 34.9225 16.2417 34.6059 16.425C34.0892 16.7417 33.4559 16.9833 32.7059 17.15C31.9559 17.3167 31.1059 17.4 30.1559 17.4C28.4392 17.4 27.0725 17.075 26.0559 16.425C25.0392 15.7583 24.5309 14.75 24.5309 13.4C24.5309 12.25 24.8725 11.375 25.5559 10.775C26.2392 10.175 27.2892 9.8 28.7059 9.65L32.0309 9.3V9.025C32.0309 8.49167 31.8142 8.1 31.3809 7.85C30.9475 7.6 30.3225 7.475 29.5059 7.475C28.8725 7.475 28.2475 7.55 27.6309 7.7C27.0309 7.85 26.4892 8.025 26.0059 8.225C25.8059 8.09167 25.6309 7.89167 25.4809 7.625C25.3475 7.34167 25.2809 7.04167 25.2809 6.725C25.2809 5.99167 25.6642 5.46667 26.4309 5.15C26.9142 4.96667 27.4725 4.83333 28.1059 4.75C28.7559 4.65 29.3892 4.6 30.0059 4.6ZM51.0098 5.775C51.0098 6.525 50.8014 7.175 50.3848 7.725C49.9848 8.25833 49.4014 8.675 48.6348 8.975C49.6014 9.29167 50.3264 9.75833 50.8098 10.375C51.2931 10.9917 51.5348 11.7333 51.5348 12.6C51.5348 14.2167 50.9348 15.4167 49.7348 16.2C48.5514 16.9833 46.8348 17.375 44.5848 17.375C44.2848 17.375 43.9431 17.3667 43.5598 17.35C43.1931 17.3333 42.8098 17.3 42.4098 17.25C42.0264 17.2167 41.6348 17.1583 41.2348 17.075C40.8514 17.0083 40.5014 16.9167 40.1848 16.8C39.3181 16.4833 38.8848 15.9167 38.8848 15.1V3.2C38.8848 2.86667 38.9681 2.60833 39.1348 2.425C39.3181 2.24167 39.5764 2.1 39.9098 2C40.4598 1.81667 41.1431 1.68333 41.9598 1.6C42.7764 1.5 43.6181 1.45 44.4848 1.45C46.5681 1.45 48.1764 1.80833 49.3098 2.525C50.4431 3.225 51.0098 4.30833 51.0098 5.775ZM47.5348 12.425C47.5348 11.2417 46.7764 10.65 45.2598 10.65H42.6848V14.15C42.9514 14.2167 43.2848 14.2667 43.6848 14.3C44.0848 14.3333 44.4681 14.35 44.8348 14.35C45.6348 14.35 46.2848 14.2 46.7848 13.9C47.2848 13.5833 47.5348 13.0917 47.5348 12.425ZM42.6848 7.875H45.0098C45.6598 7.875 46.1681 7.725 46.5348 7.425C46.9014 7.125 47.0848 6.68333 47.0848 6.1C47.0848 5.56667 46.8681 5.15833 46.4348 4.875C46.0181 4.575 45.3848 4.425 44.5348 4.425C44.2181 4.425 43.8848 4.44167 43.5348 4.475C43.1848 4.49167 42.9014 4.51667 42.6848 4.55V7.875ZM66.0674 10.975C66.0674 11.9583 65.9174 12.85 65.6174 13.65C65.3174 14.4333 64.884 15.1 64.3174 15.65C63.7674 16.2 63.1007 16.625 62.3174 16.925C61.534 17.225 60.659 17.375 59.6924 17.375C58.7257 17.375 57.8424 17.2333 57.0424 16.95C56.259 16.65 55.584 16.225 55.0174 15.675C54.4674 15.125 54.0424 14.4583 53.7424 13.675C53.4424 12.875 53.2924 11.975 53.2924 10.975C53.2924 10.0083 53.4424 9.13333 53.7424 8.35C54.059 7.55 54.4924 6.875 55.0424 6.325C55.609 5.775 56.284 5.35 57.0674 5.05C57.8674 4.75 58.7424 4.6 59.6924 4.6C60.6424 4.6 61.509 4.75 62.2924 5.05C63.0757 5.35 63.7424 5.78333 64.2924 6.35C64.8591 6.9 65.2924 7.56667 65.5924 8.35C65.909 9.13333 66.0674 10.0083 66.0674 10.975ZM59.6924 7.6C58.909 7.6 58.3007 7.89167 57.8674 8.475C57.434 9.05833 57.2174 9.89167 57.2174 10.975C57.2174 12.0917 57.4257 12.9417 57.8424 13.525C58.2757 14.0917 58.8924 14.375 59.6924 14.375C60.4924 14.375 61.1007 14.0833 61.5174 13.5C61.9507 12.9167 62.1674 12.075 62.1674 10.975C62.1674 9.90833 61.9507 9.08333 61.5174 8.5C61.084 7.9 60.4757 7.6 59.6924 7.6ZM80.5693 10.975C80.5693 11.9583 80.4193 12.85 80.1193 13.65C79.8193 14.4333 79.386 15.1 78.8193 15.65C78.2693 16.2 77.6027 16.625 76.8193 16.925C76.036 17.225 75.161 17.375 74.1943 17.375C73.2277 17.375 72.3443 17.2333 71.5443 16.95C70.761 16.65 70.086 16.225 69.5193 15.675C68.9693 15.125 68.5443 14.4583 68.2443 13.675C67.9443 12.875 67.7943 11.975 67.7943 10.975C67.7943 10.0083 67.9443 9.13333 68.2443 8.35C68.561 7.55 68.9943 6.875 69.5443 6.325C70.111 5.775 70.786 5.35 71.5693 5.05C72.3693 4.75 73.2443 4.6 74.1943 4.6C75.1443 4.6 76.011 4.75 76.7943 5.05C77.5777 5.35 78.2443 5.78333 78.7943 6.35C79.361 6.9 79.7943 7.56667 80.0943 8.35C80.411 9.13333 80.5693 10.0083 80.5693 10.975ZM74.1943 7.6C73.411 7.6 72.8027 7.89167 72.3693 8.475C71.936 9.05833 71.7193 9.89167 71.7193 10.975C71.7193 12.0917 71.9277 12.9417 72.3443 13.525C72.7777 14.0917 73.3943 14.375 74.1943 14.375C74.9943 14.375 75.6027 14.0833 76.0193 13.5C76.4527 12.9167 76.6693 12.075 76.6693 10.975C76.6693 9.90833 76.4527 9.08333 76.0193 8.5C75.586 7.9 74.9777 7.6 74.1943 7.6ZM89.9713 10.825L94.2963 15.025C94.213 15.725 93.9963 16.2667 93.6463 16.65C93.313 17.0167 92.8296 17.2 92.1963 17.2C91.713 17.2 91.288 17.0833 90.9213 16.85C90.5546 16.6167 90.1463 16.2333 89.6963 15.7L86.7213 12.175V16.975C86.5546 17.025 86.3213 17.0667 86.0213 17.1C85.7213 17.15 85.388 17.175 85.0213 17.175C84.2713 17.175 83.7296 17.0583 83.3963 16.825C83.063 16.575 82.8963 16.1 82.8963 15.4V0.724999C83.0796 0.674999 83.3213 0.624999 83.6213 0.575C83.9213 0.525 84.2546 0.499999 84.6213 0.499999C85.3713 0.499999 85.9046 0.624999 86.2213 0.874999C86.5546 1.125 86.7213 1.6 86.7213 2.3V9.375L91.2463 4.775C92.0296 4.775 92.6546 4.95 93.1213 5.3C93.588 5.65 93.8213 6.08333 93.8213 6.6C93.8213 7.05 93.663 7.45 93.3463 7.8C93.0463 8.13333 92.5713 8.58333 91.9213 9.15L89.9713 10.825Z" fill="black"/>
</svg>
