<svg width="580" height="686" viewBox="0 0 580 686" fill="none" xmlns="http://www.w3.org/2000/svg">
<path d="M491.181 383.015C497.754 382.754 504.006 380.105 508.766 375.564C513.526 371.023 516.466 364.903 517.036 358.349C517.605 351.796 515.765 345.259 511.86 339.965C507.955 334.671 502.254 330.983 495.824 329.592C489.395 328.201 482.679 329.203 476.935 332.41C471.191 335.616 466.814 340.808 464.624 347.011C462.434 353.214 462.582 360.003 465.039 366.105C467.496 372.207 472.095 377.203 477.972 380.157L459.971 470.387L445.626 467.612L444.113 472.471L436.941 471.083L437.901 466.118L430.729 464.73L429.235 472.454L433.649 473.308L432.048 481.584L427.634 480.73L425.286 492.869L431.907 494.149L432.761 489.735L439.933 491.123L438.866 496.64L452.107 499.202L449.546 512.443L465.546 515.538L491.181 383.015ZM480.095 341.201C483.025 339.221 486.476 338.154 490.013 338.135C493.55 338.117 497.012 339.147 499.963 341.096C502.914 343.046 505.221 345.826 506.591 349.087C507.962 352.347 508.335 355.94 507.663 359.413C506.992 362.885 505.305 366.08 502.818 368.594C500.33 371.108 497.153 372.828 493.688 373.536C490.223 374.244 486.626 373.909 483.352 372.573C480.077 371.237 477.272 368.959 475.292 366.029C472.636 362.1 471.651 357.277 472.551 352.621C473.452 347.964 476.165 343.857 480.095 341.201L480.095 341.201Z" fill="#6C63FF"/>
<path d="M58.1576 684.42C58.0831 684.073 50.8711 649.373 65.5997 620.552C80.3281 591.733 111.767 579.023 112.083 578.897L113.52 578.328L113.86 579.909C113.934 580.255 121.146 614.955 106.417 643.776C91.6897 672.596 60.2498 685.306 59.9339 685.431L58.4964 686L58.1576 684.42ZM111.55 582.185C105.252 585.043 80.3974 597.553 67.958 621.894C55.5173 646.237 59.2707 675.025 60.4676 682.144C66.7625 679.292 91.6073 666.802 104.059 642.435C116.499 618.093 112.747 589.308 111.55 582.185V582.185Z" fill="#F1F1F1"/>
<path d="M95.1619 633.667C68.6941 650.469 58.5005 683.843 58.5005 683.843C58.5005 683.843 91.2197 689.975 117.688 673.172C144.155 656.37 154.349 622.996 154.349 622.996C154.349 622.996 121.63 616.864 95.1619 633.667Z" fill="#F1F1F1"/>
<path d="M495.983 364.314C496.387 362.115 496.329 359.85 495.813 357.678C495.297 355.506 494.336 353.48 492.998 351.742C491.66 350.004 489.977 348.597 488.067 347.62C486.158 346.643 484.069 346.12 481.947 346.086L469.69 313.563L449.142 316.602L467.063 362.275C467.246 366.04 468.732 369.603 471.239 372.289C473.746 374.975 477.1 376.597 480.665 376.849C484.23 377.1 487.758 375.963 490.581 373.652C493.405 371.342 495.327 368.019 495.983 364.314Z" fill="#9F616A"/>
<path d="M458.127 352.886L451.76 336.866L412.084 257.177L414.242 109.724L414.656 109.666C440.043 106.127 457.22 229.555 457.94 234.811L483.008 325.274L488.975 345.213L458.127 352.886Z" fill="#6C63FF"/>
<path d="M397.164 663.814L416.455 663.812L425.631 585.302L397.16 585.303L397.164 663.814Z" fill="#9F616A"/>
<path d="M392.243 657.168L430.233 657.166H430.235C436.656 657.167 442.813 659.858 447.354 664.649C451.894 669.439 454.445 675.937 454.445 682.712V683.542L392.244 683.544L392.243 657.168Z" fill="#2F2E41"/>
<path d="M219.793 632.802L235.621 644.439L285.692 585.564L262.332 568.388L219.793 632.802Z" fill="#9F616A"/>
<path d="M219.357 624.381L250.526 647.299L250.528 647.3C255.795 651.174 259.389 657.097 260.518 663.766C261.647 670.435 260.219 677.305 256.548 682.863L256.099 683.544L205.066 646.022L219.357 624.381Z" fill="#2F2E41"/>
<path d="M386.562 645.359L385.728 498.079L373.59 405.471L350.961 486.912L350.917 486.978L268.91 612.6L237.001 595.541L237.176 595.102C239.126 590.208 285.077 475.263 297.428 475.263C298.506 475.343 299.587 475.145 300.577 474.686C301.567 474.227 302.436 473.521 303.11 472.629C306.735 467.521 303.783 456.683 303.753 456.574C300.217 441.104 309.107 435.836 310.877 434.956L315.64 331.224L316.134 331.26L445.24 340.815L439.824 470.508L428.172 640.431L427.772 640.479L386.562 645.359Z" fill="#2F2E41"/>
<path d="M447.213 363.801L446.655 363.753L307.804 351.943L308.146 303.467L314.942 176.894L314.981 176.807L342.657 113.408L362.276 104.034L390.9 102.445L390.97 102.463L417.092 109.292L444.267 315.123L447.213 363.801Z" fill="#6C63FF"/>
<path d="M395.385 86.1968C413.101 75.9781 419.612 52.5404 409.928 33.8472C400.243 15.1539 378.03 8.28392 360.314 18.5026C342.598 28.7213 336.087 52.159 345.772 70.8522C355.456 89.5455 377.669 96.4155 395.385 86.1968Z" fill="#9F616A"/>
<path d="M341.084 62.0328V47.0034C341.084 47.0034 329.597 32.7286 342.233 29.1327C342.233 29.1327 345.679 -6.82567 375.544 9.95491C375.544 9.95491 416.897 2.76324 412.302 27.9341C412.302 27.9341 422.64 21.3628 419.194 38.1434L412.53 65.174C412.53 65.174 415.748 47.3184 405.41 44.9211L399.667 41.3252C399.667 41.3252 383.585 58.1058 359.463 37.7294C359.463 37.7294 349.125 35.1258 350.273 45.9134C351.422 56.7009 341.084 62.0328 341.084 62.0328Z" fill="#2F2E41"/>
<path d="M374.044 327.6C374.067 325.361 373.624 323.144 372.747 321.105C371.871 319.066 370.581 317.255 368.969 315.798C367.357 314.342 365.461 313.277 363.417 312.677C361.372 312.077 359.228 311.958 357.135 312.327L339.546 282.652L319.848 289.532L345.245 331.071C346.066 334.74 348.134 337.964 351.057 340.131C353.98 342.299 357.556 343.26 361.105 342.833C364.655 342.405 367.933 340.618 370.318 337.81C372.702 335.003 374.028 331.37 374.044 327.6Z" fill="#9F616A"/>
<path d="M328.614 318.246L296.792 250.076L296.821 249.911C296.949 249.156 309.758 174.11 319.555 146.525C329.414 118.766 342.908 113.193 343.478 112.969L343.763 112.857L355.863 125.104L339.101 243.153L357.169 300.086L328.614 318.246Z" fill="#6C63FF"/>
<path d="M511.661 685.943H1.33943C0.984188 685.943 0.643499 685.794 0.392308 685.529C0.141117 685.264 0 684.905 0 684.53C0 684.155 0.141117 683.795 0.392308 683.53C0.643499 683.265 0.984188 683.116 1.33943 683.116H511.661C512.016 683.116 512.357 683.265 512.608 683.53C512.859 683.795 513 684.155 513 684.53C513 684.905 512.859 685.264 512.608 685.529C512.357 685.794 512.016 685.943 511.661 685.943Z" fill="#CBCBCB"/>
</svg>
