<svg width="338" height="529" viewBox="0 0 338 529" fill="none" xmlns="http://www.w3.org/2000/svg">
<path opacity="0.1" d="M119 513.668C184.722 513.668 238 507.176 238 499.168C238 491.16 184.722 484.668 119 484.668C53.2781 484.668 0 491.16 0 499.168C0 507.176 53.2781 513.668 119 513.668Z" fill="black"/>
<path d="M118.5 509.668C180.632 509.668 231 455.942 231 389.668C231 323.394 180.632 269.668 118.5 269.668C56.368 269.668 6 323.394 6 389.668C6 455.942 56.368 509.668 118.5 509.668Z" fill="#3F3D56"/>
<path d="M154 460.668H84V524.668H154V460.668Z" fill="#5E20E4"/>
<path d="M245.5 476.168L241.5 498.168L267.5 502.168L284.5 492.168L283.5 476.168H245.5Z" fill="#575A89"/>
<path d="M114.5 63.1678C114.5 63.1678 112.5 86.1678 107.5 87.1678C102.5 88.1678 118.5 128.168 118.5 128.168H142.5L161.5 123.168L152.5 101.168C152.5 101.168 140.5 85.1678 149.5 72.1678C158.5 59.1678 114.5 63.1678 114.5 63.1678Z" fill="#A0616A"/>
<path opacity="0.1" d="M114.5 63.1678C114.5 63.1678 112.5 86.1678 107.5 87.1678C102.5 88.1678 118.5 128.168 118.5 128.168H142.5L161.5 123.168L152.5 101.168C152.5 101.168 140.5 85.1678 149.5 72.1678C158.5 59.1678 114.5 63.1678 114.5 63.1678Z" fill="black"/>
<path d="M64.5 239.168C64.5 239.168 38.5 289.168 59.5 299.168C80.5 309.168 85.5 308.168 85.5 311.168C85.5 314.168 81.5 313.168 83.5 318.168C85.5 323.168 79.5 343.168 85.5 355.168C91.5 367.168 89.5 376.168 89.5 376.168C89.5 376.168 89.5 377.168 91.5 381.168C93.5 385.168 94.5 388.168 93.5 390.168C92.5 392.168 86.5 405.168 92.5 408.168C98.5 411.168 129.5 413.168 132.5 408.168C135.5 403.168 129.5 400.168 132.5 397.168C135.5 394.168 137.5 393.168 135.5 391.168C133.5 389.168 131.5 364.168 131.5 364.168C131.5 364.168 136.5 335.168 134.5 331.168C132.5 327.168 129.5 323.168 131.5 320.168C133.5 317.168 135.5 318.168 136.5 314.168C137.5 310.168 139.5 301.168 139.5 301.168L150.5 300.168L176.5 305.168C176.5 305.168 205.5 337.168 237.5 347.168C237.5 347.168 246.5 356.168 249.5 356.168C252.5 356.168 252.5 356.168 251.5 358.168C250.5 360.168 247.5 360.168 249.5 362.168C251.5 364.168 254.5 361.168 252.5 364.168C250.5 367.168 248.5 367.168 250.5 369.168C252.5 371.168 249.5 382.168 249.5 383.168C249.5 384.168 240.5 478.168 243.5 480.168C246.5 482.168 288.5 488.168 291.5 480.168C294.5 472.168 289.5 462.168 289.5 462.168C289.5 462.168 304.5 342.168 300.5 334.168C296.5 326.168 282.5 290.168 207.5 267.168C207.5 267.168 186.5 263.168 186.5 260.168C186.5 257.168 184.5 238.168 180.5 237.168C176.5 236.168 153.5 235.168 153.5 235.168L124.5 244.168L84.5 237.168L64.5 239.168Z" fill="#2F2E41"/>
<path d="M99.5 407.168L94.5 425.168C94.5 425.168 90.5 454.168 95.5 461.168C99.4274 466.666 106.44 473.398 119.444 474.58C123.089 474.914 126.739 473.995 129.79 471.973C132.841 469.951 135.11 466.949 136.223 463.462C136.372 463.045 136.465 462.61 136.5 462.168C136.5 460.168 133.5 436.168 133.5 436.168L128.5 411.168L127.5 404.168L99.5 407.168Z" fill="#2F2E41"/>
<path d="M245.5 493.168C245.5 493.168 240.5 488.168 239.5 493.168C238.5 498.168 234.5 519.168 241.5 520.168C248.5 521.168 315.5 531.168 322.5 527.168C329.5 523.168 342.5 517.168 334.5 514.168C326.5 511.168 303.5 502.168 303.5 502.168C303.5 502.168 290.5 485.168 288.5 484.168C286.5 483.168 275.5 485.168 270.5 489.168C265.5 493.168 245.5 493.168 245.5 493.168Z" fill="#2F2E41"/>
<path d="M138.5 84.1678C155.621 84.1678 169.5 70.2886 169.5 53.1678C169.5 36.047 155.621 22.1678 138.5 22.1678C121.379 22.1678 107.5 36.047 107.5 53.1678C107.5 70.2886 121.379 84.1678 138.5 84.1678Z" fill="#A0616A"/>
<path d="M135.5 123.168L123.5 110.168L110.198 84.1678C110.198 84.1678 100.5 81.1678 98.5 86.1678C96.5 91.1678 60.4999 107.168 60.4999 107.168C60.4999 107.168 69.4999 191.168 65.4999 199.168C61.4999 207.168 54.4999 239.168 60.4999 242.168C66.4999 245.168 94.5 242.168 103.5 246.168C112.5 250.168 138.5 250.168 145.5 245.168C152.5 240.168 154.5 236.168 161.5 239.168C167.459 241.722 181.391 154.407 185.402 128.387C185.74 126.201 185.459 123.965 184.591 121.931C183.724 119.897 182.305 118.146 180.494 116.877C171.521 110.583 155.361 99.7374 152.5 101.168C148.5 103.168 135.5 123.168 135.5 123.168Z" fill="#575A89"/>
<path d="M178.5 119.168C180.848 119.755 182.961 121.046 184.554 122.869C186.146 124.692 187.143 126.958 187.411 129.364L195.5 202.168C195.5 202.168 175.5 245.168 165.5 216.168C155.5 187.168 178.5 119.168 178.5 119.168Z" fill="#575A89"/>
<path d="M176.5 209.168L198.5 203.168C198.5 203.168 202.5 231.168 206.5 231.168C210.5 231.168 192.5 247.168 183.5 245.168C174.5 243.168 161.5 236.168 160.5 231.168C159.5 226.168 169.5 205.168 169.5 205.168L176.5 209.168Z" fill="#575A89"/>
<path d="M115.098 66.5408C117.206 61.8928 116.84 56.4711 118.583 51.6742C119.516 49.1057 121.03 46.7877 123.008 44.9012C124.985 43.0148 127.372 41.6111 129.981 40.7997C132.591 39.9883 135.353 39.7912 138.051 40.2238C140.749 40.6564 143.311 41.707 145.536 43.2935C147.778 44.8919 150.025 47.1377 152.762 46.8325C155.708 46.5039 158.337 43.2166 161.046 44.4213C164.049 45.7567 163.238 51.1381 166.28 52.3811C167.881 53.0353 169.773 52.0279 170.697 50.5654C171.505 49.0284 171.945 47.325 171.983 45.5892C172.402 41.3241 172.782 36.8102 170.932 32.9442C170.154 31.6339 169.476 30.2667 168.904 28.8543C168.58 27.5353 168.45 26.1763 168.518 24.8199C168.501 19.8068 168.135 14.5778 165.613 10.2457C162.813 5.43863 157.638 2.36474 152.239 1.02347C146.84 -0.317801 141.184 -0.112142 135.641 0.357118C126.478 1.13286 116.922 2.79569 109.703 8.49211C108.721 9.20895 107.877 10.0962 107.209 11.1116C106.576 12.3179 106.128 13.613 105.881 14.9531C104.32 21.3092 101.98 27.4482 98.9136 33.2303C97.4385 35.6815 96.233 38.2852 95.3181 40.9957C94.5525 43.7502 94.6042 46.8892 96.2068 49.2566C97.5115 51.184 99.5975 52.2112 101.236 53.787C102.86 55.3485 103.62 58.3514 105.419 59.5337C106.989 60.5659 108.87 59.8373 110.472 60.9313C112.528 62.3358 112.676 65.4154 115.098 66.5408Z" fill="#2F2E41"/>
<path d="M140.5 138.168L143.5 132.168C143.5 132.168 187.5 145.168 196.5 157.168C196.5 157.168 218.5 143.168 230.5 145.168L242.5 147.168L205.5 180.168L158.5 176.168L140.5 138.168Z" fill="#F2F2F2"/>
<path d="M138.5 132.168L97.5 189.168L156.5 218.168C156.5 218.168 162.016 221.168 166.258 218.168L205.5 200.168L242.5 147.168L205.5 166.168C205.5 166.168 201.5 158.168 193.5 162.168L138.5 132.168Z" fill="#5E20E4"/>
<path d="M201.5 233.168L209.5 212.168C209.5 212.168 227.5 189.168 217.5 178.168C207.5 167.168 196.5 210.168 196.5 210.168L201.5 233.168Z" fill="#A0616A"/>
<path d="M109.198 229.817L126.654 215.665C126.654 215.665 153.764 204.8 150.633 190.267C147.501 175.735 116.412 207.412 116.412 207.412L109.198 229.817Z" fill="#A0616A"/>
<path opacity="0.1" d="M66 128.668H65C65 128.668 49.5 110.168 46.5 135.168C43.5 160.168 33.5 243.168 59.5 246.168C85.5 249.168 104 233.668 104 233.668C104 233.668 123 204.668 116 204.668C112.613 204.668 103.402 203.147 95 203.668C86.0373 204.224 77.9838 206.749 78.5 204.168C79.5 199.168 94 135.668 66 128.668Z" fill="black"/>
<path d="M64.5 109.168L60.5 107.168C60.5 107.168 44.5 110.168 41.5 135.168C38.5 160.168 28.5 243.168 54.5 246.168C80.5 249.168 115.5 242.168 115.5 242.168C115.5 242.168 122.5 204.168 115.5 204.168C108.5 204.168 72.5 209.168 73.5 204.168C74.5 199.168 92.5 116.168 64.5 109.168Z" fill="#575A89"/>
<path d="M187 221.668L198.027 204.767L205 232.668L187 240.668V221.668Z" fill="#575A89"/>
</svg>
