<svg width="400" height="400" viewBox="0 0 400 400" fill="none" xmlns="http://www.w3.org/2000/svg">
<path d="M395.408 282.31C389.589 272.605 379.103 266.668 367.787 266.668H366.38C361.096 266.671 355.892 267.971 351.227 270.454L299.995 297.78V206.669H323.328C343.578 206.669 359.994 190.253 359.994 170.003C359.994 149.753 343.578 133.337 323.328 133.337H179.997C161.588 133.337 146.664 118.413 146.664 100.004C146.664 81.5948 161.588 66.6712 179.997 66.6712H203.33L241.329 117.337C242.589 119.015 244.565 120.004 246.663 120.004H393.327C397.008 120.004 399.993 117.019 399.993 113.337V6.67217C399.993 2.99056 397.008 0.00561523 393.327 0.00561523H246.663C244.565 0.00561523 242.589 0.993929 241.329 2.67224L203.33 53.338H179.997C154.224 53.338 133.331 74.231 133.331 100.004C133.331 125.777 154.224 146.67 179.997 146.67H323.328C336.214 146.67 346.661 157.116 346.661 170.003C346.661 182.889 336.214 193.336 323.328 193.336H299.995V166.67C299.995 162.988 297.01 160.003 293.328 160.003H106.665C102.983 160.003 99.9985 162.988 99.9985 166.67V266.668C94.8294 268.473 89.8196 270.703 85.0189 273.334H0V286.667H79.9985V386.666H0V399.999H252.609C258.652 399.999 264.581 398.356 269.762 395.245L384.354 326.494C399.608 317.344 404.556 297.563 395.408 282.31ZM260.078 78.8605C270.492 75.1785 275.949 63.7512 272.267 53.338C268.586 42.9241 257.158 37.4667 246.745 41.1491C241.049 43.1624 236.569 47.6432 234.556 53.338H219.996L249.995 13.3387H386.66V106.67H249.995L219.996 66.6712H234.556C238.238 77.0854 249.665 82.5427 260.078 78.8605ZM246.663 60.0046C246.663 56.323 249.648 53.338 253.329 53.338C257.011 53.338 259.995 56.323 259.995 60.0046C259.995 63.6862 257.011 66.6712 253.329 66.6712C249.648 66.6712 246.663 63.6862 246.663 60.0046ZM186.663 173.336H213.33V200.002H186.663V173.336ZM113.331 173.336H173.331V206.669C173.331 210.35 176.315 213.335 179.997 213.335H219.996C223.678 213.335 226.663 210.35 226.663 206.669V173.336H286.662V304.887L275.742 310.707C279.814 294.648 270.097 278.327 254.035 274.254C251.626 273.644 249.149 273.334 246.663 273.334H181.737C160.86 261.954 136.64 258.291 113.331 262.988V173.336ZM377.494 315.06L262.903 383.812C259.793 385.679 256.235 386.666 252.609 386.666H93.3321V284.001C119.645 270.543 150.963 271.227 176.663 285.821C177.682 286.392 178.83 286.684 179.997 286.667H246.663C255.867 286.667 263.329 294.129 263.329 303.334C263.329 312.539 255.867 320 246.663 320H186.663C182.982 320 179.997 322.985 179.997 326.666C179.997 330.349 182.982 333.334 186.663 333.334H259.995C261.091 333.335 262.169 333.067 263.136 332.553L357.5 282.221C360.235 280.766 363.284 280.003 366.38 280.001H367.787C378.211 280 386.661 288.449 386.662 298.873C386.662 305.505 383.182 311.65 377.494 315.06Z" fill="#5E20E4"/>
</svg>
