<svg width="305" height="671" viewBox="0 0 305 671" fill="none" xmlns="http://www.w3.org/2000/svg">
<path d="M35.0649 163.822H33.243V162H32.8879V163.822H31.0649V164.178H32.8879V166H33.243V164.178H35.0649V163.822Z" fill="#F2F2F2"/>
<path d="M242.746 5.30008C242.746 5.30008 220.444 -14.6948 190.452 22.9878C160.46 60.6705 113.549 79.1273 102.782 93.7389C102.782 93.7389 147.386 75.2821 162.767 67.5918C178.148 59.9015 177.378 61.4395 177.378 61.4395C177.378 61.4395 156.615 76.0511 152.769 90.6628C148.924 105.274 152 117.579 145.079 132.191C138.158 146.802 277.353 142.188 277.353 142.188C277.353 142.188 291.195 118.348 287.35 93.739C283.505 69.1299 285.812 8.37624 242.746 5.30008Z" fill="#2F2E41"/>
<path d="M200.564 68.2021C200.564 68.2021 205.413 102.149 184.63 109.77C163.846 117.39 171.467 127.782 171.467 127.782L202.642 143.024L235.896 132.632L246.981 116.005C246.981 116.005 228.968 111.848 233.818 99.3777C238.667 86.9075 240.053 82.7507 240.053 82.7507L200.564 68.2021Z" fill="#FFB9B9"/>
<path opacity="0.1" d="M200.564 68.2021C200.564 68.2021 205.413 102.149 184.63 109.77C163.846 117.39 171.467 127.782 171.467 127.782L202.642 143.024L235.896 132.632L246.981 116.005C246.981 116.005 228.968 111.848 233.818 99.3777C238.667 86.9075 240.053 82.7507 240.053 82.7507L200.564 68.2021Z" fill="black"/>
<path d="M287.856 165.193C287.856 165.193 283.006 228.93 284.392 231.701C285.777 234.472 284.392 330.77 284.392 330.77C284.392 330.77 294.091 382.729 281.62 385.5C269.15 388.272 271.921 327.306 271.921 327.306L259.451 246.942L260.837 167.271L287.856 165.193Z" fill="#FFB9B9"/>
<path opacity="0.1" d="M287.856 165.193C287.856 165.193 283.006 228.93 284.392 231.701C285.777 234.472 284.392 330.77 284.392 330.77C284.392 330.77 294.091 382.729 281.62 385.5C269.15 388.272 271.921 327.306 271.921 327.306L259.451 246.942L260.837 167.271L287.856 165.193Z" fill="black"/>
<path d="M152.761 357.096C152.761 357.096 129.899 443.695 130.592 485.955C131.284 528.215 140.291 587.103 140.291 587.103C140.291 587.103 141.676 612.736 139.598 615.507C137.52 618.278 149.99 630.056 149.99 630.056L163.153 622.435L168.002 616.893V612.043C168.002 612.043 160.382 588.488 166.617 569.783C172.852 551.077 176.316 503.968 170.081 489.419L213.034 361.946L152.761 357.096Z" fill="#FFB9B9"/>
<path d="M151.375 618.971C151.375 618.971 143.062 608.579 137.52 612.043C131.977 615.507 122.971 639.062 122.971 639.062C122.971 639.062 91.7953 668.852 113.965 670.238C136.134 671.623 145.833 664.002 148.604 658.46C151.375 652.918 177.009 638.369 177.009 638.369C177.009 638.369 174.237 612.043 170.081 611.35C165.924 610.657 159.689 621.742 159.689 621.742L151.375 618.971Z" fill="#2F2E41"/>
<path d="M228.275 362.638V448.544C228.356 458.968 229.05 469.378 230.354 479.72C232.432 494.961 218.576 608.579 218.576 608.579L219.962 628.67L237.282 627.284L239.36 609.965L264.3 533.758C264.3 533.758 272.614 487.341 268.457 470.021C264.3 452.701 289.934 341.854 289.934 341.854L228.275 362.638Z" fill="#FFB9B9"/>
<path d="M214.42 623.82L219.551 622.705C219.551 622.705 223.426 614.121 228.275 616.2C231.688 617.774 234.921 619.711 237.918 621.978L240.053 625.899C240.053 625.899 244.902 636.291 251.137 643.219C257.373 650.146 264.3 665.388 253.909 666.773C243.517 668.159 229.661 668.852 225.504 665.388C221.348 661.924 224.119 656.382 219.962 654.996C215.805 653.61 212.341 649.454 213.034 648.068C213.727 646.682 214.42 623.82 214.42 623.82Z" fill="#2F2E41"/>
<path d="M228.276 92.0644C245.28 92.0644 259.066 78.2792 259.066 61.2742C259.066 44.2693 245.28 30.484 228.276 30.484C211.271 30.484 197.485 44.2693 197.485 61.2742C197.485 78.2792 211.271 92.0644 228.276 92.0644Z" fill="#FFB9B9"/>
<path d="M170.081 115.312L179.232 112.117C179.232 112.117 175.623 118.083 195.022 121.547C214.42 125.011 234.509 126.237 243.516 114.886C243.516 114.886 246.981 113.234 251.83 118.083C256.68 122.933 259.451 121.547 259.451 121.547L255.987 139.56L249.059 172.814L240.053 197.754L214.42 192.212L186.708 172.121L176.316 145.102V120.161L170.081 115.312Z" fill="#6C63FF"/>
<path d="M254.602 125.011L261.529 120.161C261.529 120.161 285.084 124.318 286.47 135.403L268.457 170.042C272.131 179.681 271.882 190.375 267.765 199.832C260.837 215.767 261.529 219.231 261.529 219.231L256.68 240.014L168.695 246.942C168.695 246.942 165.231 238.629 163.846 237.243C162.46 235.858 162.46 231.008 163.846 231.008C165.231 231.008 163.846 228.93 162.46 226.851C161.075 224.773 160.382 224.08 162.46 221.309C164.539 218.538 158.996 193.597 158.996 193.597V166.578L135.441 135.403C135.441 135.403 143.755 122.933 147.912 121.547C152.068 120.161 171.842 114.697 171.842 114.697L176.316 121.285L182.551 171.428L191.557 201.911L229.478 195.468L244.21 170.735L253.909 141.638L254.602 125.011Z" fill="#6C63FF"/>
<path d="M280.927 131.246L286.469 135.403C286.469 135.403 291.319 174.199 289.933 176.97C288.548 179.741 264.3 182.513 263.607 181.127C262.915 179.741 280.927 131.246 280.927 131.246Z" fill="#6C63FF"/>
<path d="M166.617 111.848L173.545 157.572C173.545 157.572 167.31 225.466 168.695 239.322L170.081 243.478C170.081 243.478 167.31 242.093 166.617 244.864C165.924 247.635 166.617 256.641 166.617 256.641C166.617 256.641 162.46 260.798 161.074 283.66C159.689 306.522 143.062 361.253 149.297 363.331C155.532 365.41 192.943 375.801 213.034 373.723C233.125 371.645 305.175 347.397 304.482 341.162C303.789 334.927 269.15 246.942 269.15 246.942C269.15 246.942 262.915 236.55 262.915 235.165C262.915 233.779 271.228 228.237 269.15 222.695C267.072 217.152 255.987 158.958 255.987 158.958L263.608 117.39L253.216 114.619L245.595 154.801C245.595 154.801 215.805 169.35 184.629 156.187L177.701 109.077L166.617 111.848Z" fill="#2F2E41"/>
<path d="M199.949 39.177C199.949 39.177 251.216 74.5093 265.072 58.5751C278.927 42.6409 240.824 28.7851 240.824 28.7851L208.956 25.3212L199.949 39.177Z" fill="#2F2E41"/>
<path d="M120.294 415.042C125.571 418.97 132.099 420.838 138.655 420.298C145.211 419.757 151.344 416.843 155.906 412.104C160.468 407.364 163.144 401.123 163.434 394.551C163.723 387.979 161.606 381.528 157.479 376.405C153.352 371.282 147.498 367.841 141.015 366.726C134.532 365.61 127.865 366.898 122.263 370.346C116.661 373.795 112.51 379.168 110.586 385.459C108.663 391.75 109.1 398.526 111.815 404.518L41.1085 463.39L31.694 452.216L27.4641 455.046L22.7568 449.459L26.6246 446.2L21.9174 440.613L15.9008 445.682L18.7976 449.121L12.3513 454.552L9.45453 451.114L0 459.08L4.34515 464.237L7.78314 461.34L12.4904 466.927L8.19287 470.548L16.8832 480.862L6.56915 489.553L17.0699 502.015L120.294 415.042ZM137.948 375.55C141.472 375.851 144.827 377.19 147.59 379.398C150.353 381.606 152.398 384.584 153.469 387.955C154.539 391.325 154.586 394.938 153.603 398.335C152.62 401.732 150.652 404.762 147.948 407.041C145.243 409.32 141.923 410.745 138.409 411.137C134.894 411.53 131.342 410.871 128.201 409.244C125.061 407.617 122.473 405.096 120.766 401.999C119.059 398.902 118.308 395.368 118.609 391.844C119.013 387.119 121.277 382.747 124.904 379.692C128.531 376.636 133.223 375.146 137.948 375.55V375.55Z" fill="#6C63FF"/>
<path d="M130.592 173.506C130.592 173.506 135.441 237.243 134.056 240.014C132.67 242.785 134.056 339.083 134.056 339.083C134.056 339.083 124.356 391.043 136.827 393.814C149.297 396.585 146.526 335.619 146.526 335.619L158.996 255.256L157.61 175.585L130.592 173.506Z" fill="#FFB9B9"/>
<path d="M140.983 133.324L135.441 135.403C135.441 135.403 125.049 179.049 127.82 179.049C130.592 179.049 163.846 183.205 163.846 181.82C163.846 180.434 157.61 146.487 157.61 146.487L140.983 133.324Z" fill="#6C63FF"/>
</svg>
