<svg width="139" height="57" viewBox="0 0 139 57" fill="none" xmlns="http://www.w3.org/2000/svg">
<path d="M6.688 43.108C5.656 43.108 4.84 42.808 4.24 42.208C3.64 41.608 3.34 40.792 3.34 39.76V21.112C3.628 21.064 4.048 21.004 4.6 20.932C5.152 20.836 5.704 20.788 6.256 20.788C7.456 20.788 8.32 20.992 8.848 21.4C9.376 21.808 9.64 22.6 9.64 23.776V38.032H17.884C18.052 38.296 18.208 38.644 18.352 39.076C18.496 39.508 18.568 39.976 18.568 40.48C18.568 41.368 18.376 42.028 17.992 42.46C17.608 42.892 17.08 43.108 16.408 43.108H6.688ZM22.2721 38.536C22.0081 37.936 21.7201 37.264 21.4081 36.52C21.1201 35.776 20.8081 34.924 20.4721 33.964C20.1601 33.004 19.8241 31.912 19.4641 30.688C19.1281 29.44 18.7681 28.012 18.3841 26.404C18.7201 26.068 19.1641 25.78 19.7161 25.54C20.2921 25.276 20.9161 25.144 21.5881 25.144C22.4281 25.144 23.1241 25.324 23.6761 25.684C24.2281 26.02 24.6361 26.668 24.9001 27.628C25.3801 29.308 25.8481 30.976 26.3041 32.632C26.7841 34.264 27.2641 35.896 27.7441 37.528H27.8881C28.1761 36.712 28.4521 35.824 28.7161 34.864C29.0041 33.904 29.2801 32.92 29.5441 31.912C29.8081 30.88 30.0481 29.86 30.2641 28.852C30.5041 27.82 30.7081 26.812 30.8761 25.828C31.2841 25.612 31.7041 25.444 32.1361 25.324C32.5681 25.204 33.0241 25.144 33.5041 25.144C34.3441 25.144 35.0761 25.324 35.7001 25.684C36.3241 26.044 36.6361 26.668 36.6361 27.556C36.6361 28.516 36.4801 29.668 36.1681 31.012C35.8801 32.332 35.4961 33.712 35.0161 35.152C34.5361 36.568 33.9961 37.96 33.3961 39.328C32.7961 40.696 32.1961 41.896 31.5961 42.928C30.2281 45.28 28.9681 47.008 27.8161 48.112C26.6881 49.24 25.5361 49.804 24.3601 49.804C23.4001 49.804 22.5961 49.504 21.9481 48.904C21.3001 48.304 20.9161 47.524 20.7961 46.564C21.5641 45.916 22.3321 45.184 23.1001 44.368C23.8681 43.552 24.5401 42.724 25.1161 41.884C24.7081 41.764 24.2641 41.488 23.7841 41.056C23.3281 40.6 22.8241 39.76 22.2721 38.536ZM46.5006 39.112C46.9086 39.112 47.3526 39.076 47.8326 39.004C48.3366 38.908 48.7086 38.788 48.9486 38.644V35.764L46.3566 35.98C45.6846 36.028 45.1326 36.172 44.7006 36.412C44.2686 36.652 44.0526 37.012 44.0526 37.492C44.0526 37.972 44.2326 38.368 44.5926 38.68C44.9766 38.968 45.6126 39.112 46.5006 39.112ZM46.2126 24.964C47.5086 24.964 48.6846 25.096 49.7406 25.36C50.8206 25.624 51.7326 26.032 52.4766 26.584C53.2446 27.112 53.8326 27.796 54.2406 28.636C54.6486 29.452 54.8526 30.424 54.8526 31.552V39.616C54.8526 40.24 54.6726 40.756 54.3126 41.164C53.9766 41.548 53.5686 41.884 53.0886 42.172C51.5286 43.108 49.3326 43.576 46.5006 43.576C45.2286 43.576 44.0766 43.456 43.0446 43.216C42.0366 42.976 41.1606 42.616 40.4166 42.136C39.6966 41.656 39.1326 41.044 38.7246 40.3C38.3406 39.556 38.1486 38.692 38.1486 37.708C38.1486 36.052 38.6406 34.78 39.6246 33.892C40.6086 33.004 42.1326 32.452 44.1966 32.236L48.9126 31.732V31.48C48.9126 30.784 48.6006 30.292 47.9766 30.004C47.3766 29.692 46.5006 29.536 45.3486 29.536C44.4606 29.536 43.5726 29.632 42.6846 29.824C41.8206 30.016 41.0406 30.256 40.3446 30.544C40.0326 30.328 39.7686 30.004 39.5526 29.572C39.3366 29.116 39.2286 28.648 39.2286 28.168C39.2286 27.544 39.3726 27.052 39.6606 26.692C39.9726 26.308 40.4406 25.984 41.0646 25.72C41.7606 25.456 42.5766 25.264 43.5126 25.144C44.4726 25.024 45.3726 24.964 46.2126 24.964Z" fill="black"/>
<path d="M76.1987 26.764C76.1987 27.844 75.9107 28.78 75.3347 29.572C74.7827 30.364 73.9427 31 72.8147 31.48C74.2067 31.936 75.2507 32.62 75.9467 33.532C76.6427 34.444 76.9907 35.524 76.9907 36.772C76.9907 39.052 76.1627 40.744 74.5067 41.848C72.8507 42.952 70.4507 43.504 67.3067 43.504C66.8507 43.504 66.3587 43.492 65.8307 43.468C65.3267 43.444 64.8107 43.396 64.2827 43.324C63.7547 43.276 63.2267 43.192 62.6987 43.072C62.1707 42.976 61.6787 42.856 61.2227 42.712C60.0707 42.328 59.4947 41.62 59.4947 40.588V22.984C59.4947 22.528 59.6147 22.18 59.8547 21.94C60.0947 21.7 60.4307 21.508 60.8627 21.364C61.6787 21.1 62.6267 20.92 63.7067 20.824C64.7867 20.704 65.9147 20.644 67.0907 20.644C69.9947 20.644 72.2387 21.148 73.8227 22.156C75.4067 23.14 76.1987 24.676 76.1987 26.764ZM72.2387 36.592C72.2387 35.632 71.8907 34.876 71.1947 34.324C70.5227 33.772 69.5387 33.496 68.2427 33.496H64.0307V39.508C64.4867 39.628 65.0267 39.712 65.6507 39.76C66.2987 39.808 66.9347 39.832 67.5587 39.832C69.0227 39.832 70.1627 39.58 70.9787 39.076C71.8187 38.548 72.2387 37.72 72.2387 36.592ZM64.0307 30.076H67.6667C68.9627 30.076 69.9227 29.812 70.5467 29.284C71.1947 28.756 71.5187 28.024 71.5187 27.088C71.5187 25.192 70.0547 24.244 67.1267 24.244C66.5267 24.244 65.9507 24.268 65.3987 24.316C64.8707 24.364 64.4147 24.424 64.0307 24.496V30.076ZM97.6347 34.468C97.6347 35.86 97.4187 37.12 96.9867 38.248C96.5787 39.352 95.9907 40.3 95.2227 41.092C94.4547 41.884 93.5307 42.496 92.4507 42.928C91.3707 43.336 90.1587 43.54 88.8147 43.54C87.4707 43.54 86.2587 43.336 85.1787 42.928C84.0987 42.496 83.1747 41.896 82.4067 41.128C81.6387 40.336 81.0387 39.388 80.6067 38.284C80.1987 37.156 79.9947 35.884 79.9947 34.468C79.9947 33.076 80.1987 31.828 80.6067 30.724C81.0387 29.596 81.6387 28.648 82.4067 27.88C83.1987 27.088 84.1347 26.488 85.2147 26.08C86.2947 25.648 87.4947 25.432 88.8147 25.432C90.1347 25.432 91.3347 25.648 92.4147 26.08C93.4947 26.488 94.4187 27.088 95.1867 27.88C95.9787 28.672 96.5787 29.632 96.9867 30.76C97.4187 31.864 97.6347 33.1 97.6347 34.468ZM88.8147 29.032C87.5187 29.032 86.4987 29.512 85.7547 30.472C85.0107 31.408 84.6387 32.74 84.6387 34.468C84.6387 36.22 84.9987 37.564 85.7187 38.5C86.4627 39.436 87.4947 39.904 88.8147 39.904C90.1347 39.904 91.1547 39.436 91.8747 38.5C92.6187 37.54 92.9907 36.196 92.9907 34.468C92.9907 32.74 92.6187 31.408 91.8747 30.472C91.1307 29.512 90.1107 29.032 88.8147 29.032ZM118.166 34.468C118.166 35.86 117.95 37.12 117.518 38.248C117.11 39.352 116.522 40.3 115.754 41.092C114.986 41.884 114.062 42.496 112.982 42.928C111.902 43.336 110.69 43.54 109.346 43.54C108.002 43.54 106.79 43.336 105.71 42.928C104.63 42.496 103.706 41.896 102.938 41.128C102.17 40.336 101.57 39.388 101.138 38.284C100.73 37.156 100.526 35.884 100.526 34.468C100.526 33.076 100.73 31.828 101.138 30.724C101.57 29.596 102.17 28.648 102.938 27.88C103.73 27.088 104.666 26.488 105.746 26.08C106.826 25.648 108.026 25.432 109.346 25.432C110.666 25.432 111.866 25.648 112.946 26.08C114.026 26.488 114.95 27.088 115.718 27.88C116.51 28.672 117.11 29.632 117.518 30.76C117.95 31.864 118.166 33.1 118.166 34.468ZM109.346 29.032C108.05 29.032 107.03 29.512 106.286 30.472C105.542 31.408 105.17 32.74 105.17 34.468C105.17 36.22 105.53 37.564 106.25 38.5C106.994 39.436 108.026 39.904 109.346 39.904C110.666 39.904 111.686 39.436 112.406 38.5C113.15 37.54 113.522 36.196 113.522 34.468C113.522 32.74 113.15 31.408 112.406 30.472C111.662 29.512 110.642 29.032 109.346 29.032ZM126.529 42.964C126.313 43.012 126.025 43.072 125.665 43.144C125.305 43.216 124.897 43.252 124.441 43.252C123.601 43.252 122.977 43.096 122.569 42.784C122.161 42.472 121.957 41.92 121.957 41.128V19.6C122.149 19.528 122.425 19.468 122.785 19.42C123.169 19.348 123.589 19.312 124.045 19.312C124.885 19.312 125.509 19.468 125.917 19.78C126.325 20.092 126.529 20.644 126.529 21.436V32.596L133.513 25.648C134.425 25.648 135.157 25.852 135.709 26.26C136.261 26.668 136.537 27.184 136.537 27.808C136.537 28.36 136.357 28.84 135.997 29.248C135.661 29.656 135.121 30.172 134.377 30.796L130.489 34.18L137.365 40.624C137.269 41.464 137.017 42.124 136.609 42.604C136.201 43.06 135.613 43.288 134.845 43.288C134.293 43.288 133.801 43.156 133.369 42.892C132.961 42.628 132.457 42.16 131.857 41.488L126.529 35.584V42.964Z" fill="#5E20E4"/>
<path d="M14.2422 12.2202L14.2568 11.7222C14.2666 11.4097 14.2959 11.0679 14.3447 10.6968L14.4619 9.83252C14.4863 9.62744 14.5107 9.44189 14.5352 9.27588C14.0713 9.78369 13.6978 10.1792 13.4146 10.4624L12.5723 11.2827C10.6875 13.0454 9.56445 13.9268 9.20312 13.9268C8.6709 13.9268 8.11182 13.812 7.52588 13.5825C7.2085 13.4556 7.02783 13.3237 6.98389 13.187C6.91553 13.0161 6.88135 12.7842 6.88135 12.4912C6.88135 12.1934 6.89111 11.9199 6.91064 11.6709C6.93018 11.4219 6.95459 11.1753 6.98389 10.9312C7.01318 10.6821 7.04248 10.4453 7.07178 10.2207C7.10596 9.99121 7.13281 9.79102 7.15234 9.62012C7.20117 9.23438 7.21094 9.0415 7.18164 9.0415L4.45703 12.3887C3.17285 13.8975 2.44287 14.7324 2.26709 14.8936C1.89111 15.2354 1.47607 15.4062 1.02197 15.4062C0.797363 15.4062 0.611816 15.3501 0.465332 15.2378C0.318848 15.1255 0.245605 14.9863 0.245605 14.8203C0.245605 14.4883 0.384766 14.1416 0.663086 13.7803L7.16699 5.51123L7.92871 4.5957C8.83691 3.52637 9.43262 2.9917 9.71582 2.9917C10.1113 2.9917 10.4873 3.0918 10.8438 3.29199C11.1611 3.46777 11.3418 3.63867 11.3857 3.80469C11.4053 3.86816 11.3638 4.16357 11.2612 4.69092L11.0049 6.0752C10.7168 7.61816 10.5728 8.61426 10.5728 9.06348C10.5728 9.50781 10.624 9.72998 10.7266 9.72998C11.0586 9.72998 11.6982 9.18555 12.6455 8.09668L15.0186 5.25488C15.541 4.6543 15.8877 4.3125 16.0586 4.22949C16.1074 4.20508 16.1782 4.19287 16.271 4.19287C16.3638 4.19287 16.4663 4.20508 16.5786 4.22949C16.6958 4.25391 16.813 4.28564 16.9302 4.32471C17.0522 4.36377 17.1694 4.41016 17.2817 4.46387C17.394 4.51758 17.4941 4.57373 17.582 4.63232C17.7725 4.75928 17.8652 4.86426 17.8604 4.94727C17.8604 5.02539 17.8408 5.19873 17.8018 5.46729C17.7627 5.73096 17.7139 6.05322 17.6553 6.43408C17.25 8.9585 17.0376 10.4233 17.0181 10.8286C17.0034 11.2339 17.0449 11.4878 17.1426 11.5903C17.2451 11.6929 17.394 11.7441 17.5894 11.7441C17.9458 11.7441 18.4634 11.5317 19.1421 11.1069C19.6011 10.8188 19.9795 10.6748 20.2773 10.6748C20.5801 10.6748 20.7314 10.8188 20.7314 11.1069C20.7314 11.4048 20.5703 11.7661 20.248 12.1909C19.7842 12.8062 19.0908 13.3628 18.168 13.8608C17.3916 14.2759 16.6543 14.4834 15.9561 14.4834C14.8135 14.4834 14.2422 13.729 14.2422 12.2202ZM28.7295 9.48828C28.7295 9.75195 28.9541 9.88379 29.4033 9.88379C29.7354 9.88379 30.1699 9.72266 30.707 9.40039L31.293 9.07812C31.4736 8.97559 31.6299 8.92432 31.7617 8.92432C31.8984 8.92432 32.0059 8.96582 32.084 9.04883C32.1621 9.13184 32.2012 9.24658 32.2012 9.39307C32.2012 9.53955 32.1523 9.71045 32.0547 9.90576C31.957 10.0962 31.8228 10.2988 31.6519 10.5137C31.481 10.7236 31.2808 10.9336 31.0513 11.1436C30.8218 11.3486 30.5752 11.5342 30.3115 11.7002C29.7256 12.0664 29.1812 12.2495 28.6782 12.2495C28.146 12.2495 27.7212 12.1592 27.4038 11.9785C27.3062 11.9199 27.2109 11.8589 27.1182 11.7954C26.5957 12.3911 25.8389 12.938 24.8477 13.436C23.793 13.9634 22.8726 14.2271 22.0864 14.2271C21.2612 14.2271 20.6094 13.9023 20.1309 13.2529C19.7451 12.7256 19.5522 12.1909 19.5522 11.6489C19.5522 10.8677 19.9697 10.123 20.8047 9.41504C21.4199 8.89746 22.0132 8.50439 22.5845 8.23584C23.1606 7.96729 23.6807 7.75977 24.1445 7.61328C25.126 7.30566 26.0098 7.15186 26.7959 7.15186C27.1475 7.15186 27.46 7.22021 27.7334 7.35693C28.0117 7.48877 28.2168 7.62305 28.3486 7.75977C28.6611 8.06738 28.8174 8.46045 28.8174 8.93896C28.8174 9.08057 28.8027 9.19043 28.7734 9.26855C28.7441 9.34668 28.7295 9.41992 28.7295 9.48828ZM22.7383 10.8726L22.731 10.8945V10.9019C22.731 11.1118 22.7773 11.2485 22.8701 11.312C23.0947 11.4487 23.3315 11.4854 23.5806 11.4219C23.8296 11.3535 24.0664 11.2705 24.291 11.1729C24.8477 10.9336 25.3506 10.6309 25.7998 10.2646C25.7217 10.1084 25.6826 9.94727 25.6826 9.78125C25.6826 9.42969 25.8364 9.07812 26.144 8.72656C25.7534 8.72656 25.2261 8.90967 24.562 9.27588C23.8296 9.68115 23.2803 10.0986 22.9141 10.5283C22.7969 10.6748 22.7383 10.7896 22.7383 10.8726ZM30.5312 11.583C30.4385 11.583 30.3481 11.561 30.2603 11.5171C30.1675 11.4731 30.082 11.4023 30.0039 11.3047C29.833 11.0898 29.7476 10.7969 29.7476 10.4258C29.7476 10.0303 29.9844 9.53711 30.458 8.94629C30.917 8.375 31.4517 7.88184 32.062 7.4668C32.7163 7.01758 33.2778 6.79297 33.7466 6.79297C34.1616 6.79297 34.4424 6.91016 34.5889 7.14453L34.6914 7.30566C34.7695 7.42773 34.8477 7.48877 34.9258 7.48877C35.0039 7.48877 35.126 7.48145 35.292 7.4668L36.332 7.39355C36.4932 7.37891 36.6201 7.37158 36.7129 7.37158C36.8057 7.37158 36.9106 7.40576 37.0278 7.47412C37.1499 7.5376 37.2573 7.62305 37.3501 7.73047C37.5552 7.97461 37.6577 8.24316 37.6577 8.53613C37.6577 8.83887 37.3232 9.31494 36.6543 9.96436L36.1709 10.4478C35.8242 10.8042 35.6509 11.0288 35.6509 11.1216C35.6509 11.2144 35.6948 11.2974 35.7827 11.3706C35.8706 11.439 35.9658 11.4731 36.0684 11.4731C36.1709 11.4731 36.2856 11.4463 36.4126 11.3926C36.5444 11.334 36.7056 11.251 36.896 11.1436C37.0864 11.0312 37.3037 10.897 37.5479 10.7407C38.2168 10.3013 38.6636 9.99854 38.8882 9.83252L39.4961 9.40039C39.9111 9.10742 40.2065 8.96094 40.3823 8.96094C40.5581 8.96094 40.7021 9 40.8145 9.07812C40.9268 9.15137 40.9829 9.28076 40.9829 9.46631C40.9829 9.65186 40.8877 9.90088 40.6973 10.2134C40.5068 10.5259 40.2993 10.7969 40.0747 11.0264C39.855 11.2559 39.6401 11.4683 39.4302 11.6636C39.2202 11.8589 38.9712 12.0713 38.6831 12.3008C38.3999 12.5254 38.085 12.7549 37.7383 12.9893C37.3916 13.2188 37.0254 13.4263 36.6396 13.6118C35.7656 14.0366 34.9624 14.249 34.23 14.249C33.1606 14.249 32.5088 13.9731 32.2744 13.4214C32.2012 13.2554 32.1646 13.0698 32.1646 12.8647C32.1646 12.6597 32.2036 12.4399 32.2817 12.2056C32.3599 11.9663 32.4624 11.7295 32.5894 11.4951C32.8433 11.0312 33.1436 10.6211 33.4902 10.2646C33.7832 9.95703 33.9297 9.77393 33.9297 9.71533C33.9297 9.62256 33.876 9.56396 33.7686 9.53955C33.666 9.51514 33.5122 9.50293 33.3071 9.50293C33.2192 9.50293 33.0312 9.62988 32.7432 9.88379L32.0254 10.543C31.2637 11.2363 30.7656 11.583 30.5312 11.583Z" fill="#A52A2A"/>
<path d="M50.66 4.8C51.52 4.8 52.21 4.965 52.73 5.295C53.26 5.625 53.525 6.155 53.525 6.885C53.525 7.245 53.42 7.54 53.21 7.77C53 7.99 52.715 8.1 52.355 8.1C52.005 8.1 51.745 8.02 51.575 7.86C51.655 7.64 51.695 7.39 51.695 7.11C51.695 6.23 51.305 5.79 50.525 5.79C50.145 5.79 49.845 5.885 49.625 6.075C49.415 6.255 49.31 6.525 49.31 6.885C49.31 7.215 49.395 7.515 49.565 7.785C49.735 8.055 49.945 8.295 50.195 8.505C50.455 8.715 50.805 8.97 51.245 9.27C51.765 9.62 52.18 9.935 52.49 10.215C52.81 10.485 53.08 10.815 53.3 11.205C53.52 11.585 53.63 12.025 53.63 12.525C53.63 13.415 53.325 14.105 52.715 14.595C52.105 15.085 51.315 15.33 50.345 15.33C49.465 15.33 48.735 15.155 48.155 14.805C47.585 14.445 47.3 13.89 47.3 13.14C47.3 12.78 47.405 12.49 47.615 12.27C47.825 12.04 48.105 11.925 48.455 11.925C48.805 11.925 49.065 12.005 49.235 12.165C49.165 12.365 49.13 12.615 49.13 12.915C49.13 13.865 49.58 14.34 50.48 14.34C50.92 14.34 51.28 14.22 51.56 13.98C51.84 13.73 51.98 13.395 51.98 12.975C51.98 12.645 51.895 12.345 51.725 12.075C51.555 11.805 51.34 11.565 51.08 11.355C50.83 11.145 50.485 10.89 50.045 10.59C49.525 10.24 49.105 9.93 48.785 9.66C48.475 9.38 48.21 9.05 47.99 8.67C47.77 8.28 47.66 7.835 47.66 7.335C47.66 6.535 47.94 5.915 48.5 5.475C49.07 5.025 49.79 4.8 50.66 4.8ZM55.8902 13.41C56.2202 13.41 56.4852 13.49 56.6852 13.65C56.8852 13.81 56.9852 14.04 56.9852 14.34C56.9852 14.65 56.8752 14.885 56.6552 15.045C56.4452 15.215 56.1752 15.3 55.8452 15.3C55.5152 15.3 55.2502 15.22 55.0502 15.06C54.8502 14.9 54.7502 14.67 54.7502 14.37C54.7502 14.06 54.8552 13.825 55.0652 13.665C55.2852 13.495 55.5602 13.41 55.8902 13.41ZM62.6734 5.1L65.2384 15H63.4684L62.8684 12.48H59.9284L59.3434 15H57.6934L60.4384 5.1H62.6734ZM60.1984 11.37H62.6134L61.3984 6.225L60.1984 11.37ZM67.0523 13.41C67.3823 13.41 67.6473 13.49 67.8473 13.65C68.0473 13.81 68.1473 14.04 68.1473 14.34C68.1473 14.65 68.0373 14.885 67.8173 15.045C67.6073 15.215 67.3373 15.3 67.0073 15.3C66.6773 15.3 66.4123 15.22 66.2123 15.06C66.0123 14.9 65.9123 14.67 65.9123 14.37C65.9123 14.06 66.0173 13.825 66.2273 13.665C66.4473 13.495 66.7223 13.41 67.0523 13.41ZM73.1305 5.85C72.3705 5.85 71.8655 6.25 71.6155 7.05C71.3755 7.84 71.2555 8.83 71.2555 10.02C71.2555 11.21 71.3855 12.165 71.6455 12.885C71.9055 13.595 72.4505 13.95 73.2805 13.95C73.8005 13.95 74.2455 13.805 74.6155 13.515C74.9855 13.225 75.2505 12.825 75.4105 12.315C75.6205 12.385 75.7705 12.495 75.8605 12.645C75.9505 12.785 75.9955 12.97 75.9955 13.2C75.9955 13.65 75.8555 14.035 75.5755 14.355C75.3055 14.675 74.9505 14.915 74.5105 15.075C74.0805 15.245 73.6205 15.33 73.1305 15.33C71.7705 15.33 70.8005 14.86 70.2205 13.92C69.6505 12.98 69.3655 11.705 69.3655 10.095C69.3655 8.495 69.6705 7.215 70.2805 6.255C70.9005 5.285 71.8955 4.8 73.2655 4.8C74.1455 4.8 74.8455 4.975 75.3655 5.325C75.8955 5.675 76.1605 6.23 76.1605 6.99C76.1605 7.35 76.0555 7.645 75.8455 7.875C75.6355 8.095 75.3505 8.205 74.9905 8.205C74.6405 8.205 74.3805 8.125 74.2105 7.965C74.2905 7.745 74.3305 7.495 74.3305 7.215C74.3305 6.305 73.9305 5.85 73.1305 5.85Z" fill="black"/>
</svg>
